<?xml version="1.0" standalone="no"?>
<!DOCTYPE svg PUBLIC "-//W3C//DTD SVG 20010904//EN"
 "http://www.w3.org/TR/2001/REC-SVG-20010904/DTD/svg10.dtd">
<svg version="1.0" xmlns="http://www.w3.org/2000/svg"
 width="26px" height="26px" viewBox="0 0 439.000000 447.000000"
 preserveAspectRatio="xMidYMid meet">0

<g transform="translate(0.000000,447.000000) scale(0.100000,-0.100000)"
fill="#e9d0d0" stroke="none">
<path d="M1742 4387 l-62 -63 55 -54 55 -54 -103 -23 c-272 -58 -543 -179
-782 -347 -130 -92 -347 -304 -444 -433 -205 -273 -339 -577 -402 -913 -40
-219 -37 -556 8 -780 17 -88 72 -282 82 -292 6 -7 145 32 157 44 3 4 -8 55
-25 115 -76 273 -94 512 -60 793 52 418 248 819 543 1113 259 258 538 417 897
511 l133 36 -52 -53 -52 -53 63 -62 62 -62 158 158 157 157 -163 163 -162 162
-63 -63z"/>
<path d="M2398 4140 l-15 -90 24 0 c47 0 230 -43 348 -81 298 -98 549 -254
771 -481 366 -372 558 -843 557 -1363 -1 -168 -21 -338 -59 -483 -14 -53 -27
-98 -29 -101 -3 -2 -14 18 -26 45 -12 27 -23 51 -25 53 -2 2 -39 -11 -83 -28
l-79 -32 65 -157 c35 -86 72 -175 80 -197 9 -22 20 -44 24 -49 6 -7 396 143
418 160 3 3 -56 153 -63 162 -2 1 -36 -11 -76 -28 -40 -17 -75 -28 -77 -26 -3
2 6 42 20 88 68 227 92 415 84 658 -11 336 -79 605 -228 902 -107 214 -233
382 -422 564 -298 287 -665 477 -1062 548 -49 9 -99 18 -111 21 -19 4 -22 -2
-36 -85z"/>
<path d="M1843 3576 c-27 -24 -28 -28 -33 -147 l-5 -122 -55 -19 c-30 -10 -90
-35 -133 -55 l-77 -36 -84 81 c-127 124 -114 128 -353 -111 -186 -185 -193
-194 -193 -232 0 -36 7 -47 82 -122 l81 -82 -35 -78 c-20 -43 -44 -104 -54
-135 l-18 -58 -108 0 c-123 0 -158 -12 -177 -58 -9 -21 -11 -103 -9 -290 4
-329 -6 -310 171 -314 l121 -3 36 -95 c20 -52 46 -113 57 -135 l21 -40 -84
-86 c-122 -125 -127 -110 99 -337 100 -101 195 -190 211 -199 44 -23 74 -9
162 78 l81 81 64 -33 c35 -17 93 -42 129 -54 l65 -22 5 -114 c5 -116 15 -150
50 -169 11 -6 124 -10 289 -10 l270 0 28 24 c27 24 28 28 33 147 l5 122 55 19
c30 10 90 35 133 55 l78 37 82 -81 c45 -45 92 -84 104 -87 12 -4 34 -1 50 8
15 8 110 97 211 199 227 230 223 217 99 346 l-84 86 22 37 c12 21 37 80 56
133 l34 95 110 0 c189 0 189 1 182 350 -3 135 -9 253 -13 263 -13 35 -57 47
-173 47 l-109 0 -23 68 c-12 37 -37 97 -55 133 l-33 66 74 73 c78 78 101 115
92 152 -4 13 -93 110 -200 216 -240 239 -226 234 -356 108 l-86 -84 -55 28
c-30 16 -90 41 -132 55 l-78 27 0 120 c0 119 0 120 -29 149 l-29 29 -271 0
-270 0 -28 -24z m457 -265 c0 -136 3 -140 130 -176 53 -14 141 -50 199 -81 58
-30 118 -54 134 -54 23 0 46 16 108 77 l80 77 104 -104 c58 -58 105 -109 105
-115 0 -6 -31 -41 -69 -79 -38 -38 -72 -80 -76 -93 -4 -17 12 -59 58 -153 36
-71 72 -161 82 -200 10 -40 28 -84 40 -98 22 -26 29 -27 129 -30 l106 -4 0
-154 0 -154 -104 0 c-131 0 -137 -4 -171 -125 -14 -49 -50 -140 -80 -201 -30
-60 -55 -123 -55 -139 0 -23 16 -46 76 -106 l75 -76 -110 -114 -109 -114 -79
77 c-93 92 -111 96 -200 44 -76 -44 -163 -80 -254 -106 -109 -29 -119 -44
-119 -176 l0 -104 -155 0 -155 0 0 104 c0 135 -8 146 -135 181 -49 14 -139 50
-200 80 -60 30 -121 55 -134 55 -16 0 -49 -25 -102 -77 l-80 -77 -109 109
-109 109 74 78 c57 59 75 85 75 106 0 15 -26 80 -59 144 -33 65 -69 154 -82
203 -30 115 -44 125 -181 125 l-98 0 0 155 0 155 104 0 c134 0 144 7 180 138
14 52 51 142 81 201 30 60 55 118 55 131 0 14 -27 50 -77 101 l-77 80 109 109
109 109 78 -74 c59 -57 84 -75 106 -75 16 0 75 24 133 54 57 30 142 66 189 80
47 13 93 27 103 31 34 14 47 59 47 160 l0 95 155 0 155 0 0 -109z"/>
<path d="M1975 2924 c-279 -62 -506 -264 -600 -532 -104 -296 -20 -633 212
-853 252 -240 643 -290 945 -121 202 113 358 320 402 534 20 96 20 251 1 343
-62 293 -275 523 -570 614 -95 30 -291 37 -390 15z m307 -175 c79 -17 192 -72
262 -129 182 -148 270 -393 222 -619 -40 -187 -173 -361 -338 -440 -146 -70
-292 -87 -432 -51 -224 57 -392 214 -461 433 -30 94 -34 247 -10 342 57 219
238 401 455 459 66 18 229 20 302 5z"/>
<path d="M435 1088 c-6 -21 -85 -412 -85 -424 0 -6 28 -17 63 -23 34 -7 72
-15 83 -17 19 -5 23 1 34 58 l13 64 106 -106 c191 -191 380 -323 626 -437 362
-167 781 -227 1176 -168 385 58 750 221 1046 469 132 110 317 306 302 320 -2
2 -30 26 -62 53 l-59 50 -156 -157 c-219 -218 -400 -341 -653 -440 -228 -90
-409 -128 -649 -137 -543 -20 -1031 166 -1416 540 -74 71 -132 132 -130 134 2
3 39 -3 81 -12 42 -10 78 -15 80 -13 7 6 37 159 33 163 -3 3 -413 95 -424 95
-3 0 -6 -6 -9 -12z"/>
</g>
</svg>
