<?xml version="1.0" standalone="no"?>
<!DOCTYPE svg PUBLIC "-//W3C//DTD SVG 20010904//EN"
 "http://www.w3.org/TR/2001/REC-SVG-20010904/DTD/svg10.dtd">
<svg version="1.0" xmlns="http://www.w3.org/2000/svg"
 width="26px" height="26px" viewBox="0 0 439.000000 447.000000"
 preserveAspectRatio="xMidYMid meet" style="cursor:pointer">0

<g transform="translate(0.000000,447.000000) scale(0.100000,-0.100000)"
fill="#e9d0d0" stroke="none">
<path d="M1742 4387 l-62 -63 55 -54 55 -54 -103 -23 c-272 -58 -543 -179
-782 -347 -130 -92 -347 -304 -444 -433 -205 -273 -339 -577 -402 -913 -40
-219 -37 -556 8 -780 17 -88 72 -282 82 -292 6 -7 145 32 157 44 3 4 -8 55
-25 115 -76 273 -94 512 -60 793 52 418 248 819 543 1113 259 258 538 417 897
511 l133 36 -52 -53 -52 -53 63 -62 62 -62 158 158 157 157 -163 163 -162 162
-63 -63z"/>
<path d="M2398 4140 l-15 -90 24 0 c47 0 230 -43 348 -81 298 -98 549 -254
771 -481 366 -372 558 -843 557 -1363 -1 -168 -21 -338 -59 -483 -14 -53 -27
-98 -29 -101 -3 -2 -14 18 -26 45 -12 27 -23 51 -25 53 -2 2 -39 -11 -83 -28
l-79 -32 65 -157 c35 -86 72 -175 80 -197 9 -22 20 -44 24 -49 6 -7 396 143
418 160 3 3 -56 153 -63 162 -2 1 -36 -11 -76 -28 -40 -17 -75 -28 -77 -26 -3
2 6 42 20 88 68 227 92 415 84 658 -11 336 -79 605 -228 902 -107 214 -233
382 -422 564 -298 287 -665 477 -1062 548 -49 9 -99 18 -111 21 -19 4 -22 -2
-36 -85z"/>
<path d="M1975 2924 c-279 -62 -506 -264 -600 -532 -104 -296 -20 -633 212
-853 252 -240 643 -290 945 -121 202 113 358 320 402 534 20 96 20 251 1 343
-62 293 -275 523 -570 614 -95 30 -291 37 -390 15z m307 -175 c79 -17 192 -72
262 -129 182 -148 270 -393 222 -619 -40 -187 -173 -361 -338 -440 -146 -70
-292 -87 -432 -51 -224 57 -392 214 -461 433 -30 94 -34 247 -10 342 57 219
238 401 455 459 66 18 229 20 302 5z"/>
<path d="M435 1088 c-6 -21 -85 -412 -85 -424 0 -6 28 -17 63 -23 34 -7 72
-15 83 -17 19 -5 23 1 34 58 l13 64 106 -106 c191 -191 380 -323 626 -437 362
-167 781 -227 1176 -168 385 58 750 221 1046 469 132 110 317 306 302 320 -2
2 -30 26 -62 53 l-59 50 -156 -157 c-219 -218 -400 -341 -653 -440 -228 -90
-409 -128 -649 -137 -543 -20 -1031 166 -1416 540 -74 71 -132 132 -130 134 2
3 39 -3 81 -12 42 -10 78 -15 80 -13 7 6 37 159 33 163 -3 3 -413 95 -424 95
-3 0 -6 -6 -9 -12z"/>
</g>
</svg>
