<?xml version="1.0" encoding="UTF-8" standalone="no"?>
<svg
   xmlns:dc="http://purl.org/dc/elements/1.1/"
   xmlns:cc="http://creativecommons.org/ns#"
   xmlns:rdf="http://www.w3.org/1999/02/22-rdf-syntax-ns#"
   xmlns:svg="http://www.w3.org/2000/svg"
   xmlns="http://www.w3.org/2000/svg"
   xmlns:sodipodi="http://sodipodi.sourceforge.net/DTD/sodipodi-0.dtd"
   xmlns:inkscape="http://www.inkscape.org/namespaces/inkscape"
   version="1.1"
   id="svg2"
   xml:space="preserve"
   width="4860.48"
   height="2743.9333"
   viewBox="0 0 4860.48 2743.9333"
   sodipodi:docname="karate-kid-1616688.ai"><metadata
     id="metadata8"><rdf:RDF><cc:Work
         rdf:about=""><dc:format>image/svg+xml</dc:format><dc:type
           rdf:resource="http://purl.org/dc/dcmitype/StillImage" /></cc:Work></rdf:RDF></metadata><defs
     id="defs6"><clipPath
       clipPathUnits="userSpaceOnUse"
       id="clipPath18"><path
         d="M 0,2057.948 H 3645.358 V 0 H 0 Z"
         id="path16" /></clipPath><clipPath
       clipPathUnits="userSpaceOnUse"
       id="clipPath178"><path
         d="m 2293.47,1198.95 h 20.04 v -12.24 h -20.04 z"
         id="path176" /></clipPath><clipPath
       clipPathUnits="userSpaceOnUse"
       id="clipPath238"><path
         d="m 2125.18,1284.1 h 11.29 v -22.97 h -11.29 z"
         id="path236" /></clipPath><clipPath
       clipPathUnits="userSpaceOnUse"
       id="clipPath442"><path
         d="M 0,2057.948 H 3645.358 V 0 H 0 Z"
         id="path440" /></clipPath></defs><sodipodi:namedview
     pagecolor="#ffffff"
     bordercolor="#666666"
     borderopacity="1"
     objecttolerance="10"
     gridtolerance="10"
     guidetolerance="10"
     inkscape:pageopacity="0"
     inkscape:pageshadow="2"
     inkscape:window-width="640"
     inkscape:window-height="480"
     id="namedview4" /><g
     id="g10"
     inkscape:groupmode="layer"
     inkscape:label="karate-kid-1616688"
     transform="matrix(1.3333333,0,0,-1.3333333,0,2743.9333)"><g
       id="g12"><g
         id="g14"
         clip-path="url(#clipPath18)"><g
           id="g20"
           transform="translate(1759.5858,1012.4439)"><path
             d="M 0,0 C 0,0 -77.167,124.227 -55.851,182.719 -55.298,181.703 -202.677,35.79 -202.677,35.79 l 76.218,-324.117 z"
             style="fill:#f9d999;fill-opacity:1;fill-rule:nonzero;stroke:none"
             id="path22" /></g><g
           id="g24"
           transform="translate(1759.5858,1012.4439)"><path
             d="M 0,0 C 0,0 -77.167,124.227 -55.851,182.719 -55.298,181.703 -202.677,35.79 -202.677,35.79 l 76.218,-324.117 z"
             style="fill:none;stroke:#131210;stroke-width:4;stroke-linecap:butt;stroke-linejoin:miter;stroke-miterlimit:10;stroke-dasharray:none;stroke-opacity:1"
             id="path26" /></g><g
           id="g28"
           transform="translate(1089.0552,870.986)"><path
             d="M 0,0 C 0,0 -1.262,37.74 15.148,19.649 17.673,21.041 15.148,0 15.148,0 Z"
             style="fill:#f9d999;fill-opacity:1;fill-rule:nonzero;stroke:none"
             id="path30" /></g><g
           id="g32"
           transform="translate(1089.0552,870.986)"><path
             d="M 0,0 C 0,0 -1.262,37.74 15.148,19.649 17.673,21.041 15.148,0 15.148,0 Z"
             style="fill:none;stroke:#231f20;stroke-width:3;stroke-linecap:butt;stroke-linejoin:miter;stroke-miterlimit:10;stroke-dasharray:none;stroke-opacity:1"
             id="path34" /></g><g
           id="g36"
           transform="translate(1231.7032,731.9977)"><path
             d="m 0,0 c 0,0 -70.693,139.156 -126.237,114.108 0,-4.175 -61.857,1.859 -59.332,3.017 2.525,1.157 -11.361,-3.017 -34.084,28.989 2.525,-2.783 -1.262,15.307 35.347,0 -2.525,1.391 69.43,0 94.677,12.524 -3.787,-4.175 35.347,6.957 53.02,-29.223 3.787,-1.392 65.644,-83.566 68.168,-99.533 C 29.035,34.789 0,0 0,0"
             style="fill:#f9d999;fill-opacity:1;fill-rule:nonzero;stroke:none"
             id="path38" /></g><g
           id="g40"
           transform="translate(1231.7032,731.9977)"><path
             d="m 0,0 c 0,0 -70.693,139.156 -126.237,114.108 0,-4.175 -61.857,1.859 -59.332,3.017 2.525,1.157 -11.361,-3.017 -34.084,28.989 2.525,-2.783 -1.262,15.307 35.347,0 -2.525,1.391 69.43,0 94.677,12.524 -3.787,-4.175 35.347,6.957 53.02,-29.223 3.787,-1.392 65.644,-83.566 68.168,-99.533 C 29.035,34.789 0,0 0,0 Z"
             style="fill:none;stroke:#231f20;stroke-width:3;stroke-linecap:butt;stroke-linejoin:miter;stroke-miterlimit:10;stroke-dasharray:none;stroke-opacity:1"
             id="path42" /></g><g
           id="g44"
           transform="translate(1884.3284,978.3144)"><path
             d="m 0,0 c 0,0 53.494,-633.73 146.72,-631.352 -3.143,-5.107 437.195,-200.463 351.789,-385.989 8.594,-14.841 40.604,-232.525 10.994,-232.525 -29.611,0 -229.144,14.842 -229.144,14.842 0,0 -39.484,180.578 -20.159,197.894 -12.833,-4.947 -391.305,160.789 -396.252,183.052 32.158,-24.737 -126.226,49.473 -180.612,-17.316 -7.387,12.368 -281.964,-185.525 -277.017,-257.262 2.474,14.842 -260.154,-14.973 -260.154,-14.973 0,0 5.44,233.525 103.359,255.285 -21.759,-10.88 250.238,263.411 250.238,263.411 0,0 108.799,143.564 59.84,386.153 0,19.55 52.095,-152.962 -81.038,-167.038 -3.859,-0.57 -291.349,-3.738 -241.183,59.589 0,-2.274 36.668,58.256 73.095,107.451 30.942,41.786 61.71,75.395 69.686,55.389 3.859,-8.829 40.518,-21.867 42.448,-24.995 1.929,-3.128 49.231,277.844 116.265,242.514 -6.286,10.976 135.297,41.377 112.742,16.529 4.458,-3.623 97.181,-278.327 97.181,-278.327 l 189.553,292.99 z"
             style="fill:#7c786b;fill-opacity:1;fill-rule:nonzero;stroke:none"
             id="path46" /></g><g
           id="g48"
           transform="translate(1884.3284,978.3144)"><path
             d="m 0,0 c 0,0 53.494,-633.73 146.72,-631.352 -3.143,-5.107 437.195,-200.463 351.789,-385.989 8.594,-14.841 40.604,-232.525 10.994,-232.525 -29.611,0 -229.144,14.842 -229.144,14.842 0,0 -39.484,180.578 -20.159,197.894 -12.833,-4.947 -391.305,160.789 -396.252,183.052 32.158,-24.737 -126.226,49.473 -180.612,-17.316 -7.387,12.368 -281.964,-185.525 -277.017,-257.262 2.474,14.842 -260.154,-14.973 -260.154,-14.973 0,0 5.44,233.525 103.359,255.285 -21.759,-10.88 250.238,263.411 250.238,263.411 0,0 108.799,143.564 59.84,386.153 0,19.55 52.095,-152.962 -81.038,-167.038 -3.859,-0.57 -291.349,-3.738 -241.183,59.589 0,-2.274 36.668,58.256 73.095,107.451 30.942,41.786 61.71,75.395 69.686,55.389 3.859,-8.829 40.518,-21.867 42.448,-24.995 1.929,-3.128 49.231,277.844 116.265,242.514 -6.286,10.976 135.297,41.377 112.742,16.529 4.458,-3.623 97.181,-278.327 97.181,-278.327 l 189.553,292.99 z"
             style="fill:none;stroke:#0f1110;stroke-width:4;stroke-linecap:butt;stroke-linejoin:miter;stroke-miterlimit:10;stroke-dasharray:none;stroke-opacity:1"
             id="path50" /></g><g
           id="g52"
           transform="translate(1567.6641,1028.9739)"><path
             d="m 0,0 c 0,0 -8.838,53.069 -63.088,-8.079 -2.965,-3.945 50.061,-335.329 84.696,-335.329 -4.815,5.917 43.855,116.379 43.855,116.379 z"
             style="fill:#7c786b;fill-opacity:1;fill-rule:nonzero;stroke:none"
             id="path54" /></g><g
           id="g56"
           transform="translate(1567.6641,1028.9739)"><path
             d="m 0,0 c 0,0 -8.838,53.069 -63.088,-8.079 -2.965,-3.945 50.061,-335.329 84.696,-335.329 -4.815,5.917 43.855,116.379 43.855,116.379 z"
             style="fill:none;stroke:#231f20;stroke-width:4;stroke-linecap:butt;stroke-linejoin:miter;stroke-miterlimit:10;stroke-dasharray:none;stroke-opacity:1"
             id="path58" /></g><g
           id="g60"
           transform="translate(1728.1592,1048.1385)"><path
             d="m 0,0 c 0,0 60.534,63.609 94.52,-4.502 6.371,-10.907 -248.085,-577.797 -392.079,-616.859 -5.918,-5.53 -17.753,26.979 11.835,93.571 C -289.669,-526.292 -29.155,-130.132 0,0"
             style="fill:#7c786b;fill-opacity:1;fill-rule:nonzero;stroke:none"
             id="path62" /></g><g
           id="g64"
           transform="translate(1728.1592,1048.1385)"><path
             d="m 0,0 c 0,0 60.534,63.609 94.52,-4.502 6.371,-10.907 -248.085,-577.797 -392.079,-616.859 -5.918,-5.53 -17.753,26.979 11.835,93.571 C -289.669,-526.292 -29.155,-130.132 0,0 Z"
             style="fill:none;stroke:#0f1110;stroke-width:4;stroke-linecap:butt;stroke-linejoin:miter;stroke-miterlimit:10;stroke-dasharray:none;stroke-opacity:1"
             id="path66" /></g><g
           id="g68"
           transform="translate(1822.679,750.6469)"><path
             d="m 0,0 c 0,0 -69.388,38.589 -53.633,44.278 1.224,0.846 30.707,75.919 25.653,100.136 -2.633,12.109 -48.536,41.4 -51.998,0 -6.335,-4.843 -52.12,-107.38 -24.384,-125.131 25.187,4.514 70.324,-72.342 87.343,-45.813 C -16.336,-27.676 0,0 0,0"
             style="fill:#f9d999;fill-opacity:1;fill-rule:nonzero;stroke:none"
             id="path70" /></g><g
           id="g72"
           transform="translate(1822.679,750.6469)"><path
             d="m 0,0 c 0,0 -69.388,38.589 -53.633,44.278 1.224,0.846 30.707,75.919 25.653,100.136 -2.633,12.109 -48.536,41.4 -51.998,0 -6.335,-4.843 -52.12,-107.38 -24.384,-125.131 25.187,4.514 70.324,-72.342 87.343,-45.813 C -16.336,-27.676 0,0 0,0 Z"
             style="fill:none;stroke:#131210;stroke-width:4;stroke-linecap:butt;stroke-linejoin:miter;stroke-miterlimit:10;stroke-dasharray:none;stroke-opacity:1"
             id="path74" /></g><g
           id="g76"
           transform="translate(1799.4619,1048.1385)"><path
             d="m 0,0 c 0,0 179.436,2.833 176.509,-55.601 2.991,-3.203 184.953,-267.593 212.026,-405.144 0.052,-14.262 31.612,-100.908 -112.382,-85.2 0,-17.825 -295.878,-16.669 -305.741,33.052 -3.945,-5.509 5.011,251.983 52.805,234.685 -0.806,0.56 157.325,-60.695 157.325,-60.695 l -136.17,60.695"
             style="fill:#7c786b;fill-opacity:1;fill-rule:nonzero;stroke:#0f1110;stroke-width:4;stroke-linecap:butt;stroke-linejoin:miter;stroke-miterlimit:10;stroke-dasharray:none;stroke-opacity:1"
             id="path78" /></g><g
           id="g80"
           transform="translate(1694.6688,668.1125)"><path
             d="m 0,0 c 0,0 -76.84,105.504 -120.389,89.028 2.562,-1.106 -192.124,64.857 -156.261,113.848 2.562,8.006 20.493,48.992 20.493,48.992 0,0 40.987,12.808 17.932,-30.74 2.562,0 -12.808,-30.74 -12.808,-30.74 0,0 5.282,9.264 24.747,-15.279 1.693,-1.692 9.31,15.234 124.409,-15.234 1.692,-2.538 -44.009,18.619 -8.463,37.238 3.385,0.847 57.549,-8.463 44.854,-29.621 0.847,2.539 69.398,-10.269 55.857,-40.679 1.693,-1.636 49.087,-82.037 49.087,-82.037 z"
             style="fill:#f9d999;fill-opacity:1;fill-rule:nonzero;stroke:none"
             id="path82" /></g><g
           id="g84"
           transform="translate(1694.6688,668.1125)"><path
             d="m 0,0 c 0,0 -76.84,105.504 -120.389,89.028 2.562,-1.106 -192.124,64.857 -156.261,113.848 2.562,8.006 20.493,48.992 20.493,48.992 0,0 40.987,12.808 17.932,-30.74 2.562,0 -12.808,-30.74 -12.808,-30.74 0,0 5.282,9.264 24.747,-15.279 1.693,-1.692 9.31,15.234 124.409,-15.234 1.692,-2.538 -44.009,18.619 -8.463,37.238 3.385,0.847 57.549,-8.463 44.854,-29.621 0.847,2.539 69.398,-10.269 55.857,-40.679 1.693,-1.636 49.087,-82.037 49.087,-82.037 z"
             style="fill:none;stroke:#131210;stroke-width:4;stroke-linecap:butt;stroke-linejoin:miter;stroke-miterlimit:10;stroke-dasharray:none;stroke-opacity:1"
             id="path86" /></g><g
           id="g88"
           transform="translate(2639.5039,532.4439)"><path
             d="m 0,0 c 0,0 26.667,-250 -20,-246.667 -3.333,0 193.333,-233.333 213.333,-370 20,10 -430,-80 -500,-66.666 16.667,-10 -526.983,-26.035 -510.158,-1.351 -3.175,8.017 6.825,178.017 50.158,214.684 -33.333,-23.333 93.334,243.333 116.667,216.667 -26.667,3.333 0,153.333 20,146.666 -10,-3.333 46.667,136.667 -20,180 6.667,-36.666 86.667,-190 -126.667,-176.666 0,0 -269.333,29.333 -203.333,61.333 -2,2 58,336 84,284 0,0 40.35,6 79.175,-84 C -816,156 -740,394 -592,408 c 0,4 168,38 166,62 2,6 52,-176 52,-176 0,0 118,244 170,248 -4,0 25.648,-29.617 26.922,-62 C -163.333,480 16.627,327.898 0,0"
             style="fill:#4f4c4d;fill-opacity:1;fill-rule:nonzero;stroke:none"
             id="path90" /></g><g
           id="g92"
           transform="translate(2639.5039,532.4439)"><path
             d="m 0,0 c 0,0 26.667,-250 -20,-246.667 -3.333,0 193.333,-233.333 213.333,-370 20,10 -430,-80 -500,-66.666 16.667,-10 -526.983,-26.035 -510.158,-1.351 -3.175,8.017 6.825,178.017 50.158,214.684 -33.333,-23.333 93.334,243.333 116.667,216.667 -26.667,3.333 0,153.333 20,146.666 -10,-3.333 46.667,136.667 -20,180 6.667,-36.666 86.667,-190 -126.667,-176.666 0,0 -269.333,29.333 -203.333,61.333 -2,2 58,336 84,284 0,0 40.35,6 79.175,-84 C -816,156 -740,394 -592,408 c 0,4 168,38 166,62 2,6 52,-176 52,-176 0,0 118,244 170,248 -4,0 25.648,-29.617 26.922,-62 C -163.333,480 16.627,327.898 0,0 Z"
             style="fill:none;stroke:#231f20;stroke-width:3;stroke-linecap:butt;stroke-linejoin:miter;stroke-miterlimit:10;stroke-dasharray:none;stroke-opacity:1"
             id="path94" /></g><g
           id="g96"
           transform="translate(2397.3372,1130.1849)"><path
             d="m 0,0 c 0,0 24.219,-96.582 35.57,-101.211 -2.056,4.308 -167.403,-202.53 -167.403,-202.53 0,0 -79.014,187.051 -77.485,202.53 C -207.789,-85.732 0,0 0,0"
             style="fill:#f9d999;fill-opacity:1;fill-rule:nonzero;stroke:none"
             id="path98" /></g><g
           id="g100"
           transform="translate(2397.3372,1130.1849)"><path
             d="m 0,0 c 0,0 24.219,-96.582 35.57,-101.211 -2.056,4.308 -167.403,-202.53 -167.403,-202.53 0,0 -79.014,187.051 -77.485,202.53 C -207.789,-85.732 0,0 0,0 Z"
             style="fill:none;stroke:#231f20;stroke-width:2;stroke-linecap:butt;stroke-linejoin:miter;stroke-miterlimit:10;stroke-dasharray:none;stroke-opacity:1"
             id="path102" /></g><g
           id="g104"
           transform="translate(2274.6602,539.2256)"><path
             d="m 0,0 c 0,-8.228 -6.67,-14.897 -14.897,-14.897 -8.228,0 -14.898,6.669 -14.898,14.897 0,8.228 6.67,14.897 14.898,14.897 C -6.67,14.897 0,8.228 0,0"
             style="fill:#4e191a;fill-opacity:1;fill-rule:nonzero;stroke:none"
             id="path106" /></g><g
           id="g108"
           transform="translate(2274.6602,539.2256)"><path
             d="m 0,0 c 0,-8.228 -6.67,-14.897 -14.897,-14.897 -8.228,0 -14.898,6.669 -14.898,14.897 0,8.228 6.67,14.897 14.898,14.897 C -6.67,14.897 0,8.228 0,0 Z"
             style="fill:none;stroke:#111010;stroke-width:1;stroke-linecap:butt;stroke-linejoin:miter;stroke-miterlimit:10;stroke-dasharray:none;stroke-opacity:1"
             id="path110" /></g><g
           id="g112"
           transform="translate(2495.0269,1010.833)"><path
             d="m 0,0 c 0,0 -32.326,8.369 -59.523,63.611 0,0 -90.04,-26.399 -453.858,-720.6 0.722,4.59 -17.524,-64.942 7.858,-74.733 0,0 477.429,786.69 505.523,731.722"
             style="fill:#4f4c4d;fill-opacity:1;fill-rule:nonzero;stroke:none"
             id="path114" /></g><g
           id="g116"
           transform="translate(2495.0269,1010.833)"><path
             d="m 0,0 c 0,0 -32.326,8.369 -59.523,63.611 0,0 -90.04,-26.399 -453.858,-720.6 0.722,4.59 -17.524,-64.942 7.858,-74.733 0,0 477.429,786.69 505.523,731.722 z"
             style="fill:none;stroke:#231f20;stroke-width:3;stroke-linecap:butt;stroke-linejoin:miter;stroke-miterlimit:10;stroke-dasharray:none;stroke-opacity:1"
             id="path118" /></g><g
           id="g120"
           transform="translate(2349.0791,661.8799)"><path
             d="m 0,0 c 0,-8.228 -6.67,-14.897 -14.897,-14.897 -8.228,0 -14.898,6.669 -14.898,14.897 0,8.228 6.67,14.897 14.898,14.897 C -6.67,14.897 0,8.228 0,0"
             style="fill:#4e191a;fill-opacity:1;fill-rule:nonzero;stroke:none"
             id="path122" /></g><g
           id="g124"
           transform="translate(2349.0791,661.8799)"><path
             d="m 0,0 c 0,-8.228 -6.67,-14.897 -14.897,-14.897 -8.228,0 -14.898,6.669 -14.898,14.897 0,8.228 6.67,14.897 14.898,14.897 C -6.67,14.897 0,8.228 0,0 Z"
             style="fill:none;stroke:#111010;stroke-width:1;stroke-linecap:butt;stroke-linejoin:miter;stroke-miterlimit:10;stroke-dasharray:none;stroke-opacity:1"
             id="path126" /></g><g
           id="g128"
           transform="translate(2432.907,521.1631)"><path
             d="m 0,0 c 0,0 -78.468,-47.81 -81.945,-28.809 -0.711,-3.516 -29.421,-7.957 -54.285,10.245 0,0 -54.628,48.374 -46.427,67.209 -2.26,-3.934 -66.899,99.894 -61.962,106.214 3.935,-2.259 -11.236,100.014 87.59,49.458 3.266,1.703 39.782,-35.005 45.346,-61.723 2.38,-2.654 20.68,-64.175 28.247,-12.276 -1.967,1.13 4.775,56.077 21.306,25.677 -1.263,4.671 0.802,-82.845 0.802,-82.845 l 44.995,-12.758 z"
             style="fill:#f9d999;fill-opacity:1;fill-rule:nonzero;stroke:none"
             id="path130" /></g><g
           id="g132"
           transform="translate(2432.907,521.1631)"><path
             d="m 0,0 c 0,0 -78.468,-47.81 -81.945,-28.809 -0.711,-3.516 -29.421,-7.957 -54.285,10.245 0,0 -54.628,48.374 -46.427,67.209 -2.26,-3.934 -66.899,99.894 -61.962,106.214 3.935,-2.259 -11.236,100.014 87.59,49.458 3.266,1.703 39.782,-35.005 45.346,-61.723 2.38,-2.654 20.68,-64.175 28.247,-12.276 -1.967,1.13 4.775,56.077 21.306,25.677 -1.263,4.671 0.802,-82.845 0.802,-82.845 l 44.995,-12.758 z"
             style="fill:none;stroke:#231f20;stroke-width:3;stroke-linecap:butt;stroke-linejoin:miter;stroke-miterlimit:10;stroke-dasharray:none;stroke-opacity:1"
             id="path134" /></g><g
           id="g136"
           transform="translate(2476.1707,1012.4439)"><path
             d="m 0,0 c 0,0 316.667,-20 276.667,-176.667 0,0 50,-153.333 40,-236.666 C 306.667,-430 330,-626.667 190,-590 176.667,-590 43.333,-723.333 0,-680 10,-700 -53.333,-443.333 -93.333,-396.667 -76.667,-413.333 64.656,-350 112.328,-360 106.667,-363.333 30,-190 30,-163.333"
             style="fill:#4f4c4d;fill-opacity:1;fill-rule:nonzero;stroke:#231f20;stroke-width:3;stroke-linecap:butt;stroke-linejoin:miter;stroke-miterlimit:10;stroke-dasharray:none;stroke-opacity:1"
             id="path138" /></g><g
           id="g140"
           transform="translate(2262.2229,520.3483)"><path
             d="m 0,0 c 0,-8.228 -6.67,-14.897 -14.897,-14.897 -8.228,0 -14.898,6.669 -14.898,14.897 0,8.228 6.67,14.897 14.898,14.897 C -6.67,14.897 0,8.228 0,0"
             style="fill:#4e191a;fill-opacity:1;fill-rule:nonzero;stroke:none"
             id="path142" /></g><g
           id="g144"
           transform="translate(2262.2229,520.3483)"><path
             d="m 0,0 c 0,-8.228 -6.67,-14.897 -14.897,-14.897 -8.228,0 -14.898,6.669 -14.898,14.897 0,8.228 6.67,14.897 14.898,14.897 C -6.67,14.897 0,8.228 0,0 Z"
             style="fill:none;stroke:#111010;stroke-width:1;stroke-linecap:butt;stroke-linejoin:miter;stroke-miterlimit:10;stroke-dasharray:none;stroke-opacity:1"
             id="path146" /></g><g
           id="g148"
           transform="translate(2213.5039,1002.4439)"><path
             d="m 0,0 c 0,0 -52.074,0.267 -77.955,-37.255 -1.371,-0.399 58.785,-225.655 58.785,-225.655 l 65.429,107.684 z"
             style="fill:#4f4c4d;fill-opacity:1;fill-rule:nonzero;stroke:none"
             id="path150" /></g><g
           id="g152"
           transform="translate(2213.5039,1002.4439)"><path
             d="m 0,0 c 0,0 -52.074,0.267 -77.955,-37.255 -1.371,-0.399 58.785,-225.655 58.785,-225.655 l 65.429,107.684 z"
             style="fill:none;stroke:#231f20;stroke-width:3;stroke-linecap:butt;stroke-linejoin:miter;stroke-miterlimit:10;stroke-dasharray:none;stroke-opacity:1"
             id="path154" /></g><g
           id="g156"
           transform="translate(2098.0774,1277.9408)"><path
             d="m 0,0 c 0,0 -5.435,152.962 212.386,137.029 -2.063,-6.374 96.726,-3.187 160.46,-124.282 0,3.187 35.502,-132.989 -38.016,-160.503 -3.411,-8.393 -79.318,-96.17 -173.145,-117.741 -2.603,2.783 -154.822,-61.761 -161.697,27.81 C -1.619,-239.004 -13.398,-55.741 0,0"
             style="fill:#f9d999;fill-opacity:1;fill-rule:nonzero;stroke:none"
             id="path158" /></g><g
           id="g160"
           transform="translate(2098.0774,1277.9408)"><path
             d="m 0,0 c 0,0 -5.435,152.962 212.386,137.029 -2.063,-6.374 96.726,-3.187 160.46,-124.282 0,3.187 35.502,-132.989 -38.016,-160.503 -3.411,-8.393 -79.318,-96.17 -173.145,-117.741 -2.603,2.783 -154.822,-61.761 -161.697,27.81 C -1.619,-239.004 -13.398,-55.741 0,0 Z"
             style="fill:none;stroke:#231f20;stroke-width:3;stroke-linecap:butt;stroke-linejoin:miter;stroke-miterlimit:10;stroke-dasharray:none;stroke-opacity:1"
             id="path162" /></g><g
           id="g164"
           transform="translate(2254.1948,497.6084)"><path
             d="m 0,0 c 0,-8.228 -6.67,-14.897 -14.897,-14.897 -8.228,0 -14.898,6.669 -14.898,14.897 0,8.228 6.67,14.897 14.898,14.897 C -6.67,14.897 0,8.228 0,0"
             style="fill:#4e191a;fill-opacity:1;fill-rule:nonzero;stroke:none"
             id="path166" /></g><g
           id="g168"
           transform="translate(2254.1948,497.6084)"><path
             d="m 0,0 c 0,-8.228 -6.67,-14.897 -14.897,-14.897 -8.228,0 -14.898,6.669 -14.898,14.897 0,8.228 6.67,14.897 14.898,14.897 C -6.67,14.897 0,8.228 0,0 Z"
             style="fill:none;stroke:#111010;stroke-width:1;stroke-linecap:butt;stroke-linejoin:miter;stroke-miterlimit:10;stroke-dasharray:none;stroke-opacity:1"
             id="path170" /></g><g
           id="g172"><g
             id="g174" /><g
             id="g186"><g
               clip-path="url(#clipPath178)"
               opacity="0.639999"
               id="g184"><g
                 transform="translate(2293.469,1196.984)"
                 id="g182"><path
                   d="M 0,0 C 0,0 42.844,8.636 3.255,-10.275"
                   style="fill:#f68712;fill-opacity:1;fill-rule:nonzero;stroke:none"
                   id="path180" /></g></g></g></g><g
           id="g188"
           transform="translate(2247.3257,475.5527)"><path
             d="m 0,0 c 0,-8.228 -6.67,-14.897 -14.897,-14.897 -8.228,0 -14.898,6.669 -14.898,14.897 0,8.228 6.67,14.897 14.898,14.897 C -6.67,14.897 0,8.228 0,0"
             style="fill:#4e191a;fill-opacity:1;fill-rule:nonzero;stroke:none"
             id="path190" /></g><g
           id="g192"
           transform="translate(2247.3257,475.5527)"><path
             d="m 0,0 c 0,-8.228 -6.67,-14.897 -14.897,-14.897 -8.228,0 -14.898,6.669 -14.898,14.897 0,8.228 6.67,14.897 14.898,14.897 C -6.67,14.897 0,8.228 0,0 Z"
             style="fill:none;stroke:#111010;stroke-width:1;stroke-linecap:butt;stroke-linejoin:miter;stroke-miterlimit:10;stroke-dasharray:none;stroke-opacity:1"
             id="path194" /></g><g
           id="g196"
           transform="translate(2244.8655,449.8416)"><path
             d="m 0,0 c 0,-8.228 -6.67,-14.897 -14.897,-14.897 -8.228,0 -14.898,6.669 -14.898,14.897 0,8.228 6.67,14.897 14.898,14.897 C -6.67,14.897 0,8.228 0,0"
             style="fill:#4e191a;fill-opacity:1;fill-rule:nonzero;stroke:none"
             id="path198" /></g><g
           id="g200"
           transform="translate(2244.8655,449.8416)"><path
             d="m 0,0 c 0,-8.228 -6.67,-14.897 -14.897,-14.897 -8.228,0 -14.898,6.669 -14.898,14.897 0,8.228 6.67,14.897 14.898,14.897 C -6.67,14.897 0,8.228 0,0 Z"
             style="fill:none;stroke:#111010;stroke-width:1;stroke-linecap:butt;stroke-linejoin:miter;stroke-miterlimit:10;stroke-dasharray:none;stroke-opacity:1"
             id="path202" /></g><g
           id="g204"
           transform="translate(2236.676,1261.1207)"><path
             d="m 0,0 c 0,0 -25.505,-21.787 -13.629,-35.668 0.924,-0.353 1.667,-2.378 2.213,-4.565 0.719,-2.881 1.096,-6.043 1.096,-6.043 l 86.344,17.227 42.046,-6.191 -59.342,8.737 -70.69,-11.543 c 0,0 -16.484,12.916 11.962,38.046"
             style="fill:#231f20;fill-opacity:1;fill-rule:nonzero;stroke:none"
             id="path206" /></g><g
           id="g208"
           transform="translate(2236.676,1261.1207)"><path
             d="m 0,0 -2.066,-1.91 c -0.697,-0.629 -1.339,-1.314 -2.011,-1.968 -0.676,-0.651 -1.304,-1.348 -1.943,-2.033 -0.65,-0.677 -1.258,-1.39 -1.863,-2.107 -0.621,-0.702 -1.193,-1.444 -1.765,-2.186 -0.591,-0.728 -1.106,-1.511 -1.648,-2.275 -0.54,-0.765 -1.008,-1.577 -1.507,-2.368 -0.438,-0.826 -0.93,-1.624 -1.306,-2.481 -0.421,-0.836 -0.758,-1.707 -1.099,-2.576 -0.298,-0.884 -0.596,-1.768 -0.795,-2.679 -0.124,-0.45 -0.196,-0.91 -0.273,-1.369 -0.09,-0.457 -0.138,-0.92 -0.176,-1.383 -0.097,-0.925 -0.093,-1.857 -0.029,-2.782 0.063,-0.925 0.218,-1.842 0.449,-2.738 0.227,-0.899 0.559,-1.766 0.943,-2.606 0.399,-0.835 0.877,-1.63 1.423,-2.374 0.545,-0.738 1.169,-1.446 1.855,-2.019 l -0.19,0.049 70.667,11.679 0.058,0.01 0.059,-0.009 59.359,-8.626 -0.144,-0.978 -42.036,6.257 0.145,0.004 -86.375,-17.066 -0.277,-0.055 -0.036,0.282 c -0.236,1.861 -0.549,3.728 -0.969,5.553 -0.218,0.916 -0.455,1.823 -0.771,2.697 -0.159,0.436 -0.336,0.865 -0.556,1.261 -0.219,0.384 -0.496,0.773 -0.833,0.916 l -0.063,0.027 -0.029,0.037 c -0.532,0.712 -1.096,1.402 -1.504,2.198 -0.109,0.193 -0.226,0.383 -0.329,0.579 l -0.261,0.615 c -0.173,0.409 -0.363,0.813 -0.464,1.248 -0.279,0.846 -0.421,1.725 -0.529,2.605 l -0.068,1.328 0.064,1.325 c 0.093,0.878 0.212,1.756 0.43,2.611 0.087,0.432 0.206,0.856 0.342,1.276 0.131,0.42 0.246,0.846 0.413,1.253 0.292,0.831 0.645,1.636 1.008,2.436 0.388,0.788 0.773,1.578 1.215,2.336 1.719,3.063 3.836,5.878 6.106,8.542 C -5.093,-4.81 -2.635,-2.304 0,0 m 0,0 c -2.61,-2.332 -5.039,-4.863 -7.292,-7.537 -2.238,-2.684 -4.319,-5.515 -5.995,-8.579 -0.432,-0.758 -0.805,-1.547 -1.182,-2.333 -0.352,-0.797 -0.692,-1.599 -0.972,-2.423 -0.161,-0.405 -0.27,-0.827 -0.394,-1.243 -0.131,-0.416 -0.243,-0.835 -0.324,-1.262 -0.206,-0.844 -0.313,-1.707 -0.395,-2.568 l -0.049,-1.296 0.08,-1.293 c 0.115,-0.855 0.262,-1.707 0.541,-2.523 0.102,-0.42 0.291,-0.809 0.463,-1.203 l 0.258,-0.592 0.325,-0.557 c 0.401,-0.765 0.957,-1.428 1.479,-2.112 l -0.091,0.064 c 0.547,-0.24 0.823,-0.694 1.079,-1.108 0.243,-0.429 0.432,-0.875 0.602,-1.324 0.337,-0.9 0.587,-1.823 0.807,-2.746 0.435,-1.856 0.755,-3.722 1.001,-5.61 l -0.312,0.227 86.311,17.387 0.072,0.014 0.074,-0.01 42.056,-6.124 -0.144,-0.978 -59.326,8.848 0.117,0.001 -70.711,-11.407 -0.112,-0.018 -0.079,0.066 c -0.748,0.639 -1.362,1.36 -1.923,2.134 -0.556,0.774 -1.04,1.599 -1.441,2.462 -0.386,0.87 -0.717,1.765 -0.94,2.69 -0.228,0.922 -0.375,1.864 -0.43,2.811 -0.055,0.946 -0.048,1.898 0.06,2.838 0.044,0.472 0.098,0.942 0.195,1.405 0.083,0.466 0.161,0.932 0.292,1.387 0.212,0.921 0.523,1.814 0.834,2.704 0.353,0.874 0.704,1.749 1.137,2.586 0.388,0.86 0.892,1.658 1.342,2.484 0.51,0.79 0.99,1.601 1.539,2.363 0.553,0.761 1.078,1.541 1.679,2.264 0.581,0.738 1.163,1.476 1.793,2.173 0.614,0.711 1.231,1.419 1.889,2.089 0.647,0.68 1.283,1.37 1.967,2.014 0.679,0.647 1.329,1.326 2.033,1.947 z"
             style="fill:#231f20;fill-opacity:1;fill-rule:nonzero;stroke:none"
             id="path210" /></g><g
           id="g212"
           transform="translate(2215.9944,1203.1249)"><path
             d="M 0,0 C 0,0 13.365,5.051 16.69,3.78 14.513,6.063 74.622,-0.219 84.599,-12.012 83.511,-10.87 73.593,-28.846 71.174,-27.196"
             style="fill:#ffffff;fill-opacity:1;fill-rule:nonzero;stroke:none"
             id="path214" /></g><g
           id="g216"
           transform="translate(2215.9944,1203.1249)"><path
             d="m 0,0 c 2.677,1.064 5.4,2.014 8.166,2.837 1.386,0.399 2.778,0.791 4.204,1.065 0.353,0.083 0.716,0.123 1.075,0.186 0.357,0.065 0.724,0.093 1.09,0.121 0.364,0.045 0.737,0.038 1.113,0.021 0.37,0.021 0.761,-0.111 1.143,-0.186 L 16.486,3.585 c -0.052,0.063 -0.142,0.15 -0.133,0.345 0.026,0.196 0.143,0.271 0.209,0.32 0.137,0.082 0.238,0.104 0.344,0.135 0.206,0.051 0.397,0.074 0.589,0.096 0.382,0.04 0.758,0.055 1.133,0.065 0.749,0.017 1.494,0.003 2.238,-0.019 1.488,-0.048 2.97,-0.139 4.45,-0.249 2.961,-0.219 5.913,-0.519 8.857,-0.891 5.887,-0.733 11.751,-1.647 17.58,-2.764 2.916,-0.554 5.814,-1.204 8.7,-1.902 2.884,-0.705 5.754,-1.478 8.592,-2.367 2.835,-0.896 5.651,-1.88 8.366,-3.13 1.354,-0.629 2.685,-1.32 3.955,-2.126 1.263,-0.809 2.487,-1.725 3.477,-2.903 l -0.475,-0.427 c 0.101,-0.083 0.152,-0.026 0.073,-0.061 -0.062,-0.035 -0.135,-0.083 -0.209,-0.146 -0.147,-0.122 -0.294,-0.27 -0.436,-0.425 -0.285,-0.307 -0.556,-0.641 -0.822,-0.977 -0.533,-0.676 -1.044,-1.375 -1.552,-2.076 l -3.046,-4.223 c -1.026,-1.401 -2.065,-2.797 -3.179,-4.134 -0.56,-0.666 -1.134,-1.322 -1.773,-1.918 -0.32,-0.295 -0.653,-0.58 -1.024,-0.813 -0.354,-0.213 -0.835,-0.447 -1.226,-0.191 0.4,-0.236 0.854,0.015 1.195,0.24 0.354,0.245 0.671,0.54 0.975,0.847 0.602,0.62 1.154,1.288 1.688,1.968 1.064,1.366 2.053,2.791 3.031,4.222 l 2.923,4.31 c 0.496,0.715 0.996,1.427 1.524,2.126 0.265,0.349 0.534,0.696 0.833,1.031 0.148,0.168 0.303,0.333 0.486,0.492 0.09,0.079 0.195,0.157 0.322,0.229 0.078,0.034 0.148,0.072 0.273,0.085 0.117,0.018 0.296,-0.031 0.406,-0.145 l -0.475,-0.427 c -0.941,1.077 -2.133,1.939 -3.374,2.698 -1.247,0.757 -2.564,1.407 -3.907,1.998 -2.69,1.18 -5.474,2.159 -8.293,3.022 -5.644,1.723 -11.42,3.009 -17.217,4.154 C 45.766,0.805 39.926,1.756 34.063,2.525 31.13,2.9 28.195,3.255 25.254,3.538 23.783,3.677 22.311,3.797 20.839,3.874 20.104,3.91 19.368,3.938 18.636,3.936 18.271,3.935 17.906,3.927 17.552,3.896 17.375,3.881 17.198,3.861 17.043,3.826 16.971,3.808 16.891,3.782 16.869,3.769 c -0.006,-0.005 0.027,0.006 0.049,0.106 -0.004,0.099 -0.028,0.107 -0.023,0.1 l 0.439,-0.593 -0.745,0.134 c -0.323,0.058 -0.621,0.185 -0.978,0.172 -0.344,0.022 -0.69,0.037 -1.044,0 C 14.215,3.669 13.863,3.649 13.51,3.592 13.158,3.542 12.803,3.516 12.452,3.444 11.041,3.222 9.644,2.877 8.252,2.526 5.473,1.794 2.724,0.932 0,0"
             style="fill:#231f20;fill-opacity:1;fill-rule:nonzero;stroke:none"
             id="path218" /></g><g
           id="g220"
           transform="translate(2283.9397,1177.1447)"><path
             d="m 0,0 -62.21,20.245 -2.7,4.557"
             style="fill:#ffffff;fill-opacity:1;fill-rule:nonzero;stroke:none"
             id="path222" /></g><g
           id="g224"
           transform="translate(2283.9397,1177.1447)"><path
             d="m 0,0 c -2.624,0.745 -5.231,1.542 -7.846,2.315 l -7.819,2.402 c -5.217,1.585 -10.392,3.3 -15.59,4.944 -2.6,0.818 -5.184,1.689 -7.772,2.543 l -7.764,2.571 -7.741,2.636 c -2.581,0.878 -5.158,1.768 -7.726,2.687 l -0.059,0.021 -0.026,0.048 -2.567,4.635 2.833,-4.478 -0.085,0.069 c 2.617,-0.769 5.224,-1.566 7.827,-2.375 l 7.811,-2.425 7.789,-2.491 c 2.596,-0.833 5.196,-1.649 7.78,-2.517 5.171,-1.731 10.364,-3.39 15.515,-5.179 l 7.734,-2.66 C -5.137,1.832 -2.56,0.942 0,0"
             style="fill:#111110;fill-opacity:1;fill-rule:nonzero;stroke:none"
             id="path226" /></g><g
           id="g228"
           transform="translate(2226.9094,1201.2814)"><path
             d="M 0,0 C -1.13,-2.957 -0.349,-5.675 1.745,-6.07 3.842,-6.467 6.46,-4.387 7.592,-1.425 8.724,1.537 7.939,4.255 5.84,4.647 3.744,5.037 1.13,2.957 0,0"
             style="fill:#101010;fill-opacity:1;fill-rule:nonzero;stroke:none"
             id="path230" /></g><g
           id="g232"><g
             id="g234" /><g
             id="g246"><g
               clip-path="url(#clipPath238)"
               opacity="0.710007"
               id="g244"><g
                 transform="translate(2136.4695,1263.4908)"
                 id="g242"><path
                   d="M 0,0 C 0,0 -17.521,47.911 -8.902,-2.364"
                   style="fill:#f68712;fill-opacity:1;fill-rule:nonzero;stroke:none"
                   id="path240" /></g></g></g></g><g
           id="g248"
           transform="translate(2198.2532,1253.3267)"><path
             d="m 0,0 c 0,0 2.394,-23.305 -11.07,-21.005 -0.675,0.438 -2.111,0.171 -3.526,-0.275 -1.864,-0.587 -3.691,-1.482 -3.691,-1.482 l -37.163,58.775 -25.592,23.433 36.119,-33.072 31.742,-47.208 c 0,0 15.424,-5.454 13.181,20.834"
             style="fill:#231f20;fill-opacity:1;fill-rule:nonzero;stroke:none"
             id="path250" /></g><g
           id="g252"
           transform="translate(2198.2532,1253.3265)"><path
             d="M 0,0 0.138,-1.86 C 0.196,-2.479 0.196,-3.102 0.224,-3.723 0.256,-4.344 0.257,-4.966 0.247,-5.588 0.249,-6.211 0.237,-6.833 0.192,-7.454 0.166,-8.076 0.123,-8.697 0.045,-9.316 c -0.054,-0.621 -0.149,-1.236 -0.258,-1.851 -0.084,-0.618 -0.256,-1.22 -0.389,-1.83 -0.18,-0.597 -0.33,-1.206 -0.571,-1.785 -0.209,-0.59 -0.484,-1.154 -0.765,-1.715 -0.311,-0.545 -0.639,-1.082 -1.03,-1.578 -0.386,-0.497 -0.825,-0.953 -1.302,-1.368 -0.486,-0.404 -1.009,-0.767 -1.574,-1.054 -1.127,-0.582 -2.382,-0.905 -3.645,-0.974 -1.267,-0.069 -2.53,0.061 -3.763,0.436 l -0.063,0.02 -0.042,0.062 -31.878,47.117 0.058,-0.068 -36.2,32.983 0.671,0.733 25.539,-23.49 0.042,-0.038 0.029,-0.047 37.02,-58.866 -0.32,0.09 c 1.161,0.543 2.339,1.024 3.561,1.415 0.61,0.194 1.231,0.362 1.873,0.466 0.321,0.051 0.648,0.085 0.984,0.076 0.332,-0.009 0.688,-0.057 1.014,-0.259 l -0.073,0.029 c 0.561,-0.054 1.121,-0.179 1.686,-0.152 0.566,-0.032 1.124,0.051 1.681,0.128 l 0.816,0.211 c 0.267,0.087 0.521,0.208 0.783,0.311 0.505,0.244 0.992,0.534 1.426,0.895 0.437,0.352 0.846,0.752 1.194,1.199 0.186,0.215 0.357,0.441 0.507,0.683 0.158,0.236 0.323,0.468 0.452,0.723 0.29,0.491 0.525,1.012 0.757,1.533 0.211,0.532 0.414,1.067 0.578,1.616 0.677,2.191 1.012,4.48 1.178,6.77 C 0.181,-4.602 0.18,-2.294 0,0 m 0,0 c 0.212,-2.292 0.246,-4.601 0.118,-6.901 -0.134,-2.298 -0.437,-4.6 -1.088,-6.821 -0.158,-0.556 -0.356,-1.1 -0.561,-1.642 -0.228,-0.532 -0.459,-1.065 -0.748,-1.57 -0.128,-0.261 -0.294,-0.501 -0.452,-0.746 -0.151,-0.25 -0.323,-0.484 -0.511,-0.708 -0.352,-0.465 -0.768,-0.885 -1.218,-1.258 -0.446,-0.381 -0.95,-0.692 -1.475,-0.955 -0.272,-0.112 -0.538,-0.242 -0.815,-0.337 l -0.852,-0.233 c -0.58,-0.089 -1.164,-0.184 -1.752,-0.159 -0.589,-0.035 -1.166,0.083 -1.749,0.133 l -0.028,0.002 -0.046,0.027 c -0.456,0.264 -1.125,0.193 -1.717,0.098 -0.607,-0.107 -1.21,-0.278 -1.804,-0.477 -1.187,-0.398 -2.353,-0.893 -3.479,-1.439 l -0.201,-0.097 -0.119,0.188 -37.307,58.684 0.071,-0.085 -25.644,23.375 0.671,0.733 36.037,-33.16 0.034,-0.032 0.025,-0.036 31.605,-47.3 -0.105,0.082 c 1.141,-0.366 2.388,-0.518 3.601,-0.466 1.22,0.049 2.428,0.343 3.52,0.886 0.548,0.269 1.056,0.611 1.532,0.995 0.466,0.395 0.898,0.831 1.282,1.309 0.387,0.477 0.715,0.997 1.028,1.528 0.283,0.547 0.561,1.097 0.776,1.677 0.246,0.566 0.402,1.168 0.59,1.756 0.139,0.603 0.32,1.197 0.411,1.811 0.117,0.609 0.221,1.22 0.283,1.838 0.086,0.614 0.138,1.232 0.173,1.852 0.053,0.619 0.075,1.24 0.081,1.861 0.019,0.621 0.027,1.242 0.004,1.863 -0.019,0.621 -0.01,1.243 -0.059,1.863 z"
             style="fill:#231f20;fill-opacity:1;fill-rule:nonzero;stroke:none"
             id="path254" /></g><g
           id="g256"
           transform="translate(2179.4646,1220.0753)"><path
             d="m 0,0 c 0,0 -4.527,9.946 -6.952,11.521 2.333,-0.514 -32.931,33.899 -44.31,35.784 1.166,-0.257 -2.788,-12.702 -0.651,-13.589"
             style="fill:#ffffff;fill-opacity:1;fill-rule:nonzero;stroke:none"
             id="path258" /></g><g
           id="g260"
           transform="translate(2179.4646,1220.0753)"><path
             d="m 0,0 c -1.01,2.018 -2.062,4.016 -3.185,5.967 -0.57,0.97 -1.151,1.934 -1.786,2.857 -0.324,0.455 -0.643,0.914 -0.996,1.338 -0.167,0.224 -0.359,0.414 -0.546,0.611 -0.178,0.215 -0.398,0.338 -0.594,0.511 l 0.216,0.514 c 0.003,-0.018 -0.043,0.07 -0.209,-0.121 -0.056,-0.154 -0.012,-0.12 -0.03,-0.118 -0.011,0.028 -0.042,0.088 -0.078,0.142 -0.072,0.111 -0.158,0.227 -0.247,0.341 -0.18,0.229 -0.373,0.453 -0.569,0.676 -0.393,0.445 -0.802,0.881 -1.215,1.313 -0.828,0.863 -1.676,1.71 -2.532,2.549 -1.719,1.672 -3.458,3.324 -5.205,4.967 -3.506,3.276 -7.088,6.47 -10.749,9.569 -3.64,3.121 -7.351,6.165 -11.214,8.993 -1.935,1.408 -3.906,2.766 -5.937,4.016 -1.018,0.62 -2.056,1.207 -3.125,1.72 -1.068,0.506 -2.172,0.962 -3.309,1.174 l 0.11,0.57 c 0.087,-0.031 0.179,-0.087 0.247,-0.15 0.039,-0.055 0.068,-0.111 0.097,-0.17 0.054,-0.116 0.051,-0.19 0.075,-0.287 0.016,-0.168 0.022,-0.33 0.014,-0.482 -0.009,-0.309 -0.046,-0.602 -0.082,-0.897 -0.08,-0.587 -0.18,-1.163 -0.293,-1.737 l -0.693,-3.428 c -0.222,-1.141 -0.433,-2.286 -0.563,-3.439 -0.061,-0.576 -0.113,-1.155 -0.097,-1.734 0.016,-0.288 0.032,-0.579 0.111,-0.857 0.072,-0.27 0.195,-0.568 0.471,-0.692 -0.284,0.108 -0.43,0.407 -0.518,0.678 -0.097,0.279 -0.13,0.573 -0.163,0.865 -0.051,0.586 -0.031,1.173 0.009,1.757 0.082,1.168 0.245,2.326 0.42,3.48 l 0.546,3.453 c 0.085,0.574 0.178,1.147 0.239,1.718 0.027,0.284 0.055,0.57 0.055,0.844 0.005,0.139 -0.006,0.268 -0.019,0.391 0,0.103 -0.112,0.211 0.019,0.12 l 0.11,0.57 c 1.236,-0.2 2.385,-0.645 3.497,-1.136 1.111,-0.499 2.182,-1.069 3.232,-1.671 2.103,-1.202 4.104,-2.558 6.063,-3.963 3.914,-2.818 7.671,-5.837 11.345,-8.948 3.648,-3.141 7.213,-6.375 10.702,-9.69 1.748,-1.654 3.465,-3.341 5.138,-5.074 0.838,-0.865 1.668,-1.737 2.481,-2.629 0.405,-0.447 0.807,-0.898 1.198,-1.364 0.195,-0.233 0.387,-0.469 0.573,-0.717 0.092,-0.125 0.183,-0.253 0.27,-0.396 0.044,-0.073 0.086,-0.145 0.127,-0.258 0.006,-0.067 0.076,-0.111 -0.009,-0.337 -0.028,-0.052 -0.085,-0.108 -0.141,-0.138 -0.043,-0.021 -0.082,-0.029 -0.125,-0.036 -0.078,-0.007 -0.098,0.004 -0.149,0.01 l 0.215,0.514 c 0.227,-0.2 0.496,-0.378 0.674,-0.605 0.197,-0.217 0.399,-0.431 0.565,-0.665 0.36,-0.451 0.67,-0.93 0.978,-1.409 0.605,-0.964 1.148,-1.958 1.68,-2.956 C -1.853,4.119 -0.884,2.078 0,0"
             style="fill:#231f20;fill-opacity:1;fill-rule:nonzero;stroke:none"
             id="path262" /></g><g
           id="g264"
           transform="translate(2135.199,1253.9636)"><path
             d="M 0,0 C -0.918,-1.741 -2.731,-2.233 -4.051,-1.096 -5.372,0.041 -5.698,2.378 -4.779,4.122 -3.86,5.866 -2.044,6.355 -0.724,5.215 0.594,4.076 0.918,1.741 0,0"
             style="fill:#101010;fill-opacity:1;fill-rule:nonzero;stroke:none"
             id="path266" /></g><g
           id="g268"
           transform="translate(2131.2341,1251.1593)"><path
             d="m 0,0 43.562,-30.724 3.782,-0.024"
             style="fill:#ffffff;fill-opacity:1;fill-rule:nonzero;stroke:none"
             id="path270" /></g><g
           id="g272"
           transform="translate(2131.2341,1251.1592)"><path
             d="m 0,0 c 3.74,-2.405 7.428,-4.883 11.101,-7.383 3.69,-2.475 7.305,-5.057 10.961,-7.581 1.831,-1.258 3.625,-2.567 5.435,-3.854 l 5.421,-3.875 c 1.804,-1.297 3.585,-2.626 5.378,-3.937 1.796,-1.307 3.576,-2.637 5.347,-3.98 l -0.08,0.025 c 1.26,-0.044 2.52,-0.097 3.781,-0.163 -1.261,-0.05 -2.522,-0.088 -3.782,-0.115 l -0.04,-0.001 -0.04,0.026 c -1.86,1.217 -3.71,2.447 -5.544,3.701 -1.837,1.249 -3.687,2.48 -5.513,3.745 l -5.469,3.805 c -1.821,1.274 -3.656,2.524 -5.456,3.827 -3.604,2.597 -7.25,5.135 -10.82,7.781 C 7.093,-5.358 3.521,-2.715 0,0"
             style="fill:#111110;fill-opacity:1;fill-rule:nonzero;stroke:none"
             id="path274" /></g><g
           id="g276"
           transform="translate(2174.3567,1309.8903)"><path
             d="M 0,0 C 0,0 51.878,-56.146 107.336,-43.513"
             style="fill:#f9d999;fill-opacity:1;fill-rule:nonzero;stroke:#231f20;stroke-width:1;stroke-linecap:butt;stroke-linejoin:miter;stroke-miterlimit:10;stroke-dasharray:none;stroke-opacity:1"
             id="path278" /></g><g
           id="g280"
           transform="translate(2250.3962,426.7771)"><path
             d="m 0,0 c 0,-8.228 -6.67,-14.897 -14.897,-14.897 -8.228,0 -14.898,6.669 -14.898,14.897 0,8.228 6.67,14.897 14.898,14.897 C -6.67,14.897 0,8.228 0,0"
             style="fill:#4e191a;fill-opacity:1;fill-rule:nonzero;stroke:none"
             id="path282" /></g><g
           id="g284"
           transform="translate(2250.3962,426.7771)"><path
             d="m 0,0 c 0,-8.228 -6.67,-14.897 -14.897,-14.897 -8.228,0 -14.898,6.669 -14.898,14.897 0,8.228 6.67,14.897 14.898,14.897 C -6.67,14.897 0,8.228 0,0 Z"
             style="fill:none;stroke:#111010;stroke-width:1;stroke-linecap:butt;stroke-linejoin:miter;stroke-miterlimit:10;stroke-dasharray:none;stroke-opacity:1"
             id="path286" /></g><g
           id="g288"
           transform="translate(2182.1367,1321.2222)"><path
             d="M 0,0 C 0,0 51.878,-56.146 107.336,-43.513"
             style="fill:#f9d999;fill-opacity:1;fill-rule:nonzero;stroke:#231f20;stroke-width:1;stroke-linecap:butt;stroke-linejoin:miter;stroke-miterlimit:10;stroke-dasharray:none;stroke-opacity:1"
             id="path290" /></g><g
           id="g292"
           transform="translate(2189.3052,1332.5725)"><path
             d="M 0,0 C 0,0 51.878,-56.146 107.336,-43.513"
             style="fill:#f9d999;fill-opacity:1;fill-rule:nonzero;stroke:#231f20;stroke-width:1;stroke-linecap:butt;stroke-linejoin:miter;stroke-miterlimit:10;stroke-dasharray:none;stroke-opacity:1"
             id="path294" /></g><g
           id="g296"
           transform="translate(2274.6602,439.6676)"><path
             d="m 0,0 c 0,-8.228 -6.67,-14.897 -14.897,-14.897 -8.228,0 -14.898,6.669 -14.898,14.897 0,8.228 6.67,14.897 14.898,14.897 C -6.67,14.897 0,8.228 0,0"
             style="fill:#4e191a;fill-opacity:1;fill-rule:nonzero;stroke:none"
             id="path298" /></g><g
           id="g300"
           transform="translate(2274.6602,439.6676)"><path
             d="m 0,0 c 0,-8.228 -6.67,-14.897 -14.897,-14.897 -8.228,0 -14.898,6.669 -14.898,14.897 0,8.228 6.67,14.897 14.898,14.897 C -6.67,14.897 0,8.228 0,0 Z"
             style="fill:none;stroke:#111010;stroke-width:1;stroke-linecap:butt;stroke-linejoin:miter;stroke-miterlimit:10;stroke-dasharray:none;stroke-opacity:1"
             id="path302" /></g><g
           id="g304"
           transform="translate(2169.481,1186.7095)"><path
             d="M 0,0 C 0,0 -68.314,-42.098 -23.97,-56.525"
             style="fill:#f9d999;fill-opacity:1;fill-rule:nonzero;stroke:#231f20;stroke-width:3;stroke-linecap:butt;stroke-linejoin:miter;stroke-miterlimit:10;stroke-dasharray:none;stroke-opacity:1"
             id="path306" /></g><g
           id="g308"
           transform="translate(2139.9946,1045.8535)"><path
             d="m 0,0 c 0,0 -20.856,-8.625 -22.054,8.153 1.198,-1.198 -2.667,36.987 6.456,50.254 0.734,-2.314 15.01,12.068 19.258,-7.108 C 4.312,50.101 6.474,29 0,0"
             style="fill:#bf1b2c;fill-opacity:1;fill-rule:nonzero;stroke:none"
             id="path310" /></g><g
           id="g312"
           transform="translate(2139.9946,1045.8535)"><path
             d="m 0,0 c 0,0 -20.856,-8.625 -22.054,8.153 1.198,-1.198 -2.667,36.987 6.456,50.254 0.734,-2.314 15.01,12.068 19.258,-7.108 C 4.312,50.101 6.474,29 0,0 Z"
             style="fill:none;stroke:#231f20;stroke-width:3;stroke-linecap:butt;stroke-linejoin:miter;stroke-miterlimit:10;stroke-dasharray:none;stroke-opacity:1"
             id="path314" /></g><g
           id="g316"
           transform="translate(1722.5933,1131.5505)"><path
             d="m 0,0 c 0,0 42.036,27.819 42.036,-1.366 0,-29.184 -5.043,-117.741 -5.043,-117.741 l -15.975,16.53 v 33.342 L 5.566,-83.412 7.364,-56.801 C 7.364,-56.801 -6.73,-27.54 0,0"
             style="fill:#272628;fill-opacity:1;fill-rule:nonzero;stroke:none"
             id="path318" /></g><g
           id="g320"
           transform="translate(2164.687,1119.386)"><path
             d="M 0,0 C 0,0 43.069,-44.164 23.332,-90.412"
             style="fill:none;stroke:#231f20;stroke-width:1;stroke-linecap:butt;stroke-linejoin:miter;stroke-miterlimit:10;stroke-dasharray:none;stroke-opacity:1"
             id="path322" /></g><g
           id="g324"
           transform="translate(2132.8093,1137.9536)"><path
             d="M 0,0 C 0,0 -31.643,-15.005 -29.246,-50.959"
             style="fill:#f9d999;fill-opacity:1;fill-rule:nonzero;stroke:#231f20;stroke-width:1;stroke-linecap:butt;stroke-linejoin:miter;stroke-miterlimit:10;stroke-dasharray:none;stroke-opacity:1"
             id="path326" /></g><g
           id="g328"
           transform="translate(2345.2087,632.0853)"><path
             d="m 0,0 c 0,-8.228 -6.67,-14.897 -14.897,-14.897 -8.228,0 -14.898,6.669 -14.898,14.897 0,8.228 6.67,14.897 14.898,14.897 C -6.67,14.897 0,8.228 0,0"
             style="fill:#4e191a;fill-opacity:1;fill-rule:nonzero;stroke:none"
             id="path330" /></g><g
           id="g332"
           transform="translate(2345.2087,632.0853)"><path
             d="m 0,0 c 0,-8.228 -6.67,-14.897 -14.897,-14.897 -8.228,0 -14.898,6.669 -14.898,14.897 0,8.228 6.67,14.897 14.898,14.897 C -6.67,14.897 0,8.228 0,0 Z"
             style="fill:none;stroke:#111010;stroke-width:1;stroke-linecap:butt;stroke-linejoin:miter;stroke-miterlimit:10;stroke-dasharray:none;stroke-opacity:1"
             id="path334" /></g><g
           id="g336"
           transform="translate(2340.2578,602.2906)"><path
             d="m 0,0 c 0,-8.228 -6.67,-14.897 -14.897,-14.897 -8.228,0 -14.898,6.669 -14.898,14.897 0,8.228 6.67,14.897 14.898,14.897 C -6.67,14.897 0,8.228 0,0"
             style="fill:#4e191a;fill-opacity:1;fill-rule:nonzero;stroke:none"
             id="path338" /></g><g
           id="g340"
           transform="translate(2340.2578,602.2906)"><path
             d="m 0,0 c 0,-8.228 -6.67,-14.897 -14.897,-14.897 -8.228,0 -14.898,6.669 -14.898,14.897 0,8.228 6.67,14.897 14.898,14.897 C -6.67,14.897 0,8.228 0,0 Z"
             style="fill:none;stroke:#111010;stroke-width:1;stroke-linecap:butt;stroke-linejoin:miter;stroke-miterlimit:10;stroke-dasharray:none;stroke-opacity:1"
             id="path342" /></g><g
           id="g344"
           transform="translate(2334.1819,572.496)"><path
             d="m 0,0 c 0,-8.228 -6.67,-14.897 -14.897,-14.897 -8.228,0 -14.898,6.669 -14.898,14.897 0,8.228 6.67,14.897 14.898,14.897 C -6.67,14.897 0,8.228 0,0"
             style="fill:#4e191a;fill-opacity:1;fill-rule:nonzero;stroke:none"
             id="path346" /></g><g
           id="g348"
           transform="translate(2334.1819,572.496)"><path
             d="m 0,0 c 0,-8.228 -6.67,-14.897 -14.897,-14.897 -8.228,0 -14.898,6.669 -14.898,14.897 0,8.228 6.67,14.897 14.898,14.897 C -6.67,14.897 0,8.228 0,0 Z"
             style="fill:none;stroke:#111010;stroke-width:1;stroke-linecap:butt;stroke-linejoin:miter;stroke-miterlimit:10;stroke-dasharray:none;stroke-opacity:1"
             id="path350" /></g><g
           id="g352"
           transform="translate(2325.3496,542.7013)"><path
             d="m 0,0 c 0,-8.228 -6.67,-14.897 -14.897,-14.897 -8.228,0 -14.898,6.669 -14.898,14.897 0,8.228 6.67,14.897 14.898,14.897 C -6.67,14.897 0,8.228 0,0"
             style="fill:#4e191a;fill-opacity:1;fill-rule:nonzero;stroke:none"
             id="path354" /></g><g
           id="g356"
           transform="translate(2325.3496,542.7013)"><path
             d="m 0,0 c 0,-8.228 -6.67,-14.897 -14.897,-14.897 -8.228,0 -14.898,6.669 -14.898,14.897 0,8.228 6.67,14.897 14.898,14.897 C -6.67,14.897 0,8.228 0,0 Z"
             style="fill:none;stroke:#111010;stroke-width:1;stroke-linecap:butt;stroke-linejoin:miter;stroke-miterlimit:10;stroke-dasharray:none;stroke-opacity:1"
             id="path358" /></g><g
           id="g360"
           transform="translate(2315.4141,512.5057)"><path
             d="m 0,0 c 0,-8.228 -6.67,-14.897 -14.897,-14.897 -8.228,0 -14.898,6.669 -14.898,14.897 0,8.228 6.67,14.897 14.898,14.897 C -6.67,14.897 0,8.228 0,0"
             style="fill:#4e191a;fill-opacity:1;fill-rule:nonzero;stroke:none"
             id="path362" /></g><g
           id="g364"
           transform="translate(2315.4141,512.5057)"><path
             d="m 0,0 c 0,-8.228 -6.67,-14.897 -14.897,-14.897 -8.228,0 -14.898,6.669 -14.898,14.897 0,8.228 6.67,14.897 14.898,14.897 C -6.67,14.897 0,8.228 0,0 Z"
             style="fill:none;stroke:#111010;stroke-width:1;stroke-linecap:butt;stroke-linejoin:miter;stroke-miterlimit:10;stroke-dasharray:none;stroke-opacity:1"
             id="path366" /></g><g
           id="g368"
           transform="translate(2304.4548,487.2961)"><path
             d="m 0,0 c 0,-8.228 -6.67,-14.897 -14.897,-14.897 -8.228,0 -14.898,6.669 -14.898,14.897 0,8.228 6.67,14.897 14.898,14.897 C -6.67,14.897 0,8.228 0,0"
             style="fill:#4e191a;fill-opacity:1;fill-rule:nonzero;stroke:none"
             id="path370" /></g><g
           id="g372"
           transform="translate(2304.4548,487.2961)"><path
             d="m 0,0 c 0,-8.228 -6.67,-14.897 -14.897,-14.897 -8.228,0 -14.898,6.669 -14.898,14.897 0,8.228 6.67,14.897 14.898,14.897 C -6.67,14.897 0,8.228 0,0 Z"
             style="fill:none;stroke:#111010;stroke-width:1;stroke-linecap:butt;stroke-linejoin:miter;stroke-miterlimit:10;stroke-dasharray:none;stroke-opacity:1"
             id="path374" /></g><g
           id="g376"
           transform="translate(2291.9553,459.2932)"><path
             d="m 0,0 c -0.752,-8.193 -8.004,-14.225 -16.197,-13.473 -8.193,0.752 -14.225,8.004 -13.473,16.197 0.752,8.193 8.004,14.225 16.197,13.473 C -5.28,15.445 0.752,8.193 0,0"
             style="fill:#4e191a;fill-opacity:1;fill-rule:nonzero;stroke:none"
             id="path378" /></g><g
           id="g380"
           transform="translate(2291.9553,459.2932)"><path
             d="m 0,0 c -0.752,-8.193 -8.004,-14.225 -16.197,-13.473 -8.193,0.752 -14.225,8.004 -13.473,16.197 0.752,8.193 8.004,14.225 16.197,13.473 C -5.28,15.445 0.752,8.193 0,0 Z"
             style="fill:none;stroke:#111010;stroke-width:1;stroke-linecap:butt;stroke-linejoin:miter;stroke-miterlimit:10;stroke-dasharray:none;stroke-opacity:1"
             id="path382" /></g><g
           id="g384"
           transform="translate(1523.6185,1240.4169)"><path
             d="m 0,0 c 0,0 -61.594,-42.452 -20.271,-123.426 -3.899,7.862 33.525,-36.163 14.034,-68.395 0,-3.931 -19.492,-48.741 0,-76.256 0.779,-1.573 22.61,-30.66 54.576,-30.66 1.56,0 67.052,-4.717 98.239,51.099 0,0 32.746,36.95 46,77.043 -0.78,0 25.729,81.76 13.254,110.061 0,-0.786 -22.358,54.245 -63.027,57.389 C 141.12,0 46.78,26.729 0,0"
             style="fill:#f9d999;fill-opacity:1;fill-rule:nonzero;stroke:none"
             id="path386" /></g><g
           id="g388"
           transform="translate(1523.6185,1240.4169)"><path
             d="m 0,0 c 0,0 -61.594,-42.452 -20.271,-123.426 -3.899,7.862 33.525,-36.163 14.034,-68.395 0,-3.931 -19.492,-48.741 0,-76.256 0.779,-1.573 22.61,-30.66 54.576,-30.66 1.56,0 67.052,-4.717 98.239,51.099 0,0 32.746,36.95 46,77.043 -0.78,0 25.729,81.76 13.254,110.061 0,-0.786 -22.358,54.245 -63.027,57.389 C 141.12,0 46.78,26.729 0,0 Z"
             style="fill:none;stroke:#131210;stroke-width:4;stroke-linecap:butt;stroke-linejoin:miter;stroke-miterlimit:10;stroke-dasharray:none;stroke-opacity:1"
             id="path390" /></g><g
           id="g392"
           transform="translate(1493.9592,1211.7637)"><path
             d="m 0,0 c 0,0 -1.606,26.317 16.679,29.974 2.925,0 100.2,62.899 153.592,60.705 -4.389,0 60.015,8.045 68.771,-48.272 3.636,1.463 29.214,-55.917 14.607,-70.213 -2.194,-2.926 -10.239,-23.405 -18.285,-24.868 C 235.932,-61.123 0,0 0,0"
             style="fill:#272628;fill-opacity:1;fill-rule:nonzero;stroke:none"
             id="path394" /></g><g
           id="g396"
           transform="translate(1705.611,1109.7472)"><path
             d="m 0,0 c 0,0 19.781,20.542 28.911,0 2.282,-3.804 -9.13,-28.15 -4.565,-34.998 -0.761,1.522 14.133,-31.954 -10.432,-29.671 -0.98,0 -16.196,0 -17.718,10.651"
             style="fill:#f9d999;fill-opacity:1;fill-rule:nonzero;stroke:#131210;stroke-width:4;stroke-linecap:butt;stroke-linejoin:miter;stroke-miterlimit:10;stroke-dasharray:none;stroke-opacity:1"
             id="path398" /></g><g
           id="g400"
           transform="translate(1569.9388,1093.3973)"><path
             d="M 0,0 C 0,0 -25.067,39.38 -51.178,38.124 V 19.077 c 0,0 15.144,19.838 51.178,-19.077"
             style="fill:#272628;fill-opacity:1;fill-rule:nonzero;stroke:none"
             id="path402" /></g><g
           id="g404"
           transform="translate(1579.724,1093.6311)"><path
             d="M 0,0 C 0,0 32.063,38.898 65.463,37.656 V 18.843 C 65.463,18.843 46.091,38.438 0,0"
             style="fill:#272628;fill-opacity:1;fill-rule:nonzero;stroke:none"
             id="path406" /></g><g
           id="g408"
           transform="translate(1489.1173,1207.8665)"><path
             d="m 0,0 c 0,0 -20.237,-12.385 -11.22,-63.382 0,0 232.697,10.628 256.282,-20.565 0,-0.761 -8.369,-143.034 22.825,-142.273 -4.565,-1.522 33.666,-2.282 33.666,-2.282 0,0 -48.883,114.122 -48.122,169.662 -1.521,-1.522 -4.784,13.527 -17.499,-2.283 0.761,1.522 23.718,23.586 3.11,19.021 C 237.454,-41.342 18.941,27.647 0,0"
             style="fill:#eeeded;fill-opacity:1;fill-rule:nonzero;stroke:none"
             id="path410" /></g><g
           id="g412"
           transform="translate(1489.1173,1207.8665)"><path
             d="m 0,0 c 0,0 -20.237,-12.385 -11.22,-63.382 0,0 232.697,10.628 256.282,-20.565 0,-0.761 -8.369,-143.034 22.825,-142.273 -4.565,-1.522 33.666,-2.282 33.666,-2.282 0,0 -48.883,114.122 -48.122,169.662 -1.521,-1.522 -4.784,13.527 -17.499,-2.283 0.761,1.522 23.718,23.586 3.11,19.021 C 237.454,-41.342 18.941,27.647 0,0 Z"
             style="fill:none;stroke:#231f20;stroke-width:1;stroke-linecap:butt;stroke-linejoin:miter;stroke-miterlimit:10;stroke-dasharray:none;stroke-opacity:1"
             id="path414" /></g><g
           id="g416"
           transform="translate(1550.052,1081.257)"><path
             d="m 0,0 c 0,-10.461 -2.553,-18.941 -5.702,-18.941 -3.15,0 -5.703,8.48 -5.703,18.941 0,10.461 2.553,18.941 5.703,18.941 C -2.553,18.941 0,10.461 0,0 Z"
             style="fill:none;stroke:#231f20;stroke-width:8;stroke-linecap:butt;stroke-linejoin:miter;stroke-miterlimit:10;stroke-dasharray:none;stroke-opacity:1"
             id="path418" /></g><g
           id="g420"
           transform="translate(1604.077,1075.4584)"><path
             d="m 0,0 c 0,-10.461 -2.553,-18.941 -5.702,-18.941 -3.15,0 -5.703,8.48 -5.703,18.941 0,10.461 2.553,18.941 5.703,18.941 C -2.553,18.941 0,10.461 0,0 Z"
             style="fill:none;stroke:#231f20;stroke-width:8;stroke-linecap:butt;stroke-linejoin:miter;stroke-miterlimit:10;stroke-dasharray:none;stroke-opacity:1"
             id="path422" /></g><g
           id="g424"
           transform="translate(1568.7917,1089.5634)"><path
             d="M 0,0 C 0,0 -25.81,-39.628 -10.444,-47.547"
             style="fill:#f9d999;fill-opacity:1;fill-rule:nonzero;stroke:#131210;stroke-width:4;stroke-linecap:butt;stroke-linejoin:miter;stroke-miterlimit:10;stroke-dasharray:none;stroke-opacity:1"
             id="path426" /></g><g
           id="g428"
           transform="translate(1529.5841,1024.0315)"><path
             d="M 0,0 C 0,0 33.537,15.462 63.088,-11.61"
             style="fill:#f9d999;fill-opacity:1;fill-rule:nonzero;stroke:#131210;stroke-width:4;stroke-linecap:butt;stroke-linejoin:miter;stroke-miterlimit:10;stroke-dasharray:none;stroke-opacity:1"
             id="path430" /></g></g></g><text
       transform="matrix(0.28904022,0,0,-1,1507.3281,1075.4883)"
       style="font-variant:normal;font-weight:normal;font-stretch:normal;font-size:179px;font-family:'Kozuka Gothic Pr6N R';-inkscape-font-specification:KozGoPr6N-Regular;writing-mode:lr-tb;fill:#231f20;fill-opacity:1;fill-rule:nonzero;stroke:none"
       id="text434"><tspan
         x="0"
         y="0"
         id="tspan432">*</tspan></text><g
       id="g436"><g
         id="g438"
         clip-path="url(#clipPath442)"><g
           id="g444"
           transform="translate(2394.1016,1116.2164)"><path
             d="m 0,0 c 0,0 56.338,6.56 25.133,-36.788 -3.467,-3.474 -42.73,-7.222 -44.769,-19.217 -1.17,-0.944 -29.506,-32.795 -37.443,7.077"
             style="fill:#f9d999;fill-opacity:1;fill-rule:nonzero;stroke:#231f20;stroke-width:3;stroke-linecap:butt;stroke-linejoin:miter;stroke-miterlimit:10;stroke-dasharray:none;stroke-opacity:1"
             id="path446" /></g></g></g></g></svg>
