<?xml version="1.0" encoding="UTF-8"?>
<svg enable-background="new 0 0 240.125 419.656" viewBox="0 0 240.125 419.656" xmlns="http://www.w3.org/2000/svg">
 <path d="m90.639,34.085c-.98,20.271 5.812,26.572 27.014,23.742 17.907-2.39 41.607-8.892 59.06-1.191 20.321,8.967 14.516,33.099 12.644,50.869-2.086,19.796-4.079,40.817 8.73,57.469 13.34,17.341 28.79,26.939 38.092,47.86 9.45,21.253 1.092,44.399-16.126,58.101-16.837,13.397-31.573,27.044-39.202,47.994-4.409,12.108-4.507,10.969-17.429,12.088-12.023,1.041-24.052,1.938-36.095,2.716-23.749,1.534-47.967,4.734-71.708,4.871 12.319-30.119 23.624-67.529 4.452-97.349-18.442-28.686-51.941-47.789-51.941-86.577 0-18.648.539-37.492 10.684-52.327 10.378-15.175 9.838-26.688 11.872-44.521 3.918-34.357 37.506-25.085 59.953-23.745" fill="#b2b2b2"/>
 <path d="m57.398,333.862c33.57-7.681 72.362-7.177 106.619-5.554 11.086.525 13.293-2.381 13.293,8.814 0,8.129 2.032,17.052 5.32,24.438 6.396,14.367 15.942,28.166 3.584,42.34-22.389,25.678-79.792,14.361-107.52,5.124-15.665-5.219-33.76-16.777-33.76-35.459 .001-15.107 8.109-27.676 12.464-39.703" fill="#8c8c8c"/>
 <path d="m82.923,379.565c22.007-3.968 41.664.121 63.585,1.939 10.721.889 23.547.737 33.173,6.374 13.18,7.717 4.964,13.615-6.527,16.022-21.729,4.552-45.843,1.784-67.97,3.268-11.482.769-22.489-1.229-32.152-7.682-14.42-9.628 4.437-16.692 9.891-19.921" fill="#666"/>
 <path d="m21.781,8.555c18.129-8.055 36.794-12.919 55.188-3.025 10.651,5.729 24.555,39.498 3.878,35.378-4.669-.93-12.262-6.583-14.544.299-2.627,7.921-7.326,11.402-15.435,12.759-11.94,1.999-18.977-16.236-17.214,3.864 1.503,17.135 13.061,31.36 13.061,48.918 0,6.964-8.041,18.6-16.029,18.153-7.452-.417-3.79-5.919-8.313-11.275-3.939-4.666-8.904-.529-8.904-7.534 0-5.895-.714-10.527-2-16.321-1.983-8.937-5.526-17.144-7.959-25.9-7.129-25.644-4.51-40.499 18.271-55.316" fill="#ffbf00"/>
 <path d="m132.192,155.777c4.106,3.259 5.708,7.729.597,8.904 17.538,2.943 11.999,31.425 23.745,39.768 .539-1.269 1.304-7.396 2.371-8.313 2.519-2.165 5.182-.188 7.124-1.774 3.878-3.166 1.974-7.16 8.313-3.565 2.935,1.664 3.725,3.177 5.339,5.339 1.667,2.232-2.329,4.18 1.188,5.939 2.409,1.205 4.157,2.87 5.345,5.342 3.041,6.331 2.21,11.778 2.969,17.809 .7,5.566 4.822,22.201 2.967,26.121-4.269,9.02-24.385,8.14-32.057,6.232-11.995-2.983-7.44-10.311-8.308-20.481-.685-8.033-.511-6.331-4.753-10.087-2.41-2.134-7.868-2.91-9.496-4.754-4.979-5.64-1.004-11.452-5.345-16.022-7.402,10.337-5.352,18.207-3.56,26.115 2.388,10.534 2.299,26.185 5.209,38.806 5.581,24.2 6.664,47.804 6.664,72.498 0,3.384-.697,7.297 0,9.791 .113.403 3.685.818 4.156,2.968 .953,4.342 2.281,8.171-2.969,9.502 6.157,5.134 2.397,11.216-.597,17.211-1.862,3.729-4.783,12.493-8.904,16.035-8.41,7.229-16.048,2.291-23.745-.598-6.929-2.601-18.059-5.044-8.31-14.841 3.676-3.693 13.267-13.012 13.063-17.211-.146-3.032-4.003-1.92-4.753-4.754-.836-3.157-.166-5.426 0-8.313 .79-13.77-.113-31.008-4.745-47.188-4.876-17.033-11.069-33.199-17.812-49.565-2.195-5.328-6.236-10.644-7.125-15.438-1.214-6.551-.5-11.479-2.075-17.809-3.435-13.81 7.406-41.016 14.545-52.237 7.2,3.625 3.508-12.741 1.188-16.626-2.273-3.809-4.64-4.028-6.534-7.119-1.048-1.71.151-5.779-1.779-7.719-4.361-4.383 3.503-6.02 1.782-8.605-2.812-4.225-3.797-8.006-4.75-12.765-1.672-8.349-1.837-17.072-4.156-24.927-2.669,2.902-5.72,1.797-7.125-2.377-2.975,1.894-6.789,3.358-9.495,1.78 1.782,1.039.225-8.042 0-8.307-4.694-3.264.023-7.116-2.377-11.281-6.658,3.567-9.122-6.979-16.023-7.722 1.695.302 3.17.323 4.748.597-2.426-1.505-3.308-2.695-4.748-4.157 1.751,1.607 3.709,2.346 5.936,3.56-4.624-4.216-11.754-19.104-5.345-24.927 3.285-2.984 4.702.41 7.716,0 1.567-.213 8.726-2.222 10.684-1.786 6.946,1.548 2.809,9.914 5.936,17.217 2.909,6.793.849,8.511.597,16.029 8.764-4.587 13.656,4.966 16.62,11.275 4.252,9.051 13.652,25.941 13.652,35.918 0,7.147 6.546,8.663 9.501,14.539 2.634,5.237 4.255,13.926 10.684,17.217-5.274-6.75-2.271-12.432 1.188-18.991 1.725-3.27 5.891-9.89 8.307-9.501-1.46-4.482-1.294-9.559 2.968-10.684-1.369-5.092 4.024-7.991 8.904-8.904-1.192,1.435-1.555,2.735-2.371,4.151 6.626-7.02 18.736-5.184 24.336,3.27 8.29,12.512-.067,14.28-2.376,25.229-2.221,10.527 7.415,16.404-7.716,15.432-2.702-.174-4.726-2.533-8.308-1.78-2.522.532-6.086,6.49-10.685,6.534"/>
 <path d="m144.662,122.531c1.001,8.069 5.26,8.998 2.968,17.211 10.77-2.896 1.519,13.931-4.748,7.13-11.291,16.463-35.314,3.729-23.745-13.658 2.026-3.045 6.549-3.004 8.011-7.42 1.181-3.566 3.62-9.049 6.83-10.98 6.148-3.698 15.733,2.299 9.494,7.119 .119.273 1.219,1.926 1.19.598" fill="#ffd0a8"/>
 <path d="m118.54,152.211c-1.709,6.496-6.265,12.399-9.495,18.406 5.99-7.514 18.58-6.966 22.557-14.249-4.759.403-9.415-1.522-13.062-4.157" fill="#ffd0a8"/>
 <path d="m132.192,156.959c7.67,6.665-4.998,8.869-9.496,13.061 .48-4.298-.004-4.417-1.78-7.125 4.309-.705 9.316-1.984 11.276-5.936" fill="#0060b6"/>
 <path d="m118.54 163.49c4.126-0.536 4.451 3.81 4.157 7.13 3.037-2.465 6.505-5.092 10.092-4.753-6.547 1.603-22.048 22.168-26.121 12.463-2.223-5.296 9.271-13.78 11.872-14.84" fill="#0060b6"/>
 <path d="m116.76,153.991c-1.945,1.489-4.75,3.563-7.125,5.345 1.226-.544 2.273-.765 3.565-1.188-.671,4.138-2.323,7.689-4.156,11.275 3.361-4.655 5.912-10.146 7.716-15.432" fill="#0060b6"/>
 <path d="m112.01 159.93c-8.577 4.495-19.788 14.29-6.533 17.808 1.388-5.958 4.95-11.513 6.533-17.808" fill="#0060b6"/>
 <path d="m128.632,248.379c2.478,5.937-.796,9.802-7.125,8.904 1.976.103 4.397.08 7.125-.592-2.11,3.105-5.196,4.909-8.904,5.34 3.718.057 6.888-1.268 9.496-4.157 6.122,23.185 13.408,52.001 6.533,75.988 1.358-3.105 2.755-6.679 3.559-10.099 0,11.719 6.383,41.33-12.463,40.962-7.524-.146-5.46-3.317-5.936-11.872-.414-7.438.217-15.152-.597-22.557-1.201-10.921-4.58-21.688-6.823-32.944-2.839-14.249-12.525-42.293-21.669-52.533 2.05,12.849 9.59,30.608 16.328,41.844 5.232,8.726 3.985,19.234 6.229,28.196 2.837,11.332 4.753,20.172 4.753,32.655 0,3.589 2.245,12.606-4.156,10.092-5.831-2.29-3.024-15.791-3.872-21.749-2.705-19.015-8.032-37.406-14.534-55.421-4.396-12.181-14.949-26.939-17.211-39.183-.658-3.563 1.49-7.269 1.188-10.684-.374-4.234-3.907-6.924-2.672-11.875 3.974-15.935 5.888-31.417 13.356-46.304 3.117,2.181 14.487-11.809 20.776-13.055-3.178,1.647-16.808,9.697-15.438,14.84 .448,1.682 16.12,9.391 17.809,8.904 6.355-1.831 14.695-25.677 24.342-14.25-18.856-2.954-25.874,27.724-31.168,40.07-4.631,10.8-7.87,20.401 2.968,27.605 5.305,3.525 16.971-3.105 14.548-6.528 4.891,2.398-1.549,6.434-4.754,8.308 1.781-1.51 4.303-2.372 5.937-3.565 2.514,4.064 2.879,8.967 2.375,13.66" fill="#a8b97d"/>
 <path d="m106.08 243.03c5.357 3.643 11.374 4.642 17.809 4.156-5.321 2.612-15.369 0.761-17.809-4.156"/>
 <path d="m100.73 232.35c5.328 4.082 12.048 9.691 18.405 7.125-7.113 3.415-14.311-1.88-18.405-7.125"/>
 <path d="m106.076,138.56c9.688,13.261.477,6.549-4.157,18.991 2.391-4.378 6.345-7.493 11.281-8.307-2.122,1.666-4.743,4.468-6.533,5.936 4.242-3.319 8.59-7.08 10.684-2.371-7.756,3.546-18.561,10.413-22.557,18.4 2.069-5.881 4.677-12.091 4.157-18.4-.47,2.857-1.241,5.613-1.78,8.307 .262-3.536-.554-6.848-2.377-9.501 .443,2.001.375,4.258.597,6.533-7.882-11.883 5.374-10.315 10.685-19.588" fill="#0060b6"/>
 <path d="m135.757,169.423c6.045,3.149 10.252,6.6 10.684,13.658 .466,7.625-.946,6.412-7.125,10.684 2.477-1.56 5.039-2.057 7.717-2.968v1.188c-2.226,1.312-4.518,3.669-5.937,4.748 6.873-6.707 8.224-1.278 11.872,5.339-6.355-1.779-16.145.276-17.211,7.13-3.186-3.995-9.097-13.295-9.501-18.405-1.054,3.778.681,7.294 4.156,9.501-2.638-.395-3.651.049-6.527-1.786 2.963,2.246 5.776,3.483 7.716,5.345-2.928.407-4.452,1.493-7.716.591 1.611.156 4.578,1.021 7.125,1.188-3.628,5.417-6.404,13.102-6.533,19.588-1.671-.24-4.667-.093-6.527-.592 4.341.076 5.971,1.074 7.125,4.151-1.977-.39-4.364-.185-6.534-.592 2.524.25 4.356,1.659 6.534,2.377-3.522,5.566-10.658,8.906-16.032,3.56-7.692-7.655-4.096-16.022-.594-25.524 5.017-13.617 12.216-35.86 27.308-39.181" fill="#0060b6"/>
 <path d="m88.859,184.86c-3.749,10.923-15.373,30.154.594,34.133 7.968,1.986 6.855,4.493 11.278-.887 4.434-5.393 6.591-18.209 8.904-24.938-8.333.683-13.917-7.315-20.776-8.308"/>
 <path d="m90.047 185.46c4.128 3.557 12.316 8.37 18.4 8.904-1.978 5.125-7.175 27.576-12.464 26.116-6.357-1.755 3.001-22.729 4.748-28.492-3.504 6.131-4.816 28.32-13.061 24.927-6.735-2.772 1.403-22.539 4.754-28.486-5.394 6.835-6.521 17.178-9.501 25.519h-1.188c1.49-9.845 4.347-19.331 8.312-28.488" fill="#a8b97d"/>
 <path d="m82.332,230.57c4.313,2.072 7.589,5.805 9.496,10.087-2.766-2.249-6.381-3.903-9.496-5.339 3.126.935 4.922,1.476 7.716,3.564-1.983-3.411-5.156-6.342-7.716-8.312"/>
 <path d="m158.314,202.072c.669-8.638 6.683-5.343 7.124,2.968 .602-2.531.541-5.828-.597-8.904 3.498-.678 4.941,3.31 4.753,7.722h1.183c-2.911-11.282 2.681-11.74 2.969-1.188h1.188c-4.068-8.706 1.859-11.682 2.377-.597 .455,9.75-6.066,10.887-14.84,7.722 1.304.806.995.772 2.371,1.183-2.035,4.632-5.271,8.313-10.088,8.904-.204-6.285-.082-13.608 5.937-17.212 .064.92-.956.703-1.188,1.78 .861-.776 1.423-1.594 1.779-.591 .065-2.052-.011-3.595 0-5.345-.444,1.577-2.418,2.711-2.968,3.558" fill="#ffd0a8"/>
 <path d="m170.185,193.168c-1.725-6.814 10.52.434 7.717,7.722 .5-6.459-4.576-8.363-7.717-7.722" fill="#ffd0a8"/>
 <path d="m154.157,220.478c4.141-.595 31.499-7.362 33.246-1.188 1.962,6.933-28.087,5.937-32.649,5.937v-1.78c7.92,1.689 25.936,1.02 31.461-4.156-.536.141-.933-.056-1.188-.591-3.251,5.43-27.984,6.42-30.87,1.778" fill="#ffbf00"/>
 <path d="m178.5 202.67c6.08 1.696 7.215 8.588 7.118 14.243-7.758-1.189-16.075-0.449-23.744 1.194 0.678-2.015 2.479-4.938 3.565-6.533 7.09 2.174 14.84-0.392 13.061-8.904" fill="#b2b2b2"/>
 <path d="m154.157,225.226c-.641,1.379 1.134,3.797-1.78,2.377-.306,1.755-.356,4.762 0,6.527 3.689-6.659 2.612,3.518 4.748,2.377 3.539-1.891 3.021-5.154 5.346-8.904 2.969,2.543 3.492,11.139 5.936,11.28 5.59.324.303-8.564 3.56-11.28 5.679-4.734 5.156,4.182 7.716,3.559 2.63-.641 1.749-5.096 4.754-6.527 1.767,8.37 5.641,2.455 3.559-3.559-6.916,6.13-25.321,6.012-33.839,4.15" fill="#ffbf00"/>
 <path d="m161.281,229.382c-.153,7.289-5.629,11.045-6.527,2.968h-1.188c-14.89,27.898 41.895,29.264 35.617,8.308-3.212,8.267-14.114,6.476-15.438-1.774 .104.646 5.453-18.993-1.184-10.689-1.468,1.837 1.114,14.027-5.344,11.281-3.807-1.622.074-12.08-5.936-10.094" fill="#b9b9b9"/>
 <path d="m182.058,228.785c1.369.053 2.317.244 3.559.597-1.149-2.822-1.481-2.827-3.559-4.156 .048,1.231-.015,4.105 0,3.559" fill="#b9b9b9"/>
 <path d="m182.65,229.979c9.494-2.143 8.051,15.39-1.184,15.433-12.826.058-5.718-13.641 1.184-15.433" fill="#ffbf00"/>
 <path d="m167.218,254.906c-5.143.416-10.985-.851-14.25-4.15 .197.591 0,.788-.592.591 5.006,10.04 41.792,6.326 37.994-2.968-3.918,7.067-17.03,8.348-23.152,6.527" fill="#b9b9b9"/>
 <path d="m154.16 208.6c-1.415 5.918 1.162 19.229-6.527 17.211-12.694-3.332-0.16-15.702 6.527-17.211" fill="#ffd0a8"/>
 <path d="m148.22,206.826c2.687-.091 4.288-.919 6.533,1.183-8.041.026-15.682,5.682-13.061,14.249-4.455-.728-5.813-4.09-4.156-8.313-.626,1.792-.925,2.658-1.188,4.754-7.186-7.518 7.149-17.776 15.438-16.029 12.041,2.538-8.368,3.816-11.28,7.125 .591-.197.788,0 .591.591 2.216-1.463 4.803-2.403 7.123-3.56" fill="#0060b6"/>
 <path d="m110.232,352.262c-1.226,3.176-1.405,5.495 1.78,8.313-1.393-1.247-1.955-1.572-2.968-2.968-.345,5.921 5.177,6.059 8.904,6.527 2.021-2.669 2.699-3.599 1.779-7.124-3.62,3.447-8.629.094-9.495-4.748" fill="#a8b97d"/>
 <path d="m120.319,361.757c-3.314,3.287-2.473,8.366 1.188,8.313-.601.145-2.394.215-2.968,0 5.24,9.038 27.729-4.164 25.524-10.689-1.744,1.541-3.021,2.027-4.15,2.968 6.216-4.312.681-10.297 1.183-4.742-5.286,5.068-13.614,10.525-21.368,8.308 .704-1.15.075-2.477.591-4.158" fill="#a8b97d"/>
 <path d="m126.26 368.28c3.625-0.103 6.897-1.567 9.501-4.151-2.187 3.514-5.49 5.082-9.501 4.151"/>
 <path d="m123.29 373.63c2.799 9.786 12.505-3.202 15.438-6.527-5.347 4.032-7.176 8.55-15.438 6.527" fill="#ff7d21"/>
 <path d="m122.1 374.22c-0.436 3.002-2.735 7.077-4.156 10.69 4.938-0.277 5.653-6.986 4.156-10.69" fill="#b19187"/>
 <path d="m139.914,366.511c6.618,2.323-5.564,30.132-12.171,32.351-5.27,1.77-18.312,3.293-18.698-4.455-.489-9.795 13.492-7.975 18.399-4.748-1.96-1.02-4.396-2.697-5.936-3.564 3.291.442 5.46.784 8.313,2.376-11.461-2.779-6.024-7.66-2.377-10.684 4.056-3.363 10.514-8.685 12.47-11.276" fill="#b19187"/>
 <path d="m143.472,370.661c1.461,4.688-1.605,9.91-5.344,12.464 .348-.23 2.891-2.119 1.188-.591 1.304-3.68 3.706-9.335 4.156-11.873" fill="#4f2100"/>
 <path d="m108.45 396.78c3.738 4.039 14.635 5.82 20.185 2.968 7.406-3.807 5.724-11.03 8.904-16.028-2.081 6.282-0.999 12.042-7.716 16.028-5.794 3.439-18.163 2.604-21.373-2.968" fill="#4f2100"/>
 <path d="m114.38 364.13c-1.568 3.59-1.488 6.352 2.968 6.527 1.039-4.072 0.347-5.989-2.968-6.527" fill="#ff7d21"/>
 <path d="m114.383,371.253c-1.635,2.605-2.964,5.706-4.151,8.313 1.582.843 3.33,2.418 4.748,2.969-2.61-1.201-4.783-1.578-7.716-2.377 2.552.94 4.203,1.824 6.527,2.968-2.339-1.063-4.672-1.55-7.125-2.371 1.19.591 2.417,1.186 3.565,1.78-6.592-2.781-19.87,8.081-8.904,11.28 10.449,3.048 15.719-13.14 20.776-19.594-1.641-.848-3.099-2.391-4.156-2.968-1.612,1.04-2.623.214-3.564,0" fill="#b19187"/>
 <path d="m113.2 370.66c-1.063 4.12-1.725 8.658-5.936 8.904 0.952-4.547 4.564-9.688 5.936-8.904" fill="#b19187"/>
 <path d="m96.575 392.03c2.841 2.493 7.425 2.513 11.873 2.377-4.093 1.198-9.184 1.501-11.873-2.377" fill="#4f2100"/>
 <path d="m88.268,137.371c5.162-1.216 11.688-4.102 13.061-8.904-.048.062-1.699.057-1.786,0 .417-.539-.266,1.937-.591,2.371-.845-1.625-.969-2.223-1.188-4.15 8.287-.552 7.083,6.483 1.78,8.904 1.381-1.322 4.129-3.042 5.345-4.156 .645,3.548-1.147,6.218-4.748,7.716 2.981-1.938 4.037-2.696 5.936-5.345 3.698,4.737-16.74,19.004-18.997,11.872 1.976.054 2.703-.291 4.157-.591-4.377-.568-3.487-1.011-5.345-4.15 1.808.002 3.761-.528 4.748-.597-6.605.775-8.563-4.568-3.56-7.125l1.188,4.155" fill="#0060b6"/>
 <path d="m95.983,124.311c2.683,6.913.672,10.14-6.527,11.872-1.925-8.728-7.154-15.61-8.609-25.82-1.474-10.348-.53-19.273-6.829-24.637 1.363.545.991-.412 1.188-1.183 .579.619 1.539,2.125 2.376,2.968 .017-2.743-2.816-2.761-5.936-5.345-1.006-.833-1.887-5.087-2.377-5.345-1.344-.707-6.188,1.092-7.125,0-4.551-5.307 6.735-6.498 11.873-4.748 8.689,2.959 9.68,15.137 12.469,22.557 3.266,8.685 12.69,20.806 9.497,29.681" fill="#ffd0a8"/>
 <path d="m60.367,79.789c5.946-3.448 11.632.833 4.748,1.786-5.365.743-8.877-.075-3.56-4.162 1.548,2.468-.765,1.177-1.188,2.376" fill="#ffd0a8"/>
 <path d="m60.958 83.946c4.042-1.429 7.92-3.982 10.092-1.188-3.532 3.028-9.237 5.303-10.092 1.188" fill="#ffd0a8"/>
 <path d="m71.05,83.349c1.064.751 1.942.293 2.377,1.786-2.719,2.449-6.574,4.067-9.501,2.968v-1.188c2.996-.345 4.948-2.392 7.124-3.566" fill="#ffd0a8"/>
 <path d="m69.862,88.693c1.198-1.094 2.25-.906 3.565-2.376 7.146,4.869-1.251,12.968-3.565,2.376" fill="#b98d00"/>
 <path d="m62.146 89.882c10.22-1.418-2.021 6.889 0 0" fill="#ffd0a8"/>
 <path d="m68.083,90.479c.112-.662 2.781.884 1.188-1.786-1.292.29-1.062.379-2.376.591 .529.53 1.07,1.891 1.188,1.195" fill="#ffd0a8"/>
 <path d="m49.085,66.137c5.517-2.493 13.012-8.406 18.406-8.307v1.183c-2.984.736-4.927,1.865-7.125,2.968-.761.713 6.372-4.062 7.716-2.376 5.566,6.98-2.849,7.317-4.748,8.904-4.232,3.538-10.927,8.143-13.061-.591 1.518-.877 4.164-3.05 5.345-3.56-1.46,1.192-4.449,2.482-6.533,3.56-.094-.757-.01-1.589 0-1.781" fill="#b9b9b9"/>
 <path d="m65.711 60.201c2.48 3.179 2.36 5.956-1.188 7.716 2.633-1.775 2.917-4.684 1.188-7.716" fill="#fff"/>
 <path d="m41.967,54.862c-3.658-14.548 3.43-12.845 11.872-13.066 2.835-.074 8.088-4.476 10.684-1.774 1.7,1.77-2.852,8.358-1.188,11.873-3.076-1.766-8.589,9.552-7.125-2.377h-1.188c-.103,5.747-4.432,8.245-4.748,1.183-.859,1.674-2.868,3.809-3.56,6.533-1.667-2.504-3.172-1.358-4.747-2.372" fill="#ffbf00"/>
 <path d="m60.367,71.476c2.861-2.873 5.138-2.457 6.527.597-2.528.896-4.339.338-6.527-.597" fill="#b98d00"/>
 <path d="m62.146,77.413c3.28.945 1.445.416 0,0" fill="#fff"/>
 <path d="m126.256,130.247c2.266-5.812 13.878-13.499 11.281-2.968 .705-1.205 2.054-3.819 1.779-2.968-.853,7.674-12.393,9.614-10.684,14.249-1.676-4.18-1.523-.995 1.188-4.156-2.129-1.083-2.025-2.753-3.564-4.157"/>
 <path d="m131.6 123.13c4.365-2.003 7.045 0.022 5.344 4.742 1.332-4.016-0.863-5.449-5.344-4.742" fill="#ffd0a8"/>
 <path d="m131.01 123.72c7.334-2.323 7.146 5.688 1.779 8.904-7.625 4.57-4.598-6.142-1.779-8.904" fill="#fff"/>
 <path d="m136.945,111.847c-1.016-3.077-2.282-5.043.592-7.722-5.131,1.697-6.11,5.133-1.779,8.313-2.03-1.787-2.637-2.035-4.156-4.15 .787,3.401-.714,2.036 2.968,4.742-6.806-1.609-7.621,3.86-6.528,9.501 1.25-4.809 5.214-8.594 8.903-10.684" fill="#5a3d1c"/>
 <path d="m133.38,136.774c3.803,5.708 13.168,4.09 13.061-3.559-.172-12.198-11.189.17-13.061,3.559"/>
 <path d="m139.32 129.06c4.68-1.648 7.661 1.256 5.937 5.936 0.458-4.38-1.598-6.452-5.937-5.936" fill="#ffd0a8"/>
 <path d="m139.32 129.66c-3.659 3.229-6.483 12.902 1.189 10.087 6.531-2.395 5.524-11.01-1.189-10.087" fill="#fff"/>
 <path d="m120.92 136.77c3.163 7.236 10.82 6.195 15.432 9.501-6.074 1.609-13.707-3.232-15.432-9.501"/>
 <path d="m128.04 143.9c2.515 0.287 3.739-1.506 4.748 1.774-1.688-0.49-3.563-1.328-4.748-1.774" fill="#ffb19e"/>
 <path d="m122.696,135.591c-1.29.5-2.06.716-2.377,1.78 .199-.595.002-.794-.591-.597 .829-1.869 1.395-.573 2.968-1.183"/>
 <path d="m135.757,144.496c.831,1.466 1.414,1.985.591,2.968 2.322-1.499.183-1.604-.591-2.968"/>
 <path d="m145.252,142.71c1.475.032 2.52-.598 4.157-.591-.803,1.021-1.353,1.936-2.377,2.968 2.08-1.095 3.534-2.022 4.156-2.376-1.96-2.15-3.358-.708-5.936-.001"/>
 <path d="m145.849,115.998c.312,6.303-.419,15.533 9.496,14.84-1.366-.087-3.84-.002-5.936-.591 1.302,1.362 1.559,2.229 4.156,3.56-2.104-.593-2.667-.443-4.156-1.183 .904.811 1.899,2.691 2.967,3.559-.56-.016-2.316-1.161-2.376-1.183-.248.588-.881,3.197-1.183,3.56 15.372,4.823 3.794-18.023-2.968-22.562" fill="#5a3d1c"/>
 <path d="m137.54 110.66c4.049 2.084 8.57 3.852 11.873 7.125 3.499-5.861 10.733-6.353 14.84-0.591-1.873-4.39-7.431-12.388-14.249-13.658-5.764-1.074-14.916 3.335-12.464 7.124" fill="#bf0000"/>
 <path d="m150 117.78c9.095-12.262 21.793 6.532 8.313 16.62 6e-3 -6.324-4.635-12.584-8.313-16.62" fill="#bf0000"/>
 <path d="m157.72 135.59c2.29 8.399 3.55 22.451-9.502 13.055 4.092-1.051 6.713-4.569 5.346-8.904 2.966-0.767 2.562-2.6 4.156-4.151" fill="#bf0000"/>
 <path d="m126.85 123.72c-1.358 0.537-2.937 2.164-3.565 5.936 1.92-2.009 3.358-5.306 3.565-5.936" fill="#ffd0a8"/>
 <path d="m135.757,117.192c3.111.151 4.513-1.5 5.936,2.371-.597-.199-.796,0-.597.597-1.813-1.702-5.094-2.918-5.339-2.968"/>
 <path d="m129.22 126.1c8.015-5.153 4.657 7.073 0 0" fill="#00a0c6"/>
 <path d="m130.41 126.1c3.361-0.18 3.098 0.682 0 0"/>
 <path d="m132.192,125.499c1.804.848.784.369 0,0" fill="#fff"/>
 <path d="m136.35 132.03c7.8-6.245 4.623 8.265 0 0" fill="#00a0c6"/>
 <path d="m137.54 132.03c3.882-0.107 3.952 1.864 0 0"/>
 <path d="m139.914,131.435c.18.213.085.224 1.183.597-1.255,1.221-.562.14-1.183-.597" fill="#fff"/>
</svg>
