<svg width="1432" height="966" viewBox="0 0 1432 966" fill="none" xmlns="http://www.w3.org/2000/svg">
<path d="M1073.09 0H1422C1427.52 0 1432 4.47715 1432 10V923.332C1432 928.307 1428.38 932.528 1423.45 933.162C1299.63 949.074 1115.35 934.064 1219.94 851C1324.88 767.658 1104.68 798.187 1074.65 924.357C1073.59 928.801 1069.95 932.263 1065.39 932.58C920.642 942.667 715.64 911.464 825.189 825.5C934.623 739.626 629.378 842.23 575.117 941.846C573.251 945.272 569.899 947.523 565.999 947.596C451.876 949.727 218.408 973.712 325.901 825.5C430.62 681.111 151.503 821.271 24.7148 961.731C18.6317 968.47 7.05984 964.739 6.36518 955.687L-8 768.5L0.343089 549.66C488.023 111.143 921.468 0.499871 1073.09 0Z" fill="url(#paint0_linear)"/>
<defs>
<linearGradient id="paint0_linear" x1="711.811" y1="655.5" x2="711.811" y2="1155" gradientUnits="userSpaceOnUse">
<stop stop-color="#487FA7" stop-opacity="0.9"/>
<stop offset="1" stop-color="#487FA7" stop-opacity="0"/>
</linearGradient>
</defs>
</svg>
