<svg width="1445" height="752" viewBox="0 0 1445 752" fill="none" xmlns="http://www.w3.org/2000/svg">
<g id="windy 1">
<path id="Vector" d="M1445 0H0V752H1445V0Z" fill="#EDEDED"/>
<g id="Group">
<path id="Vector_2" d="M821.699 577.859C822.729 577.48 823.759 577.607 824.789 577.607C845.213 577.607 865.809 577.101 886.234 577.228C900.308 577.354 914.211 577.354 928.285 577.607C946.307 577.859 964.328 578.238 982.35 578.617C997.282 578.996 1012.04 579.375 1026.98 580.007C1045.17 580.765 1063.53 581.523 1081.73 582.407C1101.29 583.418 1120.69 584.807 1139.91 586.955C1149.01 587.965 1158.1 588.471 1166.86 590.744C1168.75 591.25 1170.63 591.629 1172.18 592.639C1174.93 594.281 1174.93 596.429 1172.01 598.071C1169.78 599.334 1167.03 599.839 1164.28 600.345C1155.02 601.987 1145.4 602.745 1135.96 603.503C1113.99 605.145 1092.2 606.029 1070.06 606.408C1060.96 606.535 1052.03 606.787 1042.94 606.914C1017.19 607.293 991.447 607.419 965.701 607.166C946.821 607.04 927.942 606.787 908.89 606.408C894.644 606.156 880.398 605.777 866.153 605.398C852.593 605.019 839.206 604.513 825.647 604.008C824.96 604.008 824.445 603.882 823.759 603.756C823.587 602.366 825.132 601.734 826.162 600.976C830.967 597.313 833.542 592.892 833.37 587.713C833.199 585.06 832.34 582.407 830.624 580.007C829.766 578.744 828.565 578.238 826.677 578.238C825.303 578.491 823.415 578.996 821.699 577.859Z" fill="#9E9B90"/>
<path id="Vector_3" d="M713.397 429.304C711.852 428.925 710.308 429.43 708.935 429.809C701.897 431.578 694.689 432.209 687.308 432.209C675.466 432.209 667.055 425.64 668.085 416.924C668.772 411.745 670.66 406.818 672.891 402.018C675.122 396.965 680.271 393.428 684.906 389.638C692.972 383.07 702.584 377.638 712.539 372.711C713.912 372.711 714.255 373.469 714.598 374.101C717.173 377.89 720.606 381.301 724.038 384.838C724.725 385.47 725.755 386.101 725.24 387.112C718.546 390.144 712.539 393.933 707.733 398.481C706.017 399.997 704.815 401.892 704.644 403.913C704.472 406.06 705.673 407.071 708.591 407.197C713.225 407.324 717.516 406.313 721.464 404.797C722.665 406.313 722.665 408.081 723.867 409.724C726.27 412.882 728.844 415.787 731.419 418.819C731.934 419.451 732.62 420.082 732.792 420.84C733.135 422.609 734.165 423.493 736.568 423.619C738.971 423.745 740.859 423.114 742.747 422.103C744.978 420.714 747.209 419.324 749.097 417.682C749.612 417.177 750.47 416.166 751.5 417.429C750.814 420.461 749.784 423.367 748.582 426.272C747.896 426.904 747.038 426.651 746.179 426.398C744.635 426.019 743.605 426.398 742.575 427.283C739.657 429.556 738.284 432.335 737.598 435.494C737.254 437.009 738.627 438.146 740.001 439.031C743.948 440.925 748.067 440.546 752.358 437.767C753.045 437.262 753.731 436.251 755.104 437.009C755.791 437.767 755.619 438.652 755.619 439.536C754.933 447.494 754.933 455.453 755.619 463.411C755.791 466.569 755.963 469.853 756.134 473.011C756.478 480.97 757.164 489.054 757.336 497.013C757.507 503.455 758.709 510.024 759.739 516.467C760.082 518.488 760.254 520.509 760.597 522.53C760.94 524.93 760.768 525.056 757.679 525.435C757.336 525.435 756.992 525.562 756.821 525.562C745.493 527.836 733.822 529.225 722.15 530.362C719.576 530.615 717.001 530.994 714.427 530.109C712.196 529.73 710.994 528.594 710.651 526.951C709.106 521.772 709.449 516.466 709.964 511.287C710.479 504.339 711.681 497.392 712.539 490.444C713.912 478.822 715.113 467.201 714.942 455.579C714.942 452.042 714.255 448.631 714.598 445.094C717.001 439.41 720.949 434.23 725.412 429.304C726.098 428.546 726.785 427.914 727.471 427.156C727.986 426.651 728.329 425.893 727.643 425.388C726.956 424.882 726.098 425.135 725.412 425.388C722.322 426.525 719.404 427.788 716.315 428.798C715.457 429.051 714.598 429.683 713.397 429.304Z" fill="#E17A5F"/>
<path id="Vector_4" d="M1140.94 267.358C1140.77 268.368 1140.08 269.379 1139.57 270.39C1136.82 271.4 1134.25 272.537 1131.5 273.674C1126.35 275.948 1124.98 280.369 1130.99 283.148C1131.16 284.159 1130.64 284.79 1129.61 285.422C1124.98 285.801 1122.75 287.317 1121.72 290.475C1120.52 294.265 1121.72 296.917 1126.18 299.191C1126.87 299.949 1126.52 300.454 1125.67 300.96C1121.72 301.591 1120.17 302.855 1119.66 306.139C1119.14 309.044 1120.52 310.939 1123.78 312.202C1124.12 312.329 1124.46 312.455 1124.81 312.581C1125.49 313.339 1125.15 313.971 1124.29 314.603C1122.06 315.36 1120.69 316.876 1119.83 318.392C1118.63 320.287 1118.29 322.435 1118.46 324.456C1118.46 325.845 1118.97 327.235 1121.37 327.614C1122.23 328.498 1122.06 329.13 1120.69 329.256C1120.69 329.382 1120.69 329.509 1120.69 329.635C1114.34 330.772 1109.88 333.425 1108.16 338.099C1107.82 339.109 1107.47 340.12 1108.5 341.13C1109.02 342.141 1108.16 342.646 1106.96 342.899C1099.92 341.636 1094.43 343.404 1090.14 347.447C1088.42 349.089 1088.08 350.984 1088.42 353.005C1088.76 354.142 1088.08 354.9 1086.53 355.531C1071.94 357.047 1057.53 355.531 1043.11 353.636C1032.98 352.373 1022.51 351.615 1012.21 350.731C987.499 348.583 963.127 345.173 939.613 338.983C924.165 334.941 909.062 330.646 894.473 325.214C882.458 320.792 872.332 314.476 862.892 307.402C861.862 306.897 861.004 306.265 861.004 305.255C861.004 305.255 861.004 305.255 861.175 305.128C861.175 304.497 860.832 303.739 861.519 303.233C860.489 302.728 860.489 302.097 861.175 301.339C866.839 298.433 872.846 295.78 878.854 293.254C896.532 285.927 915.069 280.622 934.292 276.074C952.829 271.779 971.709 268.874 991.103 267.358C1007.41 265.968 1023.71 264.579 1040.02 263.947C1056.15 263.315 1072.29 263.442 1088.42 263.694C1104.38 263.947 1120.52 264.705 1136.48 266.347C1138.2 266.474 1139.74 266.726 1140.94 267.358Z" fill="#81B29A"/>
<path id="Vector_5" d="M818.438 529.604C813.461 529.604 808.655 528.72 803.849 528.341C796.469 527.836 789.26 527.583 781.88 527.457C779.134 528.215 776.559 527.583 773.813 527.709C771.582 527.836 769.522 527.457 767.291 527.33C766.261 527.33 765.059 527.078 764.544 526.32C763.858 524.677 764.03 523.035 764.373 521.393C764.888 520.509 765.574 520.888 766.261 521.14C767.291 521.646 768.32 521.898 769.179 521.14C770.037 520.383 770.037 519.498 769.522 518.74C768.835 517.856 767.806 517.856 766.604 518.235C765.746 518.488 765.059 518.867 764.373 517.982C763.686 516.845 763.686 515.709 763.686 514.572C763.515 508.634 762.313 502.697 761.97 496.886C761.455 488.802 759.567 480.843 759.052 472.759C758.881 471.117 759.395 469.474 759.395 467.832C759.567 463.285 758.709 458.737 758.881 454.189C759.224 449.01 759.224 443.957 758.194 438.904C757.851 437.009 759.739 435.873 760.769 434.609C761.283 433.978 761.97 433.978 762.828 434.357C764.201 434.862 765.403 434.609 765.918 433.599C766.432 432.588 765.746 431.83 764.373 431.451C763.858 431.325 763.171 431.199 762.828 430.82C762.313 429.683 761.97 428.546 761.455 427.535C760.94 426.525 761.112 425.514 762.313 424.63C763.515 424.124 764.201 424.882 764.888 425.388C772.955 432.209 782.051 438.273 791.491 443.957C792.349 444.462 793.379 444.841 793.379 445.852C791.835 456.842 798.185 466.443 804.364 475.917C806.252 478.696 808.14 481.475 807.968 484.633C807.797 491.96 810.2 498.781 812.602 505.729C813.289 507.75 813.632 509.898 813.976 511.919C814.662 516.845 817.237 521.393 818.781 526.193C818.953 527.33 819.811 528.467 818.438 529.604Z" fill="#E17A5F"/>
<path id="Vector_6" d="M729.531 364.374C732.105 362.984 731.934 363.111 730.217 361.216C725.412 356.036 721.979 350.352 720.263 344.162C717.86 335.825 718.718 327.74 721.121 319.403C724.21 309.044 732.62 302.223 744.978 297.675C755.105 293.886 766.089 291.612 777.589 291.612C785.827 291.612 793.894 292.875 801.789 294.77C813.976 297.675 825.304 302.223 836.803 306.392C836.631 307.15 835.945 307.781 835.258 308.286C825.304 316.371 814.49 323.95 802.819 330.772C796.469 334.562 790.461 338.73 784.283 342.773C783.081 343.531 781.708 344.288 780.335 345.046C779.648 345.425 779.134 346.057 778.104 345.678C777.589 344.92 778.447 344.288 778.79 343.783C779.992 342.141 781.536 340.625 782.91 339.109C784.111 337.846 785.141 336.456 785.827 334.941C787.544 331.277 788.745 327.361 788.745 323.445C788.745 316.371 786.514 309.929 777.589 305.886C773.813 304.37 769.865 303.486 765.746 302.728C758.366 301.718 752.015 303.107 746.351 306.518C744.463 307.655 742.404 308.918 740.859 310.308C736.396 314.224 734.852 318.898 734.508 323.698C733.822 333.298 737.426 342.015 745.493 349.594C746.351 350.352 747.038 351.236 748.582 351.489C748.754 351.489 749.097 351.615 749.269 351.741C750.814 352.626 751.672 354.015 753.045 355.026C755.276 356.794 757.851 357.805 761.112 358.058C761.97 358.184 762.828 358.184 763.515 358.689C765.918 359.574 767.462 361.089 769.522 362.226C772.955 365.258 775.529 365.763 780.678 364.374C782.566 363.868 784.111 362.605 786.342 363.111C786.686 364.753 785.141 366.016 784.626 367.406C779.992 369.048 775.186 370.185 769.865 369.806C768.492 369.679 757.679 367.532 755.963 365.89C755.105 365.132 754.761 364.121 754.246 363.237C753.731 362.353 753.56 361.468 752.358 360.71C751.672 361.847 752.187 362.732 752.702 363.616C753.56 365.132 754.418 366.521 755.963 367.658C756.649 368.163 757.336 368.669 757.336 369.427C756.478 376.248 756.478 383.196 756.134 390.017C755.276 391.533 754.418 390.396 753.731 389.891C751.5 387.744 748.926 385.596 747.038 383.196C742.232 377.385 736.568 371.953 731.076 366.395C729.702 365.89 728.329 365.384 729.531 364.374Z" fill="#E17A5F"/>
<path id="Vector_7" d="M818.438 529.604C818.61 527.078 817.237 524.804 816.378 522.53C814.319 517.982 813.117 513.435 812.431 508.761C811.744 504.971 810.028 501.434 808.998 497.771C807.968 494.234 807.11 490.57 807.282 486.907C807.282 482.991 806.08 479.454 803.506 475.917C798.357 469.095 795.096 461.642 792.693 454.063C791.834 451.158 791.834 448.252 793.036 445.347C793.894 445.094 794.409 445.599 794.924 445.852C801.789 449.515 808.14 453.558 815.52 456.716C816.55 457.095 817.237 457.726 817.408 458.611C818.953 460.379 820.326 462.021 821.871 463.79C822.729 464.8 823.244 465.937 823.415 467.201C823.587 470.359 825.132 472.759 828.908 474.527C831.997 475.917 833.885 478.191 835.087 480.717C836.116 482.865 836.975 485.138 837.49 487.412C838.176 490.949 840.236 494.107 844.012 496.507C845.385 497.392 846.586 498.402 847.616 499.539C850.362 502.571 852.25 505.982 853.623 509.392C853.795 510.024 853.967 510.656 854.138 511.287C855.168 514.698 857.399 517.351 861.862 518.74C863.235 519.246 864.608 519.877 866.153 520.256C871.13 521.519 873.876 524.93 877.824 527.204C879.884 528.467 877.996 530.488 874.563 530.741C870.959 530.994 867.526 531.373 863.921 531.12C853.28 530.109 842.639 530.615 831.997 530.362C827.191 530.109 822.729 530.362 818.438 529.604Z" fill="#CD7057"/>
<path id="Vector_8" d="M804.192 372.332C806.595 374.353 809.341 376.122 811.058 378.522C813.117 379.659 813.975 381.427 815.177 383.069C816.893 385.596 818.953 387.87 821.184 390.144C827.02 398.607 830.967 407.576 831.826 417.177C831.997 419.577 832.169 421.977 831.311 424.251C829.594 428.672 826.162 432.335 821.356 435.367C817.751 437.641 813.461 437.388 809.17 436.63C808.655 436.504 808.311 436.504 807.797 436.378C803.506 435.746 800.073 433.851 796.125 432.462C795.61 432.209 795.096 431.956 794.752 431.451C794.237 429.556 794.581 427.661 794.066 425.767C791.834 418.061 789.775 410.229 784.797 403.028C784.111 402.018 783.768 401.007 784.969 400.123C786.17 399.239 787.372 399.618 788.745 400.123C792.693 401.639 796.812 403.029 800.588 405.05C801.446 405.429 802.304 405.934 803.162 406.313C804.021 406.566 804.707 406.818 805.565 406.313C806.252 405.808 806.08 405.302 805.909 404.671C803.849 397.47 800.76 390.649 796.469 384.08C795.61 382.817 794.924 380.922 793.208 380.796C791.491 380.669 790.805 382.564 789.775 383.575C787.544 385.849 785.999 388.628 783.768 390.902C782.909 391.786 783.081 392.544 783.939 393.302C784.969 394.312 785.484 395.449 785.827 396.712C786.342 398.734 785.312 400.502 783.081 401.639C781.365 402.523 779.992 402.271 778.79 401.007C779.82 399.239 778.79 397.976 777.074 396.839C776.044 396.081 774.671 395.575 774.156 394.439C774.156 393.428 775.014 392.796 775.701 391.912C780.335 385.722 785.827 379.785 791.32 373.848C792.006 373.09 792.864 372.206 794.409 372.079C797.155 372.332 799.73 372.711 802.476 372.079C802.819 371.827 803.677 371.827 804.192 372.332Z" fill="#CD7057"/>
<path id="Vector_9" d="M821.699 577.859C823.759 577.859 825.99 577.986 828.05 577.859C829.594 577.859 830.453 578.238 831.139 579.123C836.803 585.818 835.43 595.292 827.878 600.85C826.677 601.861 825.132 602.619 824.102 603.756C816.893 603.756 809.513 603.25 802.304 602.871C790.118 602.24 777.932 601.482 765.574 600.597C746.694 599.208 727.814 597.945 709.278 594.66C706.532 594.155 703.785 593.523 701.211 592.639C699.838 592.134 698.465 591.629 697.95 590.492C698.121 590.365 698.465 590.365 698.636 590.365C703.099 592.008 707.39 593.523 712.539 593.65C714.942 593.776 717.516 593.65 719.919 593.397C726.441 592.765 732.792 591.755 738.627 589.228C741.03 588.218 742.232 586.955 742.575 585.06C742.918 583.544 742.575 581.902 743.605 580.386C745.15 579.502 746.694 579.628 748.411 580.007C749.612 580.891 749.269 582.028 749.269 583.039C749.269 584.933 749.784 586.702 751.157 588.344C752.187 589.86 754.075 590.618 755.963 591.376C765.403 595.166 774.671 594.155 783.939 590.997C784.626 590.744 785.312 590.492 785.999 590.113C791.32 587.965 794.066 584.681 793.894 580.133C793.894 579.249 793.551 578.112 795.439 578.112C804.364 578.238 812.946 577.859 821.699 577.859Z" fill="#8B897F"/>
<path id="Vector_10" d="M777.932 345.678C781.021 344.415 783.596 342.646 786.342 340.878C795.096 335.067 804.021 329.509 812.946 323.95C821.356 318.771 828.736 312.96 835.945 306.897C836.117 306.77 836.46 306.644 836.631 306.518C840.236 307.528 843.668 308.665 847.101 310.055C847.273 310.939 846.243 311.444 845.556 311.95C839.892 316.497 834.229 321.045 828.908 325.845C819.468 334.435 811.058 343.404 802.476 352.499C800.416 354.647 798.185 356.794 796.125 359.068C795.782 359.573 795.096 359.952 794.409 360.205C788.917 360.079 784.111 361.468 779.305 363.11C776.559 364.121 773.47 364.247 770.895 362.479C769.865 361.721 769.179 362.1 768.492 362.605C768.32 362.605 767.977 362.605 767.806 362.479C766.432 361.089 764.201 360.205 762.656 358.942C762.656 357.805 763.858 357.173 764.716 356.542C768.664 353.257 772.611 350.099 776.044 346.562C776.559 346.057 777.074 345.678 777.932 345.678Z" fill="#CD7057"/>
<path id="Vector_11" d="M713.225 566.49C712.539 564.469 713.569 562.448 713.569 560.427C713.74 551.205 714.255 542.11 714.084 532.888C714.084 532.004 713.912 531.12 714.427 530.362C715.457 530.994 715.285 531.878 715.285 532.636C715.457 534.278 715.628 534.404 717.86 534.025C723.524 532.888 729.187 531.625 735.195 531.12C736.739 530.994 738.284 530.994 740.001 530.867C741.545 530.867 742.232 531.373 742.403 532.509C742.403 532.888 742.403 533.267 742.403 533.773C742.575 544.763 743.262 555.753 744.635 566.617C744.806 567.375 744.806 568.006 744.12 568.638C743.433 569.017 742.747 569.143 741.889 569.143C733.993 569.396 726.098 569.017 718.203 568.133C716.315 568.006 714.255 567.88 713.225 566.49Z" fill="#81B29A"/>
<path id="Vector_12" d="M820.326 390.144C816.378 386.733 813.975 382.438 810.886 378.522C822.9 381.427 834.572 384.585 845.9 388.754C846.415 389.007 847.101 389.259 847.616 389.133C853.28 387.87 859.116 388.501 864.78 388.501C871.645 388.375 878.339 388.375 885.204 388.628C892.07 388.88 898.763 388.754 905.629 388.88C906.315 388.88 907.002 388.88 907.689 388.88C914.211 388.88 914.554 389.133 913.181 393.807C899.793 393.681 886.234 393.175 872.846 393.302C865.981 393.428 859.287 393.428 852.422 394.06C859.287 393.554 866.324 393.428 873.19 393.302C885.204 393.175 897.39 393.681 909.577 393.554C910.95 393.554 911.979 393.933 913.353 394.06C916.442 395.576 919.531 397.218 922.792 398.734C922.278 399.871 920.904 399.618 919.875 399.618C915.584 399.618 911.121 399.492 906.83 399.365C895.502 399.113 884.174 399.113 872.846 399.365C868.041 399.492 863.407 399.744 858.601 399.997C854.996 400.25 854.996 400.249 854.138 402.776C853.967 403.029 853.795 403.281 853.623 403.534C852.593 403.787 852.593 403.155 852.422 402.776C852.079 402.144 852.25 401.386 852.079 400.755C848.646 399.113 844.698 398.102 840.922 397.091C840.751 397.091 840.407 396.965 840.236 396.965C834.057 395.449 828.564 392.796 822.386 391.281C821.527 390.902 821.012 390.396 820.326 390.144Z" fill="#DDBA82"/>
<path id="Vector_13" d="M925.539 435.873C932.404 436.125 939.27 435.367 946.135 435.241C949.911 435.241 953.687 435.115 957.463 435.115C959.351 435.115 960.381 435.999 960.552 437.262C960.724 438.399 960.552 439.536 959.866 440.42C958.321 442.315 958.493 444.21 959.179 446.357C960.209 449.263 959.008 450.4 954.888 450.526C949.053 450.652 943.217 450.4 937.382 450.905C933.777 451.158 930.344 450.021 926.74 450.147C926.568 450.273 926.225 450.4 926.054 450.526C917.472 451.031 908.718 452.042 900.137 451.158C897.047 450.905 896.532 450.526 896.532 448.252C896.532 443.957 897.047 439.662 897.219 435.367C897.219 434.988 897.39 434.736 897.734 434.357C905.457 435.873 913.353 435.494 921.248 435.115C922.621 435.241 924.166 435.115 925.539 435.873Z" fill="#E4C087"/>
<path id="Vector_14" d="M743.948 568.385C743.262 562.195 742.747 555.879 742.06 549.689C742.06 549.437 742.06 549.184 742.06 548.931C742.232 543.5 741.202 538.194 741.545 532.762C741.545 531.625 741.202 531.246 739.486 531.246C732.105 531.372 725.24 533.015 718.203 534.404C717.688 534.531 717.345 534.657 716.83 534.783C715.113 535.162 713.912 535.162 714.255 533.394C714.427 532.383 714.255 531.246 714.255 530.236C714.255 530.109 714.255 530.109 714.255 529.983C722.322 529.983 730.217 528.593 738.284 527.835C744.463 527.204 750.299 525.688 756.306 524.93C758.366 524.93 760.425 524.551 762.313 525.056C763.171 525.309 764.201 525.562 764.716 526.193C768.149 527.077 771.582 526.951 775.186 527.077C777.417 527.204 779.648 527.077 782.051 527.456C782.738 539.078 781.708 550.574 780.85 562.069C780.678 563.585 781.022 565.101 781.365 566.617C781.88 568.006 780.678 568.259 779.305 568.385C777.76 568.511 776.216 568.385 774.843 567.754C774.156 567.122 773.984 566.238 773.813 565.48C772.611 560.174 771.925 554.742 771.925 549.31C771.925 544.005 771.067 538.573 771.41 533.267C771.41 531.878 770.895 531.246 768.835 531.246C764.373 531.372 760.082 530.615 755.619 531.12C753.731 531.372 752.702 531.751 752.53 533.394C751.843 540.468 751.157 547.542 750.299 554.616C749.955 557.521 749.955 560.427 749.784 563.332C749.612 563.838 749.612 564.343 749.612 564.848C749.441 567.248 748.926 567.88 745.665 568.764C744.806 568.89 744.291 568.89 743.948 568.385Z" fill="#719C86"/>
<path id="Vector_15" d="M926.397 450.273C926.568 450.273 926.74 450.273 926.912 450.273C927.083 455.073 926.912 459.747 926.568 464.548C926.397 466.064 925.71 466.822 923.651 466.822C920.046 466.695 916.614 466.443 913.009 466.19C911.808 466.064 910.435 465.937 909.233 466.316C904.942 467.453 900.48 466.822 896.017 466.443C888.465 465.811 880.742 465.306 873.19 464.8C866.839 464.295 860.489 464.042 853.967 463.79C852.422 463.663 851.564 463.158 851.392 461.895C850.706 458.358 850.877 454.947 850.877 451.41C850.877 449.768 851.907 449.136 854.138 449.642C860.317 450.652 866.668 451.031 872.847 451.789C873.876 451.915 874.735 452.042 875.421 452.547C876.279 453.305 876.794 454.063 877.652 454.821C878.854 455.579 880.398 455.705 881.772 455.705C885.376 455.705 888.809 455.705 892.413 455.705C893.958 455.705 895.159 455.452 896.189 454.442C897.39 453.052 899.278 452.8 901.338 452.8C907.689 452.8 914.039 452.673 920.218 452.8C923.307 452.926 925.71 452.926 926.397 450.273Z" fill="#F3CC8E"/>
<path id="Vector_16" d="M926.397 409.724C927.427 410.482 928.285 409.724 929.315 409.724C937.038 409.345 944.59 408.839 952.314 408.966C953.687 408.966 955.06 408.587 956.605 408.966C959.351 409.597 960.381 410.987 959.694 413.008C959.351 413.64 959.179 414.398 958.664 415.029C957.291 416.671 956.948 418.44 957.12 420.335C957.463 423.998 955.918 425.009 950.769 425.135C942.359 425.388 934.12 425.514 925.71 425.135C925.024 425.64 923.994 425.767 923.136 425.767C916.957 425.009 910.778 426.019 904.599 425.767C903.398 425.767 902.196 425.767 900.995 425.64C899.793 425.514 898.764 425.009 898.764 424.124C898.592 420.082 898.935 416.04 899.45 411.998C899.45 411.619 899.793 411.366 900.137 411.113C902.711 410.229 905.457 410.355 908.203 410.229C913.524 410.103 918.673 410.103 923.994 409.471C924.68 409.471 925.539 409.345 926.397 409.724Z" fill="#E4C087"/>
<path id="Vector_17" d="M698.636 590.618C698.465 590.618 698.293 590.618 698.122 590.618C691.599 587.081 689.711 582.533 691.943 576.975C693.831 572.301 698.636 569.775 704.3 568.006C706.36 567.375 708.591 566.869 710.994 566.869C713.054 567.248 714.77 568.259 716.83 568.764C720.434 569.522 724.038 570.28 727.814 570.154C730.561 570.154 731.247 570.659 730.904 572.68C729.874 577.228 729.874 581.775 729.874 586.449C729.874 589.102 729.531 589.607 725.926 590.492C717.001 592.639 707.733 592.387 698.636 590.618Z" fill="#F3CC8E"/>
<path id="Vector_18" d="M926.397 409.724C923.136 410.482 919.703 410.608 916.442 410.608C911.121 410.734 905.801 410.987 900.308 410.987C899.107 410.482 899.107 409.471 898.764 408.587C898.42 407.702 897.734 406.945 896.361 406.818C891.898 405.934 887.436 406.313 882.973 406.566C880.742 406.692 879.884 407.829 879.712 409.345C879.54 410.355 879.884 411.366 878.339 411.997C870.615 411.997 862.892 412.755 855.683 409.976C854.653 409.597 853.452 409.345 852.937 408.46C852.422 406.692 851.907 404.923 853.452 403.281C853.623 403.028 853.795 402.776 853.967 402.523C854.481 399.239 854.481 399.365 858.772 399.112C875.078 398.102 891.212 398.355 907.517 398.481C911.979 398.481 916.442 398.734 921.076 398.734C921.763 398.734 922.621 398.86 923.307 398.481C926.054 399.744 926.397 401.765 926.568 403.786C926.568 405.808 926.397 407.829 926.397 409.724Z" fill="#F3CC8E"/>
<path id="Vector_19" d="M855.511 312.834C861.175 315.613 863.063 319.024 861.004 324.708C858.772 330.772 854.138 335.825 847.788 339.993C841.609 344.036 834.572 347.32 827.02 350.099C820.326 352.626 813.975 355.531 807.11 357.805C806.595 357.047 807.453 356.415 807.968 355.91C817.923 345.299 827.878 334.814 839.206 324.961C843.668 321.045 848.646 317.255 853.452 313.466C853.795 312.96 854.481 312.455 855.511 312.834Z" fill="#CD7057"/>
<path id="Vector_20" d="M795.267 431.451C799.215 433.093 803.162 434.988 807.625 435.872C810.371 438.652 814.147 440.546 818.095 442.189C819.125 442.568 820.154 442.946 820.841 443.578C824.617 446.357 829.594 447.494 834.4 448.884C835.602 449.263 836.975 449.389 837.833 450.273C838.004 450.652 838.004 451.031 837.833 451.536C836.46 455.2 838.863 457.853 842.295 460.126C845.213 462.148 848.646 463.537 851.564 465.558C851.907 465.811 852.25 465.558 852.594 465.685C853.108 466.064 853.623 466.695 853.452 467.201C853.108 467.832 852.079 467.453 851.392 467.58C850.705 467.58 849.847 467.706 849.161 467.453C842.124 467.327 835.945 465.306 829.766 463.284C824.102 460.505 819.296 457.221 814.319 453.81C802.819 445.978 792.521 437.388 782.909 428.419C782.051 427.661 781.193 426.777 779.992 426.398C775.357 424.756 771.41 422.23 767.119 420.208C765.746 419.577 765.059 419.577 764.544 420.714C764.029 421.851 763.686 423.114 762.313 423.872C759.739 423.366 758.88 421.724 757.679 420.208C758.365 417.808 759.567 415.661 761.112 413.64C762.141 413.387 763.343 413.513 764.373 413.64C764.544 413.64 764.888 413.766 765.059 413.892C765.574 415.155 766.776 416.04 768.149 416.798C776.387 421.598 784.797 426.272 793.722 430.314C794.066 430.567 794.752 430.946 795.267 431.451Z" fill="#DDBA82"/>
<path id="Vector_21" d="M774.671 567.88C775.872 568.006 776.902 568.132 778.104 568.132C779.477 568.132 780.85 568.132 781.021 566.869C787.372 568.89 791.32 572.427 793.722 576.975C794.066 577.607 794.066 578.491 795.61 578.491C795.267 578.744 794.409 578.744 794.581 579.502C795.439 585.439 791.663 589.229 784.626 591.629C776.731 594.408 768.492 595.671 759.91 593.397C756.478 592.513 753.045 591.376 750.985 588.85C752.702 588.218 754.246 588.723 755.791 588.976C761.112 589.734 766.261 590.492 771.753 590.365C775.014 590.239 775.357 589.986 775.872 587.713C777.245 582.407 776.216 577.228 773.984 572.049C773.469 570.912 772.611 570.533 771.067 570.659C765.403 571.291 759.567 571.543 753.903 572.049C749.955 572.427 749.44 572.049 749.612 569.143C749.784 568.764 749.955 568.511 750.299 568.385C751.157 568.006 752.015 568.006 753.045 568.006C758.366 568.133 763.515 567.754 768.835 567.375C770.723 567.122 772.783 566.743 774.671 567.88Z" fill="#E4C086"/>
<path id="Vector_22" d="M925.539 435.873C919.531 435.999 913.352 436.378 907.345 436.251C904.771 436.125 902.196 435.746 899.622 435.873C898.077 435.999 898.592 434.862 897.905 434.483C896.875 434.104 896.704 433.22 895.674 432.841C895.331 432.714 894.816 432.462 894.473 432.335C890.01 432.083 885.376 431.956 880.742 431.83C878.854 431.83 878.167 432.967 877.481 434.104C876.451 436.757 876.451 436.757 872.503 436.504C868.899 436.251 865.294 436.504 861.69 436.125C858.772 435.746 856.198 434.862 853.795 433.978C852.937 433.725 852.25 433.22 852.25 432.588C852.079 430.82 851.907 428.925 852.25 427.156C852.422 426.146 853.623 426.019 854.825 425.893C862.377 425.893 869.929 425.64 877.481 426.398C878.854 426.777 879.369 427.661 880.055 428.419C880.742 429.051 881.428 429.304 882.458 429.43C885.891 430.062 889.495 430.188 893.099 429.935C894.987 429.809 896.704 429.43 897.734 428.167C898.763 427.156 900.137 426.904 901.681 426.777C909.233 426.651 916.614 426.904 924.166 426.651C924.68 426.651 925.024 426.777 925.539 427.03C925.539 430.062 925.539 432.967 925.539 435.873Z" fill="#F3CC8E"/>
<path id="Vector_23" d="M855.511 312.834C852.422 315.108 849.161 317.255 846.243 319.782C838.519 326.098 831.311 332.667 824.445 339.614C818.61 345.678 812.602 351.615 807.11 357.931C805.394 359.068 804.364 360.458 803.162 361.721C802.991 362.984 802.133 363.995 800.588 364.626C799.386 365.763 798.185 366.9 797.327 368.163C797.498 369.174 796.297 369.806 795.782 370.563C795.096 371.195 794.752 371.953 793.722 372.332C791.32 373.974 789.775 376.248 787.887 378.269C783.081 383.575 778.447 388.88 774.328 394.438C772.955 394.691 772.096 394.186 771.238 393.428C770.895 392.67 771.41 392.038 771.753 391.407C773.126 389.386 774.499 387.364 776.216 385.47C780.335 380.796 783.253 375.616 787.372 370.942C791.148 366.647 794.581 362.1 798.872 358.184C802.133 355.278 805.05 352.12 807.968 349.089C816.035 341.004 824.617 333.046 833.37 325.34C841.094 318.645 849.676 312.455 858.601 306.644C859.287 306.139 859.974 305.634 861.004 305.634C862.377 305.886 862.377 306.77 862.892 307.402C860.489 309.044 857.571 310.56 855.511 312.834Z" fill="#8C8A80"/>
<path id="Vector_24" d="M725.24 386.986C720.606 382.312 716.315 377.638 712.539 372.711C710.308 370.816 711.852 369.806 713.912 368.542C715.972 367.279 718.203 366.142 720.434 365.258C722.837 366.395 723.867 368.29 725.24 369.932C730.389 376.122 736.396 381.68 741.717 387.617C744.635 390.902 747.896 394.06 750.814 397.47C750.47 399.365 750.299 401.26 749.784 403.281C748.754 404.039 748.411 403.281 748.067 402.902C747.209 402.144 746.523 401.386 745.321 401.007C741.889 399.113 738.113 398.607 733.993 398.86C732.449 395.07 728.844 392.165 726.27 388.88C725.926 388.249 725.068 387.743 725.24 386.986Z" fill="#F3CC8E"/>
<path id="Vector_25" d="M761.798 423.745C762.485 422.23 763.343 420.84 764.03 419.324C764.544 418.314 765.059 418.566 765.918 418.945C768.32 420.208 770.552 421.724 773.298 422.735C781.021 425.388 785.484 430.441 790.633 434.988C793.379 437.388 795.954 439.662 798.872 441.936C807.968 449.136 817.408 455.958 828.05 462.021C828.565 462.274 828.908 462.779 829.423 463.158C825.818 462.4 822.557 461.011 819.468 459.369C818.781 458.99 818.095 458.358 817.065 458.484C816.378 457.979 815.864 457.347 814.834 456.968C807.11 453.558 800.073 449.263 792.864 445.22C787.715 441.936 782.051 438.904 777.245 435.367C773.126 432.335 768.664 429.43 764.888 426.019C764.201 425.388 763.343 424.63 762.313 424.251C761.97 424.377 761.798 424.124 761.798 423.745Z" fill="#F3CC8E"/>
<path id="Vector_26" d="M698.636 590.618C704.815 590.997 710.994 591.502 717.173 591.249C720.949 591.123 724.382 590.113 727.814 589.228C728.844 588.976 729.016 588.218 729.016 587.46C729.016 585.186 729.016 582.786 729.016 580.512C728.844 577.733 729.531 574.954 730.217 572.301C730.561 570.785 729.874 570.533 728.158 570.659C723.18 570.912 718.546 570.027 713.912 568.511C712.71 568.132 711.681 567.753 710.822 566.869C711.509 566.743 712.196 566.617 712.882 566.49C716.658 567.88 720.777 567.88 724.725 568.132C731.075 568.638 737.426 568.638 743.605 568.511C744.12 568.511 744.463 568.511 744.978 568.511C745.836 569.017 745.664 569.775 745.493 570.406C744.806 572.68 744.806 575.08 744.806 577.48C744.806 578.617 744.635 579.628 743.776 580.638C743.776 582.66 743.262 584.554 742.918 586.449C742.747 587.712 741.888 588.344 740.687 589.102C734.337 592.134 727.128 593.397 719.747 594.155C716.486 594.534 713.225 594.408 709.793 594.155C705.845 593.65 702.069 592.513 698.636 590.618Z" fill="#E4C086"/>
<path id="Vector_27" d="M861.347 305.507C855.168 309.171 849.847 313.466 844.183 317.508C837.49 322.308 831.654 327.487 825.818 332.793C815.692 341.888 806.423 351.236 796.984 360.71C791.663 366.016 787.029 371.574 782.909 377.385C779.648 382.185 775.529 386.607 772.268 391.407C771.925 392.038 771.581 392.544 771.238 393.175C769.35 393.428 767.977 392.923 766.604 392.038C766.261 391.154 766.776 390.396 767.291 389.765C772.611 382.691 778.447 375.869 784.797 369.427C785.484 368.795 786.171 368.037 786.857 367.279C788.402 365.511 789.947 363.868 791.491 362.1C792.349 361.342 792.864 360.331 794.237 359.826C801.961 351.741 809.856 343.53 817.58 335.572C823.415 329.635 829.594 323.95 836.288 318.519C839.721 315.739 843.154 312.96 846.586 310.181C850.362 307.781 853.623 305.002 857.743 302.728C858.601 302.223 859.459 301.591 860.66 301.465C860.66 302.097 860.66 302.728 861.175 303.233C861.519 303.991 861.519 304.749 860.832 305.381C861.347 305.255 861.347 305.381 861.347 305.507Z" fill="#A6A397"/>
<path id="Vector_28" d="M851.735 465.685C851.735 466.19 851.392 466.19 850.877 465.937C847.959 464.295 845.042 462.653 842.124 460.884C838.005 458.232 834.915 454.821 837.49 450.273C836.803 447.747 837.146 445.22 837.833 442.694C838.519 441.431 839.721 441.431 841.094 441.936C843.154 442.694 845.385 443.326 847.444 444.336C852.422 446.863 858.086 447.747 863.921 448.252C867.011 448.505 870.1 448.884 873.018 449.136C874.048 449.263 875.078 449.263 875.764 450.021C876.279 451.031 876.622 452.168 875.249 453.052C874.735 452.421 873.876 452.421 873.018 452.295C867.526 451.789 861.862 451.284 856.541 450.526C851.735 449.894 851.735 449.768 851.735 453.305C851.735 456.211 851.735 458.99 852.079 461.769C852.25 462.779 852.765 463.032 853.967 463.032C863.235 463.158 872.332 464.043 881.428 464.422C888.122 464.8 894.644 465.558 901.338 466.064C902.883 466.19 904.256 466.19 905.801 465.937C906.83 465.685 908.032 465.558 909.062 466.064C908.718 466.316 908.375 466.569 908.032 466.822C907.174 467.959 905.629 467.832 904.256 467.706C896.361 467.327 888.465 466.695 880.57 466.19C872.675 465.685 864.78 465.306 856.884 464.927C855.34 465.179 853.452 465.053 851.735 465.685Z" fill="#D1B07B"/>
<path id="Vector_29" d="M750.642 397.091C748.411 395.702 746.866 393.933 745.493 392.165C740.172 385.849 733.65 380.038 728.158 373.722C725.755 370.942 723.18 368.037 720.777 365.258C721.979 364.5 723.524 364.121 724.897 363.616C726.785 362.984 728.158 363.868 729.702 364.374C729.531 364.626 729.531 364.879 729.874 365.132C737.426 372.206 744.12 379.911 751.157 387.238C752.358 388.501 753.731 389.638 754.933 390.775C755.963 391.154 756.649 391.786 756.992 392.544C754.761 394.186 752.873 395.828 750.642 397.091Z" fill="#DDBA82"/>
<path id="Vector_30" d="M851.735 465.685C851.735 464.8 852.422 464.674 853.452 464.674C859.116 464.674 864.78 464.927 870.444 465.306C874.735 465.558 879.025 465.811 883.316 466.064C889.838 466.443 896.532 466.948 903.054 467.327C904.771 467.453 906.487 467.706 908.203 467.074C907.174 470.106 906.487 470.485 902.196 470.611C896.876 470.738 891.898 469.853 886.749 469.474C885.891 469.348 884.861 469.348 884.003 469.348C877.137 469.222 870.272 469.348 863.407 468.969C858.601 468.716 853.795 468.085 848.989 467.706C850.362 467.706 851.564 467.706 853.28 467.706C852.422 466.695 852.079 466.19 851.735 465.685Z" fill="#E5C187"/>
<path id="Vector_31" d="M713.397 429.304C717.173 427.788 721.121 426.398 724.897 424.882C726.098 424.503 727.471 423.872 728.329 424.882C729.016 425.767 728.844 426.651 727.814 427.662C723.352 431.957 719.748 436.504 717.001 441.431C716.315 442.568 715.8 443.831 715.285 445.094C714.942 445.852 714.77 445.094 714.427 445.094C714.427 439.789 713.226 434.609 713.397 429.304Z" fill="#CD7057"/>
<path id="Vector_32" d="M925.367 427.283C922.964 427.788 920.39 427.535 917.815 427.662C912.323 427.662 906.83 427.662 901.166 427.662C899.965 427.662 898.763 427.788 898.249 428.672C897.39 429.935 895.674 430.567 893.958 430.693C889.838 430.946 885.719 430.946 881.772 430.062C880.742 429.809 879.712 429.43 879.197 428.672C879.884 428.167 880.742 428.293 881.6 428.293C885.376 428.419 889.152 428.419 892.928 428.293C895.674 428.293 896.361 427.788 896.361 425.767C896.361 423.746 896.532 421.724 896.875 419.703C896.704 417.808 896.704 415.913 896.875 414.019C897.39 411.997 896.875 410.103 896.532 408.081C896.361 407.45 896.189 406.945 896.532 406.439C898.42 406.692 898.592 407.829 899.107 408.839C899.45 409.597 899.622 410.229 899.793 410.987C899.45 411.871 899.278 412.755 899.278 413.766C899.622 416.924 898.763 420.082 898.763 423.24C898.763 424.63 899.45 425.009 901.166 425.009C905.114 424.882 909.062 425.135 913.009 424.63C916.957 424.251 921.076 425.009 925.024 424.882C925.367 425.767 925.367 426.525 925.367 427.283Z" fill="#D2B17B"/>
<path id="Vector_33" d="M913.696 393.933C912.494 394.565 911.293 393.933 910.091 393.933C902.539 394.06 894.816 393.933 887.264 394.06C884.518 394.06 881.943 393.681 879.197 393.681C869.929 393.807 860.66 394.06 851.22 394.565C850.362 394.565 849.676 394.439 849.676 393.807C849.676 393.049 850.534 393.302 851.049 393.302C862.72 392.796 874.563 392.291 886.406 392.67C894.301 392.923 902.196 392.923 910.091 392.923C911.293 392.923 912.323 393.302 913.524 393.554C913.524 393.681 913.524 393.807 913.696 393.933Z" fill="#D0AF7A"/>
<path id="Vector_34" d="M800.588 364.5C801.446 363.489 802.304 362.479 803.162 361.595C804.707 362.479 806.423 362.226 808.14 361.974C810.886 361.721 813.461 361.847 816.035 362.479C818.095 363.11 820.154 362.858 822.386 362.479C823.072 363.11 822.729 363.868 822.729 364.5C822.729 364.626 822.557 364.753 822.386 364.879C819.296 365.511 816.207 365.258 813.117 364.374C811.401 363.868 809.685 364.374 807.968 364.626C805.394 365.005 802.991 365.005 800.588 364.5Z" fill="#EAC58B"/>
<path id="Vector_35" d="M822.386 364.626C821.527 363.995 822.214 363.237 822.386 362.605C823.415 360.963 825.647 361.468 827.363 361.342C828.736 361.216 830.109 361.216 831.311 360.71C831.997 360.458 832.684 360.205 833.37 360.71C834.057 361.216 833.885 361.721 833.542 362.353C833.199 362.984 832.855 363.489 832.512 364.121C829.079 364.5 825.647 365.005 822.386 364.626Z" fill="#E17B60"/>
<path id="Vector_36" d="M817.065 372.332C817.065 372.837 817.065 373.343 816.893 373.848C816.55 374.985 815.52 375.364 814.319 374.732C812.431 373.848 810.543 373.343 808.311 373.09C807.11 372.964 806.08 372.585 805.909 371.448C805.909 371.322 806.08 371.195 806.08 371.195C809.341 369.679 812.774 370.058 816.207 370.437C817.58 370.69 817.408 371.574 817.065 372.332Z" fill="#CD7158"/>
<path id="Vector_37" d="M822.386 364.626C825.647 364.121 828.908 363.616 832.34 363.995C832.169 365.005 832.684 366.269 831.654 367.153C830.109 368.416 829.079 366.774 827.706 366.521C825.818 366.142 823.587 366.395 822.214 365.005C822.214 364.879 822.214 364.753 822.386 364.626Z" fill="#CD7159"/>
<path id="Vector_38" d="M793.722 372.206C794.066 371.448 794.581 370.816 795.267 370.184C797.327 369.553 799.386 370.058 801.446 370.184C802.991 370.816 804.536 370.184 806.08 370.184C806.767 370.563 806.424 371.069 806.252 371.574H806.08H805.909C805.222 371.7 804.535 371.827 804.021 372.206C800.588 372.711 797.155 373.343 793.722 372.206Z" fill="#EFC98D"/>
<path id="Vector_39" d="M806.252 371.574C806.252 371.069 806.08 370.69 806.08 370.185C806.424 369.3 807.11 369.048 808.312 369.174C810.543 369.553 812.946 369.553 815.177 369.048C817.408 368.669 817.752 368.921 817.408 370.564C817.237 371.069 817.065 371.7 816.893 372.206C817.065 371.069 816.378 370.69 814.834 370.69C812.088 370.943 808.998 370.69 806.252 371.574Z" fill="#E17C60"/>
<path id="Vector_40" d="M1125.84 300.96C1126.01 300.328 1126.18 299.823 1126.35 299.191C1127.55 298.56 1128.76 297.549 1130.47 298.56C1131.5 299.065 1131.84 299.823 1131.5 300.707C1131.16 301.718 1130.13 302.476 1128.76 302.602C1127.21 302.728 1126.35 302.097 1125.84 300.96Z" fill="#F3CD90"/>
<path id="Vector_41" d="M1139.74 270.389C1139.22 269.126 1139.74 268.116 1141.11 267.358C1141.28 267.358 1141.63 267.358 1141.8 267.358C1143.52 267.231 1144.72 267.61 1145.23 268.874C1145.75 270.01 1144.72 270.768 1143.52 271.274C1141.8 271.905 1140.6 271.526 1139.74 270.389Z" fill="#F3CD90"/>
<path id="Vector_42" d="M1124.46 314.476C1124.64 313.845 1124.81 313.213 1124.98 312.455C1127.21 311.444 1128.93 311.571 1129.61 312.96C1130.13 314.097 1129.61 315.234 1128.07 315.739C1126.35 316.245 1124.98 315.866 1124.46 314.476Z" fill="#F3CD90"/>
<path id="Vector_43" d="M1120.69 329.635C1120.69 329.509 1120.69 329.382 1120.69 329.256C1121.2 328.751 1121.55 328.245 1121.2 327.487C1122.4 327.235 1123.61 326.603 1124.64 327.487C1125.32 328.119 1126.18 328.751 1125.67 329.761C1125.15 330.519 1124.29 331.151 1123.26 331.151C1121.72 331.403 1120.86 330.772 1120.69 329.635Z" fill="#F2CD91"/>
<path id="Vector_44" d="M1129.78 285.422C1129.96 284.538 1130.47 283.78 1131.16 283.148C1132.7 282.769 1134.25 282.39 1135.11 283.906C1135.62 285.169 1134.59 286.053 1133.22 286.559C1131.5 287.317 1130.64 286.306 1129.78 285.422Z" fill="#F2CD90"/>
<path id="Vector_45" d="M1086.53 355.531C1087.22 354.647 1087.73 353.889 1088.42 353.005C1089.97 352.626 1091.34 352.752 1092.03 353.889C1092.71 354.773 1091.85 355.657 1090.82 356.163C1089.28 356.921 1087.73 356.921 1086.53 355.531Z" fill="#F2CD90"/>
<path id="Vector_46" d="M1106.96 342.899C1107.3 342.267 1108.33 341.888 1108.5 341.13C1110.22 340.625 1111.59 340.878 1112.11 342.141C1112.62 343.278 1111.76 344.162 1110.39 344.415C1108.5 344.92 1107.3 344.415 1106.96 342.899Z" fill="#F2CD91"/>
<path id="Vector_47" d="M853.108 509.392C850.705 506.234 848.989 502.824 847.101 499.539C850.534 502.318 852.765 505.603 853.108 509.392Z" fill="#E18065"/>
<path id="Vector_48" d="M801.446 370.185C799.386 370.943 797.327 370.437 795.267 370.185C795.954 369.427 796.64 368.795 797.155 368.037C798.7 368.669 800.245 369.3 801.446 370.185Z" fill="#CE745B"/>
<path id="Vector_49" d="M761.798 423.746C761.97 423.998 762.142 424.251 762.313 424.377C761.455 425.64 761.283 426.904 762.313 428.04C763 428.798 762.828 429.683 762.828 430.567C762.313 431.704 761.627 432.967 761.455 434.104C761.455 434.609 761.283 435.241 760.769 435.494C758.194 437.136 759.052 439.157 759.224 441.178C759.567 444.083 760.082 446.989 759.739 450.021C759.395 453.558 759.395 457.095 759.91 460.632C760.254 464.043 760.254 467.453 759.91 470.864C759.739 473.39 760.082 475.917 760.254 478.443C760.768 482.359 761.455 486.149 761.97 490.065C763 496.886 763 503.708 764.201 510.529C764.716 513.056 764.03 515.709 764.888 518.361C765.746 519.119 765.746 520.004 764.888 520.762C764.888 522.53 764.888 524.299 764.716 526.193C761.97 525.562 759.224 524.804 756.306 524.93C759.91 524.172 759.91 524.172 759.567 521.267C758.709 514.824 757.679 508.382 756.821 501.939C756.478 499.539 756.134 497.265 756.306 494.865C756.649 490.065 755.963 485.265 755.791 480.338C755.619 474.654 755.276 469.095 754.761 463.411C754.246 456.463 754.59 449.389 754.418 442.441C754.418 441.052 754.933 439.662 754.933 438.273C754.933 437.641 755.276 437.009 754.418 436.504C753.731 435.873 754.418 435.241 754.761 434.736C755.105 434.23 755.448 433.725 755.791 433.093C757.336 430.441 757.336 430.441 754.246 428.546C754.075 428.419 753.903 428.167 753.731 428.04C754.418 425.135 755.448 422.356 758.022 420.082C759.224 421.345 760.082 422.861 761.798 423.746Z" fill="#CD7057"/>
<path id="Vector_50" d="M725.24 386.986C728.501 390.017 731.076 393.302 733.993 396.586C734.508 397.218 735.366 397.849 733.993 398.481C732.964 399.365 731.419 399.618 730.217 400.123C728.158 401.134 726.27 402.144 724.553 403.408C723.695 403.913 723.352 405.05 721.636 404.923C721.121 405.808 720.091 406.187 718.718 406.439C715.285 407.071 712.024 407.955 708.248 407.703C705.33 407.576 704.129 406.692 703.957 404.544C703.785 401.26 706.188 398.734 708.935 396.46C713.054 393.175 717.516 390.144 722.665 387.617C723.524 387.365 724.21 386.986 725.24 386.986Z" fill="#CD7057"/>
<path id="Vector_51" d="M721.464 404.797C722.665 404.545 723.009 403.534 723.867 403.155C724.725 403.534 724.897 404.292 725.24 404.923C726.785 408.334 729.188 411.492 731.59 414.65C732.792 416.166 733.307 416.166 735.023 415.029C738.456 412.882 741.374 410.482 742.575 407.197C743.433 404.923 743.948 402.523 745.664 400.502C747.552 400.881 748.239 402.271 749.44 403.408C750.985 403.66 750.814 404.671 750.814 405.555C750.47 407.576 750.47 409.724 749.612 411.745C746.866 416.419 742.918 420.335 735.881 421.851C734.508 422.103 732.963 422.482 732.105 421.093C729.531 418.061 726.956 415.156 724.553 412.124C723.009 409.724 721.292 407.576 721.464 404.797Z" fill="#EADAC6"/>
<path id="Vector_52" d="M739.486 439.157C737.083 438.02 736.396 436.378 737.083 434.23C737.769 431.451 739.314 428.925 741.889 426.777C743.433 425.514 744.806 424.882 747.038 426.019C747.381 426.146 747.724 426.019 748.239 426.146C749.784 425.767 750.642 426.777 751.843 427.156C752.358 427.409 752.873 427.535 753.045 428.04C753.217 428.546 752.873 429.051 752.53 429.556C749.612 433.093 746.008 436.251 741.374 438.652C740.859 438.904 740.344 439.157 739.486 439.157Z" fill="#81B29A"/>
<path id="Vector_53" d="M739.486 439.157C744.978 436.125 749.784 432.588 752.873 427.914C753.388 427.661 753.56 427.914 753.731 428.167C758.022 429.683 758.022 429.809 756.306 433.093C755.619 434.23 754.933 435.367 754.246 436.63C750.47 440.041 746.008 441.304 741.545 440.167C740.859 439.915 740.001 439.662 739.486 439.157Z" fill="#709984"/>
<path id="Vector_54" d="M732.449 420.966C733.478 421.598 734.68 421.598 735.881 421.345C741.889 420.208 745.321 416.924 748.239 413.261C748.582 412.755 748.926 412.376 749.269 411.871C751.157 412.25 752.015 413.387 752.873 414.398C752.702 415.408 752.873 416.545 751.157 417.05C750.47 416.671 750.127 417.177 749.955 417.429C748.067 419.45 745.493 420.84 743.09 422.356C740.687 423.872 737.769 424.503 734.851 423.619C733.135 423.24 731.59 422.482 732.449 420.966Z" fill="#CD7057"/>
<path id="Vector_55" d="M750.985 417.05C751.672 416.166 752.015 415.282 752.358 414.271C752.015 412.629 752.873 411.492 754.59 410.482C756.478 410.734 757.679 411.618 758.366 412.882C756.478 417.556 754.246 421.977 752.187 426.651C752.015 427.03 751.843 427.282 751.329 427.535C750.299 427.03 749.097 426.651 748.067 426.146C748.754 422.987 749.955 420.082 750.985 417.05Z" fill="#A7A397"/>
<path id="Vector_56" d="M764.888 520.888C764.888 520.13 764.888 519.372 764.888 518.488C765.918 517.73 767.119 516.972 768.835 517.477C770.037 517.856 770.552 518.74 770.552 519.751C770.552 520.761 770.037 521.772 768.664 522.151C766.776 522.783 765.746 521.898 764.888 520.888Z" fill="#F2CB8D"/>
<path id="Vector_57" d="M766.604 443.326C766.432 444.462 765.746 445.347 763.858 445.599C762.485 445.726 760.94 444.462 760.94 443.199C760.94 441.431 761.97 440.42 763.686 440.42C765.403 440.546 766.604 441.81 766.604 443.326Z" fill="#F2CB8D"/>
<path id="Vector_58" d="M760.94 467.58C760.94 466.316 762.485 464.927 763.858 465.053C765.574 465.179 766.604 466.19 766.604 467.453C766.776 468.843 765.403 469.853 763.686 469.853C761.798 469.853 760.94 468.969 760.94 467.58Z" fill="#F2CB8E"/>
<path id="Vector_59" d="M761.455 434.23C760.597 432.714 761.283 431.577 762.828 430.693C764.201 430.693 765.403 430.82 766.089 431.83C766.947 432.841 766.776 433.851 765.746 434.736C764.201 435.746 762.828 435.114 761.455 434.23Z" fill="#F2CB8D"/>
<path id="Vector_60" d="M764.373 505.476C764.544 504.34 765.403 503.455 767.291 503.582C769.007 503.708 769.865 504.719 769.865 505.855C769.865 506.992 769.179 507.877 767.291 508.003C765.918 508.003 764.373 506.74 764.373 505.476Z" fill="#F2CB8D"/>
<path id="Vector_61" d="M767.291 480.464C767.119 481.728 766.261 482.738 764.544 482.612C763 482.612 761.798 481.728 761.798 480.464C761.798 479.327 762.656 478.317 764.373 478.317C766.089 478.317 767.119 479.201 767.291 480.464Z" fill="#F2CA8D"/>
<path id="Vector_62" d="M763.858 494.107C763.858 492.97 764.716 492.212 766.089 492.086C767.462 491.96 769.007 493.223 769.007 494.36C769.007 495.497 768.149 496.255 766.604 496.381C765.231 496.507 763.858 495.371 763.858 494.107Z" fill="#F2CA8D"/>
<path id="Vector_63" d="M764.201 452.673C766.089 452.8 766.604 453.431 766.604 454.694C766.604 456.084 765.574 456.842 763.858 456.842C762.142 456.842 761.283 455.958 761.283 454.694C761.455 453.431 762.656 452.8 764.201 452.673Z" fill="#F2CB8D"/>
<path id="Vector_64" d="M777.932 345.678C773.298 350.352 767.977 354.647 762.828 358.942C756.134 358.942 751.843 356.163 748.582 352.12C745.664 348.962 743.948 345.425 743.262 341.636C742.232 335.951 742.747 330.14 743.776 324.456C744.291 322.182 744.806 319.782 747.552 318.013C748.754 317.761 749.44 318.266 750.299 318.771C760.597 325.214 771.753 330.898 784.626 334.435C785.312 334.562 785.999 334.814 786.342 335.319C785.827 337.214 784.111 338.73 782.738 340.372C781.021 342.015 779.477 343.909 777.932 345.678Z" fill="#FEEDD9"/>
<path id="Vector_65" d="M786.171 335.193C772.44 331.909 760.768 325.972 749.955 319.15C749.441 318.771 748.754 318.392 748.239 318.013C747.553 317.761 747.038 317.508 747.209 316.876C748.411 315.866 748.411 314.35 750.127 313.718C754.246 316.876 758.881 319.655 764.03 321.803C766.604 322.94 769.179 323.698 771.925 324.582C763.858 321.929 757.164 317.761 750.985 313.087C751.672 311.318 753.731 309.929 755.963 309.802C758.366 311.697 760.597 313.718 763.343 315.487C767.806 318.266 772.783 320.413 776.216 321.045C769.865 319.782 763.858 315.487 758.366 310.813C757.851 310.308 757.336 309.802 757.336 309.044C758.022 307.781 759.567 307.402 761.283 307.149C763.858 308.034 765.231 310.181 767.462 311.065C765.746 309.929 764.03 308.413 762.313 306.897C763.686 305.76 765.574 305.507 767.462 305.507C771.925 308.918 777.074 311.823 782.566 314.224C778.275 312.329 774.843 309.55 770.895 307.149C770.208 306.644 769.35 306.265 768.492 306.013C767.977 305.886 767.634 305.634 768.149 305.255C770.208 304.497 772.44 304.876 774.499 305.002C775.529 305.128 776.559 305.381 777.417 305.255C780.85 306.392 783.424 308.286 785.141 310.686C789.603 316.75 789.946 323.066 788.059 329.635C787.715 331.656 787.2 333.551 786.171 335.193Z" fill="#63362A"/>
<path id="Vector_66" d="M747.209 317.003C747.553 317.382 747.896 317.634 748.239 318.013C745.665 319.655 745.15 322.056 744.463 324.203C743.433 327.74 743.777 331.277 743.433 334.941C743.09 340.499 744.635 345.804 748.067 350.857C748.239 351.236 748.411 351.615 748.582 351.994C748.411 351.994 748.239 351.994 748.067 351.994C747.209 351.741 746.694 351.236 746.18 350.731C739.314 343.404 735.366 335.446 734.852 326.477C734.508 322.435 735.366 318.392 737.941 314.603C738.628 313.466 739.314 312.202 741.03 311.571C741.374 311.571 741.889 311.571 742.06 311.823C743.777 313.592 745.836 315.108 747.209 317.003Z" fill="#EADAC6"/>
<path id="Vector_67" d="M747.209 317.003C744.806 315.487 743.262 313.592 741.374 311.697C740.859 310.939 741.374 310.434 742.06 309.929C748.239 304.497 755.791 301.339 765.746 302.223C769.865 302.855 773.984 303.612 777.589 305.381C776.387 306.013 775.014 305.76 773.813 305.634C771.925 305.381 770.037 305.128 768.149 305.76C767.977 305.886 767.806 305.886 767.634 305.76C765.918 306.139 764.03 306.392 762.313 307.149C762.142 307.528 761.97 307.655 761.455 307.528C760.082 308.16 758.537 308.286 757.679 309.297C757.164 309.802 756.649 310.308 755.791 309.929C753.731 310.56 752.702 312.076 750.985 313.087C750.985 313.466 750.985 313.971 750.127 313.845C748.926 314.855 749.097 316.497 747.209 317.003Z" fill="#4B2A20"/>
<path id="Vector_68" d="M765.746 302.349C756.821 301.97 749.784 304.623 743.777 309.297C742.747 310.055 741.889 310.813 741.374 311.823C737.769 314.855 736.225 318.645 735.881 322.561C734.852 332.793 739.142 341.888 746.694 350.352C747.209 350.983 747.724 351.489 748.239 352.12C746.351 352.247 745.493 351.11 744.635 350.226C738.627 344.415 735.023 337.846 733.822 330.519C732.964 325.087 733.478 319.782 736.225 314.602C737.598 312.076 740.001 310.055 742.747 308.16C745.836 306.139 748.926 304.244 752.873 303.233C757.164 301.97 761.455 301.465 765.746 302.349Z" fill="#CD7058"/>
<path id="Vector_69" d="M756.649 392.544C755.791 392.165 754.933 391.659 754.761 390.775C754.761 389.133 754.761 387.491 754.761 385.849C754.761 380.669 755.104 375.364 755.791 370.185C755.791 369.806 756.134 369.427 756.306 369.048C758.194 368.795 759.567 369.3 760.597 370.437C760.94 371.321 760.94 372.206 760.94 373.09C760.94 378.396 760.768 383.827 760.94 389.133C760.94 390.017 760.94 390.901 760.254 391.659C759.224 392.544 758.194 392.923 756.649 392.544Z" fill="#CD7057"/>
<path id="Vector_70" d="M760.082 370.311C758.88 369.932 757.507 369.553 756.306 369.174C753.045 367.279 751.328 364.879 750.642 361.974C750.47 361.342 750.127 360.458 751.329 360.079C752.702 359.826 753.045 360.71 753.388 361.342C753.903 362.352 754.418 363.363 754.933 364.247C755.963 366.142 758.022 367.026 760.597 367.658C761.283 367.784 769.35 369.806 774.328 369.174C777.589 368.795 780.678 367.911 783.939 367.279C785.312 366.647 786.514 366.521 787.715 367.405C787.2 368.163 786.685 368.921 785.827 369.427C778.962 371.953 771.753 373.216 764.201 371.7C762.485 371.448 760.94 371.321 760.082 370.311Z" fill="#EDC78B"/>
<path id="Vector_71" d="M794.752 359.826C794.237 360.71 793.208 361.468 792.521 362.226C790.461 362.984 788.059 363.111 785.827 363.237C783.596 363.995 781.365 364.753 779.133 365.258C774.671 366.395 770.723 365.384 768.835 362.479C768.835 361.847 768.835 361.216 769.694 360.963C770.723 360.71 771.067 361.342 771.41 361.847C772.955 363.237 775.529 363.616 778.619 362.732C781.021 362.1 783.253 361.216 785.484 360.458C788.402 359.573 791.491 359.447 794.752 359.826Z" fill="#ECC68B"/>
<path id="Vector_72" d="M785.656 363.11C787.715 362.1 789.946 361.974 792.349 362.1C790.805 363.868 789.088 365.637 787.544 367.405C786.342 367.405 784.969 367.279 783.768 367.279C783.596 365.763 785.141 364.626 785.656 363.11Z" fill="#CD7158"/>
<path id="Vector_73" d="M795.267 431.451C788.402 428.925 782.395 425.388 776.216 422.103C772.611 420.208 769.35 418.061 765.746 416.04C764.888 415.535 764.03 414.903 764.888 414.019C768.32 410.608 770.552 406.439 774.671 403.281C776.044 402.271 776.902 400.881 779.133 400.628C780.163 402.144 781.536 401.892 782.909 401.134C785.656 399.744 786.342 396.839 783.939 394.439C781.88 392.417 782.566 391.28 784.283 389.512C787.029 386.607 789.088 383.322 791.835 380.543C792.864 379.406 793.379 379.406 794.409 380.543C798.528 385.47 801.446 390.901 803.677 396.46C804.879 399.239 805.565 402.144 806.595 404.923C806.939 405.808 806.767 406.313 805.909 406.945C804.879 407.576 804.021 407.45 803.163 407.071C799.73 405.681 796.812 403.786 793.208 402.65C791.32 402.018 789.603 401.26 787.715 400.502C786.857 400.123 785.999 399.87 785.141 400.502C784.283 401.134 784.454 401.892 784.969 402.65C785.484 403.407 785.999 404.039 786.514 404.797C790.805 411.997 793.208 419.703 794.924 427.409C795.439 428.546 795.096 430.062 795.267 431.451Z" fill="#E17A5F"/>
<path id="Vector_74" d="M778.962 400.628C773.984 403.786 770.552 407.702 767.462 411.871C766.776 412.755 766.432 413.892 764.716 414.018C764.544 414.018 764.373 414.019 764.201 413.892C763.686 413.008 764.544 412.25 764.888 411.618C767.291 408.081 768.32 404.418 768.149 400.502C768.149 398.102 767.119 395.954 765.403 393.933C764.716 393.049 763.686 392.544 762.142 392.417C761.455 392.291 760.597 392.417 760.254 391.659C762.313 390.649 764.544 390.649 766.947 391.786C768.492 392.291 769.865 392.67 771.41 393.175C772.268 393.554 773.298 393.933 774.156 394.312C775.701 395.323 777.417 396.333 778.79 397.47C780.163 398.607 780.506 399.618 778.962 400.628Z" fill="#EADAC6"/>
<path id="Vector_75" d="M749.955 569.143C750.127 571.922 750.127 571.796 753.731 571.417C759.739 570.912 765.918 570.533 771.925 569.901C772.955 569.775 773.984 569.775 774.328 570.912C775.872 575.08 777.417 579.249 777.074 583.797C776.902 585.691 776.387 587.586 776.044 589.481C775.701 590.744 774.328 590.871 772.955 590.871C767.462 591.123 761.97 590.365 756.478 589.607C754.59 589.355 752.702 589.102 750.642 588.723C748.926 587.46 748.411 585.944 748.411 584.176C748.411 582.912 748.411 581.523 748.411 580.26C747.724 578.365 748.067 576.47 748.067 574.575C748.067 573.185 748.411 571.922 748.582 570.533C748.926 570.027 748.926 569.396 749.955 569.143Z" fill="#F3CC8E"/>
<path id="Vector_76" d="M840.407 404.165C840.751 401.765 839.892 399.239 840.922 396.839L841.094 396.965C841.952 397.597 841.78 398.355 841.78 399.113C841.78 399.997 842.295 400.502 843.668 400.502C846.758 400.502 849.847 400.502 852.937 399.997C853.967 401.134 853.108 402.397 853.452 403.534C853.452 405.302 853.452 407.071 853.452 408.713C853.108 408.966 852.594 408.966 852.079 408.839C848.646 407.829 844.87 407.071 841.78 405.429C840.922 405.176 840.064 404.923 840.407 404.165Z" fill="#D1B17B"/>
<path id="Vector_77" d="M852.765 399.87C851.735 401.134 849.847 400.628 848.474 400.881C846.586 401.134 844.698 400.881 842.81 401.007C841.437 401.007 840.751 400.628 840.922 399.618C841.094 398.734 840.922 397.723 840.922 396.839C841.781 396.207 842.467 396.712 843.325 396.965C846.415 397.976 849.504 398.986 852.765 399.87Z" fill="#BA9C6D"/>
<path id="Vector_78" d="M896.361 432.841C897.219 433.22 897.562 433.851 897.734 434.609C898.077 439.409 897.219 444.21 897.219 449.136C897.219 450.273 897.562 450.652 899.278 450.779C906.144 451.284 913.009 451.158 919.703 450.4C921.763 450.147 923.994 450.4 926.054 450.4C926.054 454.063 926.569 453.558 921.763 453.558C914.726 453.558 907.517 453.558 900.48 453.558C898.935 453.558 897.562 453.684 896.704 454.947C896.189 455.705 895.159 456.337 894.129 456.337C888.98 456.337 883.831 456.716 878.511 456.084C877.481 455.958 876.966 455.579 876.451 455.074C877.137 454.442 877.996 454.568 878.854 454.695C882.973 455.074 887.092 454.821 891.212 454.821C894.129 454.821 894.816 454.189 894.473 452.168C893.958 449.136 894.473 446.105 894.816 443.199C894.816 441.304 894.644 439.283 894.988 437.388C895.502 436.504 895.159 435.62 895.331 434.862C895.674 433.851 895.674 433.22 896.361 432.841Z" fill="#D1B07B"/>
<path id="Vector_79" d="M904.084 444.084C904.084 444.968 903.569 445.347 902.368 445.473C901.338 445.473 900.823 445.094 900.823 444.462C900.823 443.705 901.338 443.073 902.539 443.073C903.569 442.947 904.084 443.452 904.084 444.084Z" fill="#B99C6D"/>
<path id="Vector_80" d="M933.434 444.336C933.434 445.22 932.404 445.473 931.546 445.599C930.688 445.726 930.173 445.347 930.173 444.715C930.173 443.957 930.859 443.452 931.889 443.326C932.919 443.199 933.262 443.831 933.434 444.336Z" fill="#BB9D6E"/>
<path id="Vector_81" d="M917.815 443.957C917.815 444.589 917.3 445.22 916.27 445.347C915.584 445.347 914.897 445.094 914.897 444.336C914.897 443.578 915.412 442.946 916.614 442.946C917.472 442.82 917.815 443.325 917.815 443.957Z" fill="#BA9D6E"/>
<path id="Vector_82" d="M950.426 443.452C950.083 443.957 949.911 444.589 949.053 444.589C948.366 444.589 947.851 444.336 947.851 443.704C947.851 443.073 948.366 442.694 949.224 442.568C949.911 442.568 950.426 442.82 950.426 443.452Z" fill="#BD9F70"/>
<path id="Vector_83" d="M749.955 568.511C748.754 566.996 749.784 565.227 748.582 563.711C748.239 558.279 749.097 552.847 749.784 547.415C750.299 544.005 750.47 540.594 750.814 537.183C750.985 535.415 751.157 533.646 751.329 531.751C751.329 531.12 751.5 530.741 752.53 530.741C756.478 530.488 760.425 530.109 764.373 530.615C766.261 530.867 768.149 530.741 770.037 530.741C771.41 530.741 771.925 531.12 771.753 532.13C771.753 532.257 771.753 532.509 771.753 532.636C771.925 539.205 771.925 545.647 772.268 552.216C772.611 557.142 772.955 562.069 774.499 566.869C774.671 567.248 774.499 567.627 774.499 567.88C766.432 567.753 758.194 568.764 749.955 568.511Z" fill="#81B29A"/>
<path id="Vector_84" d="M895.846 442.947C895.674 444.968 895.674 447.115 895.502 449.136C895.502 449.894 895.502 450.526 895.502 451.284C896.017 454.947 895.674 455.2 890.868 455.2C886.234 455.2 881.6 455.326 876.966 454.821C876.279 454.316 875.764 453.81 875.421 453.052C875.421 452.042 875.421 450.905 875.421 449.894C874.906 449.389 874.906 448.884 875.593 448.505C876.794 448.631 877.824 448.631 878.854 448.252C879.884 447.873 880.913 447.241 881.943 448.126C882.115 448.505 882.115 448.884 882.287 449.263C883.488 451.663 886.234 449.894 888.122 450.4C889.495 450.779 889.838 450.021 889.838 449.136C889.838 447.747 889.667 446.484 890.01 445.094C890.01 444.841 890.182 444.589 890.353 444.336C892.07 443.704 893.786 442.947 895.846 442.947Z" fill="#E17A5F"/>
<path id="Vector_85" d="M904.771 417.05C905.801 417.303 906.487 417.682 906.315 418.44C906.144 419.198 905.629 419.577 904.599 419.577C903.569 419.577 903.054 419.324 903.226 418.566C903.054 417.682 903.741 417.303 904.771 417.05Z" fill="#B99C6D"/>
<path id="Vector_86" d="M917.815 419.071C916.785 419.071 916.442 418.693 916.442 418.187C916.442 417.429 917.128 416.924 918.158 416.798C919.016 416.671 919.531 417.177 919.531 417.682C919.531 418.566 918.673 418.945 917.815 419.071Z" fill="#B99C6D"/>
<path id="Vector_87" d="M933.949 417.429C933.777 418.061 933.434 418.566 932.576 418.566C931.717 418.566 931.203 418.187 931.203 417.429C931.203 416.798 931.546 416.292 932.576 416.292C933.434 416.419 933.949 416.798 933.949 417.429Z" fill="#BB9E6F"/>
<path id="Vector_88" d="M946.478 416.04C947.336 416.04 947.851 416.419 947.851 417.05C947.851 417.808 947.165 418.187 946.135 418.187C945.448 418.187 944.59 418.061 944.762 417.303C944.762 416.545 945.277 416.04 946.478 416.04Z" fill="#BB9D6E"/>
<path id="Vector_89" d="M840.407 404.165C841.78 405.302 843.668 405.934 845.556 406.566C847.959 407.45 850.705 408.081 853.28 408.713C858.601 410.482 864.093 411.871 870.1 411.618C872.846 411.492 875.764 411.24 878.51 411.871C879.54 412.755 879.197 413.766 879.369 414.777C879.54 416.166 879.197 417.682 879.197 419.072C879.369 420.966 879.197 422.988 878.167 424.756C877.481 425.261 876.451 425.388 875.593 425.388C871.988 425.388 868.384 425.514 864.78 425.009C861.862 424.63 858.772 424.756 855.855 424.63C851.22 424.63 846.929 423.745 843.153 421.724C842.124 421.219 841.094 420.587 840.579 419.829C835.945 418.187 837.318 414.903 836.975 412.25C836.631 410.103 837.146 407.829 837.318 405.681C837.146 404.165 838.691 404.039 840.407 404.165Z" fill="#E4C087"/>
<path id="Vector_90" d="M878.51 419.198C878.51 416.798 878.51 414.271 878.51 411.871C879.025 411.113 878.854 410.355 879.025 409.597C879.197 407.197 879.884 406.313 882.973 406.06C887.607 405.808 892.413 405.302 897.047 406.566C898.249 408.966 898.764 411.366 898.077 413.892C896.532 414.903 894.816 415.661 892.585 414.903C892.07 414.398 892.07 413.766 892.241 413.261C892.928 410.987 892.928 410.861 889.667 410.861C885.033 410.861 885.033 410.861 884.518 414.271C884.346 415.029 884.518 415.787 884.174 416.545C883.316 417.556 881.085 416.924 880.57 418.314C880.055 418.819 879.54 419.324 878.51 419.198Z" fill="#E17A5F"/>
<path id="Vector_91" d="M760.425 391.786C765.059 391.912 767.634 393.681 768.664 397.47C770.208 403.407 768.492 408.713 764.373 413.892C763.171 414.019 762.142 413.892 760.94 413.64C759.739 413.892 758.88 413.513 758.194 412.755C756.993 411.997 755.963 411.366 754.761 410.608C751.843 409.597 750.642 407.702 750.47 405.429C750.47 404.671 750.299 403.913 749.612 403.281C749.269 401.134 749.955 399.112 750.642 396.965C752.187 395.07 754.246 393.554 756.821 392.417C757.851 392.165 758.709 391.912 759.739 391.659C759.91 391.659 760.082 391.659 760.425 391.786Z" fill="#FEEDD9"/>
<path id="Vector_92" d="M758.194 412.882C759.052 413.134 760.082 413.513 760.94 413.766C760.254 416.04 758.709 418.061 757.851 420.208C756.478 422.861 755.276 425.514 753.903 428.293C753.56 428.167 753.217 428.04 753.045 428.04C752.53 427.914 752.015 427.788 751.672 427.661C751.672 426.019 752.702 424.63 753.388 423.114C754.59 420.208 755.963 417.429 757.336 414.524C757.336 413.892 757.336 413.261 758.194 412.882Z" fill="#8D8A80"/>
<path id="Vector_93" d="M875.936 448.505C875.421 448.884 875.593 449.389 875.421 449.894C869.414 449.515 863.578 448.757 857.743 448.126C851.392 447.368 846.758 444.21 841.094 442.441C840.236 442.189 839.378 441.557 838.519 442.568C838.348 442.062 838.691 441.431 838.005 441.178C835.945 440.546 836.288 439.409 836.117 438.146C835.945 435.241 835.773 432.335 835.602 429.43C835.43 427.156 835.945 426.777 838.863 427.282C839.721 427.409 839.893 427.156 840.236 426.777C842.982 428.925 846.586 429.935 849.847 431.325C850.877 431.83 851.392 431.577 851.392 430.693C851.392 429.43 851.22 428.293 851.564 427.03C851.735 426.525 851.907 426.019 852.765 425.893C853.452 425.767 854.482 425.64 854.482 426.525C853.108 426.398 852.422 426.777 852.594 427.914C852.594 428.04 852.594 428.293 852.594 428.419C852.765 429.935 851.564 432.083 853.108 432.967C855.168 434.357 858.086 435.114 861.004 435.62C865.638 436.378 870.272 435.62 874.906 436.378C875.764 436.504 876.451 436.251 876.451 435.493C876.451 434.988 876.279 434.483 876.794 433.978C877.996 434.862 877.481 435.872 877.481 436.883C877.309 439.409 876.451 441.936 876.623 444.462C876.623 445.726 877.309 447.242 875.936 448.505Z" fill="#E4C087"/>
<path id="Vector_94" d="M854.653 426.525C852.937 425.767 852.25 426.272 852.25 427.661C852.25 429.304 852.25 430.946 852.25 432.841C848.131 431.325 844.355 429.935 840.922 428.167C840.407 427.914 840.407 427.283 840.236 426.904C840.236 424.63 840.236 422.23 840.236 419.956C841.266 420.461 842.295 420.966 843.325 421.472C847.444 423.493 852.079 424.251 856.884 424.251C863.75 424.124 870.615 425.388 877.652 424.882C877.824 425.009 877.996 425.135 878.167 425.261C878.339 425.893 878.339 426.398 877.652 426.904C870.1 426.398 862.377 426.525 854.653 426.525Z" fill="#D1B07B"/>
<path id="Vector_95" d="M876.108 444.336C875.764 440.799 877.137 437.388 876.966 433.851C878.339 431.451 879.025 431.072 883.831 431.451C886.921 431.704 890.182 431.704 893.271 431.704C894.644 431.704 895.846 431.83 896.532 432.714C896.361 434.104 896.875 435.62 896.017 437.009C893.958 437.262 892.241 437.767 892.07 439.662C892.07 440.168 891.555 440.546 890.868 439.915C890.182 438.778 890.697 437.641 890.182 436.504C888.294 435.746 886.234 436.125 884.174 436.251C882.973 436.378 882.973 437.009 882.973 437.641C882.801 439.157 883.316 440.799 882.63 442.315C882.458 442.441 882.286 442.568 882.115 442.694C880.055 441.557 878.167 441.936 876.966 443.705C876.794 443.957 876.622 444.336 876.108 444.336Z" fill="#E17A5F"/>
<path id="Vector_96" d="M877.824 426.903C877.824 426.272 877.824 425.767 877.824 425.135C879.197 424.124 880.57 423.24 882.801 423.745C883.488 424.756 884.689 425.135 886.234 425.009C887.95 424.882 890.01 425.64 891.555 424.503C892.07 423.366 891.383 422.103 892.241 421.093C893.786 420.208 895.502 419.45 897.734 419.956C897.219 422.356 897.39 424.756 897.39 427.03C897.39 428.293 896.361 429.051 894.644 429.051C889.495 428.925 884.346 429.43 879.369 428.672C878.854 428.04 878.339 427.409 877.824 426.903Z" fill="#E17A5F"/>
<path id="Vector_97" d="M745.836 400.628C743.948 406.566 742.232 412.503 734.508 416.166C733.65 416.545 732.792 417.05 732.105 416.166C728.673 411.997 725.24 407.955 723.867 403.155C726.613 401.007 729.874 399.239 733.822 398.481C738.284 397.723 742.403 398.355 745.836 400.628Z" fill="#FEEDD9"/>
<path id="Vector_98" d="M760.425 391.786C760.082 391.786 759.91 391.786 759.567 391.786C760.082 391.154 760.082 390.396 760.082 389.765C760.082 383.322 760.082 376.753 760.082 370.311C767.291 372.458 774.499 372.458 781.708 370.184C782.909 369.806 784.111 369.427 785.656 369.553C779.992 375.995 774.156 382.185 769.179 388.88C768.492 389.891 767.805 390.902 767.119 391.786C764.888 391.786 762.656 391.028 760.425 391.786Z" fill="#E17A5F"/>
<path id="Vector_99" d="M897.734 419.83C896.017 420.082 894.473 420.84 892.585 420.84C891.726 420.335 891.898 419.577 891.898 418.819C891.898 418.187 891.898 417.556 891.898 416.924C891.898 416.166 891.726 415.408 892.585 414.903C894.301 414.524 896.017 414.145 897.734 413.892C897.905 415.914 897.734 417.935 897.734 419.83Z" fill="#D47259"/>
<path id="Vector_100" d="M750.47 405.555C751.328 407.576 752.873 409.218 754.761 410.734C753.56 411.745 753.216 413.134 752.358 414.397C751.328 413.513 750.127 412.755 749.097 411.871C749.612 409.724 749.955 407.702 750.47 405.555Z" fill="#F2CC8F"/>
<path id="Vector_101" d="M755.791 310.055C756.478 309.802 756.821 309.297 757.679 309.423C762.656 314.476 768.835 318.645 776.731 321.045C777.589 321.298 778.619 321.55 779.477 321.929C776.216 322.056 773.126 321.171 770.38 320.034C764.716 317.761 760.082 314.603 756.134 310.813C755.791 310.56 755.791 310.308 755.791 310.055Z" fill="#8D4E3C"/>
<path id="Vector_102" d="M750.127 313.845C750.47 313.592 750.814 313.339 750.985 313.087C751.328 313.213 751.843 313.339 752.187 313.592C758.194 318.14 765.059 321.929 772.783 324.961C769.865 324.708 767.291 323.824 764.888 322.814C759.91 320.792 755.276 318.392 751.328 315.36C750.814 314.855 750.127 314.603 750.127 313.845Z" fill="#8D4E3C"/>
<path id="Vector_103" d="M767.634 305.886C767.806 305.886 767.977 305.886 768.149 305.886C768.835 305.886 769.522 305.76 770.208 306.139C774.843 309.297 779.305 312.455 785.141 315.234C782.738 315.108 781.536 314.35 780.335 313.718C776.044 311.95 772.268 309.676 768.835 307.15C768.149 306.771 767.634 306.392 767.634 305.886Z" fill="#8D4E3C"/>
<path id="Vector_104" d="M761.455 307.655C761.798 307.528 762.142 307.402 762.313 307.276C763.515 307.149 763.858 307.907 764.545 308.413C766.261 309.676 767.462 311.444 769.865 312.202C765.918 311.697 763.858 309.55 761.455 307.655Z" fill="#8C4D3B"/>
<path id="Vector_105" d="M891.212 440.167C891.555 439.788 891.555 439.409 891.555 439.031C891.726 437.515 893.614 436.504 895.674 436.757L895.846 437.009C895.846 439.031 895.674 440.925 895.674 442.946C893.958 443.452 892.585 444.462 890.697 444.336C889.838 443.704 890.525 443.073 890.353 442.315C890.525 441.557 890.353 440.799 891.212 440.167Z" fill="#D47259"/>
<path id="Vector_106" d="M890.697 444.968C890.697 446.736 890.697 448.378 890.697 450.147C890.697 450.779 890.525 451.284 889.324 451.158C887.436 450.779 885.376 451.031 883.488 451.031C881.772 451.031 880.913 450.905 881.6 449.389C881.772 448.884 881.6 448.378 881.6 447.873C880.913 447.368 880.913 446.736 881.428 446.105C884.003 444.841 887.092 444.841 890.01 444.715C890.182 444.715 890.525 444.841 890.697 444.968Z" fill="#E0BC84"/>
<path id="Vector_107" d="M881.772 446.105C881.772 446.736 881.772 447.242 881.6 447.873C880.227 448.378 878.854 448.757 877.481 449.263C876.279 449.768 875.936 449.389 875.936 448.505C875.936 447.115 875.936 445.726 876.108 444.336C876.279 442.82 877.652 442.062 879.54 441.431C881.257 440.925 882.115 441.052 881.772 442.568C881.257 443.325 880.055 442.947 879.369 443.452C880.055 444.083 881.6 443.704 882.115 444.589C882.458 445.094 882.286 445.599 881.772 446.105Z" fill="#D37259"/>
<path id="Vector_108" d="M881.6 444.336C880.227 444.21 878.167 444.715 877.996 443.452C877.996 441.936 880.398 442.82 881.6 442.441C881.772 442.441 881.943 442.441 881.943 442.441C882.801 441.936 883.831 441.936 884.861 441.936C886.921 441.936 888.98 441.431 890.868 442.441C890.697 443.073 890.697 443.578 890.525 444.21C890.525 444.462 890.353 444.589 890.353 444.841C890.182 444.841 890.01 444.841 889.838 444.841C888.294 444.21 886.577 444.841 885.033 444.841C884.003 444.841 882.801 445.094 881.6 444.336Z" fill="#B7986B"/>
<path id="Vector_109" d="M882.63 423.745C881.085 424.251 879.54 424.63 877.996 425.135C877.996 425.009 877.995 424.882 877.824 424.756C877.995 422.861 878.339 420.966 878.51 419.198C879.025 418.945 879.884 418.819 879.884 418.187C881.085 417.808 882.286 417.934 883.488 418.44C884.003 418.945 884.003 419.45 884.003 419.956C883.831 421.219 884.346 422.735 882.63 423.745Z" fill="#D37359"/>
<path id="Vector_110" d="M873.018 417.429C873.876 417.429 874.391 417.808 874.391 418.44C874.391 419.072 873.705 419.451 872.846 419.451C871.988 419.577 871.473 419.072 871.645 418.566C871.645 417.935 872.16 417.429 873.018 417.429Z" fill="#BA9C6E"/>
<path id="Vector_111" d="M892.756 415.029C892.756 415.661 892.585 416.419 892.585 417.05C890.353 417.556 888.294 417.682 886.234 416.671C885.204 415.029 885.891 413.513 886.577 411.997C886.921 410.987 889.495 410.608 891.726 411.113C893.443 411.492 893.1 412.376 892.756 413.387C892.585 413.766 892.756 414.398 892.756 415.029Z" fill="#E4C087"/>
<path id="Vector_112" d="M892.585 413.261C892.928 411.618 891.555 411.366 889.838 411.492C888.294 411.618 886.577 411.24 886.921 413.134C887.092 414.271 886.234 415.534 886.577 416.671C885.548 417.303 884.689 417.303 883.659 416.671C883.831 414.903 884.003 413.134 884.174 411.366C884.174 410.608 884.689 410.355 885.719 410.355C887.264 410.355 888.637 410.355 890.182 410.355C893.443 410.355 893.614 410.734 892.585 413.261Z" fill="#D3B17C"/>
<path id="Vector_113" d="M883.488 416.671C884.518 416.671 885.376 416.671 886.406 416.671C888.465 416.798 890.525 416.545 892.413 417.05C892.413 417.682 892.413 418.187 892.413 418.819C892.241 418.945 891.898 418.945 891.726 418.819C889.495 418.44 887.436 418.44 885.204 418.566C884.346 418.566 883.66 418.819 882.973 418.314C881.943 418.314 880.742 418.44 879.712 417.935C880.055 416.166 882.115 416.924 883.488 416.671Z" fill="#B8996B"/>
<path id="Vector_114" d="M871.645 442.694C871.473 443.452 871.13 444.083 869.929 444.083C869.071 444.083 868.727 443.831 868.727 443.199C868.727 442.441 869.242 441.81 870.272 441.683C871.302 441.557 871.645 442.062 871.645 442.694Z" fill="#B99C6D"/>
<path id="Vector_115" d="M891.04 442.568C888.98 442.568 886.921 442.568 885.033 442.568C883.488 440.673 884.174 438.778 884.518 436.883C884.689 436.125 885.548 435.999 886.577 435.999C888.122 435.999 889.667 435.999 891.212 435.999C891.212 437.388 891.211 438.778 891.383 440.167C891.211 440.925 891.212 441.81 891.04 442.568Z" fill="#E4C087"/>
<path id="Vector_116" d="M891.212 435.999C889.838 436.504 888.294 436.378 886.749 436.378C885.376 436.378 884.861 436.757 884.861 437.641C884.861 439.283 884.861 440.925 884.861 442.694C883.831 442.694 882.973 442.694 881.943 442.694C881.943 440.799 882.115 439.03 881.943 437.136C881.943 436.125 882.286 435.62 883.831 435.746C886.406 435.872 888.809 435.115 891.212 435.999Z" fill="#D4B17C"/>
<path id="Vector_117" d="M892.07 418.819C892.241 418.819 892.413 418.819 892.413 418.819C892.413 419.451 892.413 420.208 892.585 420.84C892.585 422.23 892.585 423.619 892.585 425.009C890.525 425.514 888.465 424.882 886.406 425.009C885.548 425.009 885.033 424.63 885.033 423.998C885.033 422.356 884.689 420.714 886.062 419.324C887.95 418.44 890.01 418.44 892.07 418.819Z" fill="#E4C087"/>
<path id="Vector_118" d="M886.406 419.577C885.376 420.966 886.234 422.609 885.547 423.998C885.204 424.503 886.062 424.756 886.749 424.756C888.637 424.882 890.697 425.009 892.585 425.135C889.667 425.893 886.577 425.388 883.659 425.388C882.458 425.388 882.63 424.377 882.63 423.745C883.316 422.482 882.973 421.219 883.145 419.956C884.174 419.198 885.204 418.819 886.406 419.577Z" fill="#D3B17C"/>
<path id="Vector_119" d="M761.97 379.027C761.97 377.89 762.485 377.132 764.03 377.259C765.574 377.259 766.432 378.017 766.604 379.153C766.604 380.164 765.918 381.048 764.373 381.048C762.656 380.922 761.97 380.038 761.97 379.027Z" fill="#F2CA8D"/>
<path id="Vector_120" d="M763.171 385.596C764.544 385.849 765.574 386.228 765.403 387.238C765.231 388.122 764.544 388.754 763.171 388.754C761.97 388.628 761.455 388.122 761.455 387.238C761.455 386.228 762.142 385.849 763.171 385.596Z" fill="#F2CA8D"/>
<path id="Vector_121" d="M881.6 444.336C883.831 444.336 886.062 444.336 888.294 444.336C888.98 444.336 890.01 444.083 890.182 444.968C887.436 445.347 884.518 445.726 881.772 446.105C881.772 445.473 881.772 444.968 881.6 444.336Z" fill="#937B56"/>
<path id="Vector_122" d="M886.406 419.577C885.376 419.703 884.174 419.829 883.145 419.956C883.145 419.451 883.145 419.072 882.973 418.566C885.376 417.808 887.779 418.187 890.182 418.187C890.868 418.187 891.898 418.061 892.07 418.819C890.182 419.072 888.294 419.324 886.406 419.577Z" fill="#987F59"/>
<path id="Vector_123" d="M903.569 308.665C909.92 309.297 916.27 309.929 922.449 310.56C925.882 310.939 929.486 311.192 932.919 311.444C939.956 311.95 946.993 312.455 954.03 313.087C960.724 313.718 967.589 314.224 974.455 314.981C981.663 315.739 988.872 317.003 996.081 317.887C1002.95 318.771 1009.81 319.403 1016.68 320.161C1023.2 320.919 1029.55 321.55 1036.07 322.182C1040.88 322.687 1045.68 322.94 1050.32 323.319C1055.98 323.824 1061.65 324.329 1067.48 324.835C1074 325.466 1080.35 325.972 1086.88 326.856C1094.43 327.74 1101.98 327.993 1109.7 328.498C1112.96 328.751 1116.4 328.372 1119.66 328.877C1120.17 329.003 1120.52 329.003 1120.86 329.256C1121.03 329.382 1120.86 329.509 1120.86 329.635C1114.51 330.772 1110.05 333.425 1108.33 338.099C1107.99 339.109 1107.64 340.12 1108.67 341.13C1109.19 342.141 1108.33 342.52 1107.13 342.899C1100.09 341.636 1094.6 343.404 1090.31 347.447C1088.59 349.089 1088.25 350.984 1088.59 353.005C1088.94 354.142 1088.08 355.026 1086.7 355.531C1072.12 357.047 1057.7 355.531 1043.28 353.636C1032.98 352.247 1022.68 351.615 1012.39 350.731C987.671 348.583 963.298 345.173 939.784 338.983C924.337 334.941 909.233 330.646 894.644 325.214C882.63 320.792 872.503 314.476 863.063 307.402C862.033 306.897 861.175 306.265 861.175 305.255C861.347 305.128 861.519 305.002 861.862 304.876C863.235 304.497 864.78 304.623 866.153 304.876C872.847 306.139 879.884 306.139 886.749 306.77C891.383 307.149 896.189 307.528 900.823 307.907C901.681 307.907 902.883 308.034 903.569 308.665Z" fill="#76A18C"/>
<path id="Vector_124" d="M861.347 305.128C861.347 304.37 861.004 303.612 861.69 302.981C869.585 299.317 877.996 296.538 886.749 294.264C909.062 288.454 931.546 283.527 954.545 279.358C966.56 277.211 978.917 275.569 991.103 274.179C1001.06 273.169 1010.84 272.158 1020.8 271.4C1026.29 271.021 1031.61 270.895 1037.1 270.642C1049.97 270.01 1062.85 270.516 1075.72 270.389C1080.87 270.263 1086.02 270.895 1091.51 271.526C1088.42 272.537 1085.5 272.032 1082.59 272.411C1074.52 273.674 1066.28 272.916 1058.21 273.169C1049.63 273.548 1041.22 273.421 1032.64 273.926C1024.23 274.432 1015.65 275.063 1007.24 275.948C994.364 277.211 981.492 278.6 968.791 280.495C956.09 282.39 943.56 284.79 931.203 287.317C915.755 290.475 900.651 294.012 885.547 297.802C884.861 297.928 884.003 298.054 883.316 298.686C885.548 298.812 887.436 298.18 889.495 297.928C903.054 295.78 916.614 294.012 930.173 292.496C937.381 291.612 944.419 290.475 951.627 289.843C959.694 289.085 967.761 288.201 975.999 287.569C984.925 286.811 994.021 286.306 1002.95 285.548C1008.78 285.043 1014.79 285.043 1020.62 284.79C1029.89 284.411 1038.99 284.032 1048.26 283.653C1059.07 283.274 1069.88 283.401 1080.7 283.527C1087.91 283.653 1095.29 284.032 1102.49 285.548C1101.81 285.548 1100.95 285.548 1100.26 285.548C1087.56 286.053 1074.69 286.18 1061.82 286.306C1054.61 286.432 1047.23 286.559 1040.02 286.938C1031.95 287.317 1023.89 287.948 1015.82 288.201C1010.84 288.454 1005.86 288.706 1000.89 288.959C994.536 289.338 988.186 289.717 981.835 290.348C977.029 290.727 972.223 291.106 967.589 291.485C960.037 292.117 952.657 292.875 945.105 293.633C936.523 294.517 927.942 295.654 919.531 296.665C909.233 297.802 899.107 299.191 888.809 300.707C887.264 300.96 885.547 300.707 884.003 301.465C886.234 301.718 888.465 301.212 890.697 301.086C896.875 300.707 902.883 300.328 909.062 300.075C915.584 299.696 922.106 299.191 928.628 298.812C933.262 298.559 937.896 298.18 942.531 298.054C952.657 297.675 962.612 297.044 972.738 296.917C975.999 296.917 979.432 296.665 982.693 296.665C992.82 296.665 1003.12 296.538 1013.24 296.665C1020.11 296.791 1026.98 297.17 1033.84 297.549C1040.53 297.928 1047.4 298.433 1054.09 299.065C1067.14 300.202 1080.01 301.465 1092.71 303.739C1095.29 304.118 1097.86 304.37 1100.44 305.634C1097.86 305.634 1095.97 305.002 1094.08 305.002C1082.41 305.255 1071.26 303.107 1059.93 302.223C1052.38 301.591 1044.83 300.833 1037.1 300.328C1029.55 299.823 1021.83 299.57 1014.27 299.191C1002.95 298.686 991.447 298.938 980.119 298.938C972.567 298.938 965.015 299.317 957.463 299.57C949.911 299.823 942.359 300.202 934.807 300.581C925.539 301.086 916.27 301.718 907.002 302.223C901.681 302.475 896.361 302.728 891.04 302.981C887.092 303.233 883.145 303.486 879.369 303.865C883.145 304.118 887.092 304.497 890.868 304.623C899.278 305.002 907.517 305.507 915.755 306.012C922.964 306.518 930.344 307.149 937.553 307.528C946.993 307.907 956.605 308.539 966.045 309.297C972.738 309.802 979.432 310.181 985.954 310.686C994.364 311.444 1002.77 312.076 1011.18 312.96C1020.28 313.971 1029.55 314.981 1038.65 316.245C1048.09 317.508 1057.53 318.771 1066.97 320.287C1070.4 320.792 1074 321.298 1077.44 322.182C1073.66 322.056 1069.71 321.929 1065.94 321.803C1065.08 321.803 1064.39 321.55 1063.53 321.55C1055.81 321.929 1048.43 320.54 1041.05 319.655C1031.44 318.518 1021.83 317.255 1012.21 316.245C1003.98 315.487 995.909 314.602 987.671 313.845C982.35 313.339 976.858 313.087 971.537 312.708C966.216 312.329 960.896 311.823 955.575 311.444C951.284 311.192 947.165 310.939 942.874 310.686C936.867 310.307 930.859 309.929 924.852 309.423C919.531 308.918 914.039 308.539 908.718 308.286C907.174 308.286 905.457 307.276 903.913 308.16C899.107 307.781 894.301 307.402 889.495 307.023C885.548 306.77 881.772 306.265 877.824 306.139C874.391 306.012 871.13 305.886 867.869 305.128C865.466 305.128 863.406 305.128 861.347 305.128Z" fill="#78A48E"/>
<g id="wind">
<path id="Vector_125" d="M1247.7 410.608C1243.06 410.608 1238.6 410.734 1233.97 410.608C1232.59 410.608 1231.05 410.482 1229.68 410.482C1179.39 410.482 1128.93 410.482 1078.64 410.355C1066.97 410.355 1055.3 410.103 1043.62 409.597C1033.5 409.218 1023.54 408.46 1013.42 407.829C1012.21 407.702 1011.01 407.576 1009.98 407.324C1009.47 407.197 1008.78 407.071 1008.78 406.566C1008.78 406.06 1009.47 405.934 1009.98 405.808C1011.87 405.429 1013.76 405.05 1015.82 405.05C1023.54 405.05 1031.44 404.797 1039.16 405.05C1050.32 405.429 1061.65 405.176 1072.8 405.302C1093.23 405.429 1113.82 405.429 1134.25 405.808C1143.69 405.934 1153.13 405.934 1162.57 406.06C1172.01 406.313 1181.45 406.439 1191.06 406.818C1201.7 407.197 1212.34 407.576 1222.98 408.208C1230.71 408.587 1238.43 409.345 1245.98 409.976C1246.5 410.103 1247.18 410.229 1247.7 410.608Z" fill="#C6C6C6"/>
<path id="Vector_126" d="M1128.41 520.761C1127.21 521.519 1126.35 521.267 1125.49 521.393C1117.26 521.393 1109.02 521.267 1100.78 521.519C1084.82 521.898 1068.85 522.025 1052.89 522.277C1045 522.404 1037.27 522.277 1029.38 522.53C1019.94 522.783 1010.5 522.656 1001.23 522.909C983.38 523.414 965.53 523.162 947.851 523.035C943.217 523.035 938.583 523.035 933.949 522.404C933.262 522.277 932.576 522.404 932.404 521.898C932.232 521.267 933.091 521.014 933.605 520.888C936.18 520.003 938.926 520.003 941.672 519.751C945.105 519.498 948.538 519.372 952.142 519.372C962.097 519.246 972.052 519.119 982.007 518.993C1014.1 518.235 1046.37 518.74 1078.47 518.74C1089.62 518.74 1100.95 519.372 1112.11 519.751C1117.43 519.877 1122.75 520.256 1128.41 520.761Z" fill="#C6C6C6"/>
<path id="Vector_127" d="M988.357 214.429C985.268 214.681 982.35 215.06 979.261 215.186C969.477 215.692 959.522 216.323 949.739 216.702C938.583 217.081 927.427 217.839 916.27 218.471C907.688 218.976 898.935 219.355 890.353 219.86C879.884 220.492 869.242 220.997 858.772 221.629C850.191 222.134 841.609 222.513 833.027 223.018C822.729 223.524 812.602 224.029 802.304 224.408C792.349 224.787 782.566 225.166 772.611 224.913C769.179 224.787 765.746 224.913 761.97 224.029C763.515 223.271 764.888 223.397 766.261 223.271C769.007 223.018 771.753 222.892 774.499 222.892C783.939 222.639 793.379 222.134 802.819 221.503C809.513 220.997 816.378 220.745 823.072 220.366C831.482 219.86 839.892 219.229 848.303 218.723C852.937 218.471 857.571 218.218 862.205 217.966C872.675 217.46 882.973 216.829 893.443 216.323C899.107 216.071 904.599 215.692 910.263 215.565C920.733 215.313 931.031 214.934 941.501 214.681C947.165 214.555 952.829 214.555 958.493 214.429C966.216 214.302 973.94 214.176 981.663 214.05C983.895 214.176 986.126 213.671 988.357 214.429Z" fill="#C6C6C6"/>
<path id="Vector_128" d="M1328.02 312.834C1321.85 312.834 1315.67 312.96 1309.66 312.834C1299.02 312.708 1288.38 313.087 1277.91 313.339C1271.73 313.466 1265.55 313.339 1259.37 313.592C1249.76 314.097 1239.97 313.592 1230.36 313.971C1222.12 314.35 1213.71 314.224 1205.48 314.097C1199.98 314.097 1194.49 313.971 1189 313.466C1188.48 313.466 1187.97 313.339 1187.45 313.213C1186.42 312.96 1185.39 312.708 1185.57 311.697C1185.57 310.939 1186.42 310.56 1187.45 310.308C1190.72 309.423 1193.98 309.55 1197.24 309.423C1199.98 309.297 1202.9 309.423 1205.82 309.297C1226.42 308.918 1247.18 308.918 1267.78 309.044C1276.7 309.044 1285.8 309.297 1294.73 309.802C1305.54 310.308 1316.35 310.813 1326.99 312.202C1327.34 312.202 1327.85 312.076 1328.02 312.834Z" fill="#C6C6C6"/>
<path id="Vector_129" d="M1116.91 471.748C1119.32 471.495 1121.2 471.243 1123.09 471.243C1148.15 470.738 1173.04 470.738 1198.1 470.99C1208.74 471.116 1219.38 471.117 1230.19 471.243C1238.6 471.369 1247.01 471.622 1255.59 472.001C1265.89 472.506 1276.19 473.138 1286.49 473.769C1287 473.769 1287.69 473.769 1287.86 474.275C1287.17 474.906 1286.32 474.654 1285.46 474.654C1279.28 474.654 1273.27 474.654 1267.09 474.78C1251.65 475.159 1236.03 475.285 1220.58 475.033C1208.05 474.906 1195.52 474.906 1183.16 474.654C1172.87 474.527 1162.57 474.275 1152.44 473.896C1145.23 473.643 1137.85 473.39 1130.64 473.138C1126.87 473.011 1122.92 472.759 1119.14 472.506C1118.29 472.632 1117.6 472.506 1116.91 471.748Z" fill="#C6C6C6"/>
</g>
</g>
</g>
</svg>
